<svg xmlns="http://www.w3.org/2000/svg" width="1280" height="1280" viewBox="0 0 1280 1280" version="1.1"><path d="M 608 84.544 C 607.175 84.766, 599.970 85.608, 591.988 86.415 C 578.623 87.767, 561.271 90.636, 551.500 93.110 C 549.300 93.667, 544.125 94.938, 540 95.935 C 510.606 103.036, 470.541 120.072, 441 138.031 C 404.888 159.984, 369.721 190.194, 346.540 219.178 C 342.879 223.755, 339.302 228.214, 338.591 229.088 C 336.901 231.162, 318.858 256.944, 317.295 259.516 C 294.168 297.593, 281.160 328.980, 270.582 372.227 C 263.065 402.961, 260.598 428.426, 261.275 468.294 C 261.828 500.832, 263.807 516.220, 271.459 547.500 C 295.070 644.023, 352.384 723.579, 435.960 775.840 C 440.657 778.777, 445.850 782.068, 447.500 783.154 C 449.150 784.240, 459.482 789.599, 470.461 795.064 C 491.723 805.648, 495.104 806.567, 500.266 803.163 C 504.508 800.366, 505.933 797.891, 505.968 793.266 C 506.017 786.832, 502.772 784.025, 486.594 776.501 C 450.315 759.630, 420.273 738.812, 390.659 710.021 C 335.110 656.014, 302.747 593.109, 288.271 511 C 285.626 495.995, 285.539 494.334, 285.547 459 C 285.554 425.680, 285.755 421.280, 287.852 408.500 C 298.607 342.956, 320.823 291.079, 359.691 240.754 C 370.953 226.171, 402.186 195.071, 417.500 183.190 C 452.779 155.820, 489.160 136.639, 530 123.876 C 535.602 122.125, 541.985 120.499, 569 113.937 C 587.232 109.509, 643.035 106.481, 662.500 108.863 C 667.450 109.469, 675.550 110.426, 680.500 110.990 C 685.450 111.554, 692.650 112.679, 696.500 113.491 C 700.350 114.303, 706.650 115.620, 710.500 116.417 C 755.945 125.832, 803.340 147.219, 842.527 175.993 C 862.898 190.952, 891.267 217.523, 903.924 233.500 C 907.410 237.900, 910.561 241.725, 910.928 242 C 913.186 243.695, 933.799 274.121, 939.720 284.500 C 944.585 293.027, 957.014 318.977, 960.795 328.500 C 971.112 354.487, 977.808 380.899, 983.104 416.500 C 984.704 427.260, 985.658 461.340, 984.825 478 C 982.992 514.655, 974.375 554.296, 960.822 588.416 C 945.291 627.517, 925.161 659.784, 895.826 692.596 C 882.713 707.263, 873.636 716.010, 857.500 729.528 C 846.470 738.768, 844.850 739.977, 828.872 750.900 C 812.515 762.082, 784.570 776.980, 768.500 783.085 C 758.103 787.035, 755 790.237, 755 797.018 C 755 803.532, 759.674 808, 766.488 808 C 776.182 808, 818.813 786.528, 845.500 768.203 C 887.236 739.546, 920.654 705.738, 946.524 666 C 959.170 646.575, 965.584 635.375, 972.005 621.500 C 974.296 616.550, 976.986 610.925, 977.983 609 C 980.407 604.320, 991.521 574.496, 993.538 567.259 C 1003.166 532.722, 1008.285 501.924, 1009.289 472.500 C 1010.123 448.065, 1006.857 404.084, 1002.999 387.793 C 996.267 359.367, 992.849 346.862, 988.584 335.051 C 976.024 300.272, 963.941 276.811, 941.690 244 C 914.162 203.406, 873.875 165.422, 831 139.638 C 825.775 136.495, 820.825 133.505, 820 132.993 C 810.838 127.300, 781.282 113.288, 768.356 108.510 C 736.666 96.794, 709.005 89.967, 678.515 86.334 C 666.573 84.911, 611.805 83.521, 608 84.544" stroke="none" fill="#00fe81" fill-rule="evenodd"/><path d="M 615 382.907 C 613.625 383.378, 609.575 384.595, 606 385.611 C 597.559 388.011, 591.462 391.398, 582.883 398.456 C 570.405 408.721, 562.546 419.872, 555.351 437.519 C 547.651 456.408, 550.314 481.445, 562.140 501.353 C 567.309 510.054, 571.571 514.803, 580.826 522.178 C 599.622 537.157, 622.112 542.762, 644.168 537.964 C 649.836 536.730, 655.154 535.352, 655.987 534.900 C 656.819 534.448, 659.985 532.951, 663.022 531.574 C 672.632 527.217, 684.816 517.160, 691.848 507.780 C 703.756 491.898, 708.903 474.072, 707.502 453.573 C 705.611 425.933, 689.471 402.504, 663.024 389.012 C 653.458 384.132, 647.108 382.780, 632 382.407 C 624.025 382.211, 616.375 382.435, 615 382.907" stroke="none" fill="#95ff00" fill-rule="evenodd"/><path d="M 627.495 45.008 C 627.158 45.554, 624.111 46, 620.725 46 C 611.477 46, 586.642 48.131, 585.500 49.023 C 584.950 49.452, 580.900 50.309, 576.500 50.927 C 572.100 51.545, 566.700 52.463, 564.500 52.967 C 547.924 56.762, 537.349 59.449, 536.500 60.079 C 535.950 60.487, 533.727 61.152, 531.560 61.557 C 526.938 62.421, 511.083 67.711, 509.554 68.899 C 508.974 69.350, 507.030 69.997, 505.234 70.337 C 503.438 70.678, 499.613 72.030, 496.734 73.341 C 484.682 78.833, 481.988 80, 481.361 80 C 480.137 80, 469.503 85.418, 469.167 86.213 C 468.983 86.646, 468.286 87, 467.616 87 C 465.842 87, 461.017 89.373, 461.008 90.250 C 461.004 90.662, 460.511 91, 459.914 91 C 458.128 91, 445.564 97.400, 444.700 98.750 C 444.260 99.438, 443.242 100, 442.437 100 C 440.563 100, 436.736 102.130, 435.700 103.750 C 435.260 104.438, 434.283 105, 433.527 105 C 432.772 105, 430.816 106.125, 429.182 107.500 C 427.548 108.875, 425.746 110, 425.177 110 C 424.608 110, 423.542 110.563, 422.808 111.250 C 420.193 113.699, 412.154 119, 411.055 119 C 410.440 119, 409.678 119.675, 409.362 120.500 C 409.045 121.325, 408.331 122, 407.775 122 C 406.864 122, 402.073 125.657, 397.916 129.526 C 397.045 130.337, 395.966 131, 395.517 131 C 394.365 131, 380.629 142.183, 369.665 152.047 C 358.113 162.440, 337.900 183.281, 333 189.852 C 331.625 191.696, 328.137 195.967, 325.250 199.345 C 322.363 202.722, 320 206.018, 320 206.670 C 320 207.322, 318.987 208.682, 317.750 209.692 C 315.079 211.874, 309 220.364, 309 221.913 C 309 222.511, 308.571 223, 308.047 223 C 307.523 223, 306.356 224.554, 305.455 226.454 C 304.553 228.354, 303.182 230.434, 302.408 231.076 C 301.634 231.719, 301 232.842, 301 233.573 C 301 234.303, 300.411 235.260, 299.691 235.700 C 298.971 236.140, 297.792 237.963, 297.070 239.750 C 296.348 241.537, 295.409 243, 294.983 243 C 294.557 243, 293.335 244.687, 292.267 246.750 C 283.859 262.986, 278.578 272.729, 277.498 274 C 276.796 274.825, 275.905 276.993, 275.517 278.818 C 275.129 280.642, 274.179 282.378, 273.406 282.675 C 272.633 282.971, 272 283.846, 272 284.618 C 272 285.390, 271.144 287.929, 270.098 290.261 C 264.177 303.457, 262.978 306.536, 261.820 311.518 C 261.119 314.533, 260.256 317, 259.903 317 C 259.549 317, 258.664 319.137, 257.935 321.750 C 257.206 324.363, 256.026 327.625, 255.311 329 C 254.597 330.375, 254.010 332.278, 254.006 333.230 C 254.003 334.181, 253.357 336.656, 252.572 338.730 C 249.425 347.036, 245.887 359.878, 244.922 366.500 C 244.361 370.350, 243.461 374.400, 242.923 375.500 C 241.939 377.508, 239.874 390.309, 237.679 408 C 237.030 413.225, 236.092 418.134, 235.593 418.909 C 234.342 420.851, 233.840 479.306, 234.974 491 C 235.480 496.225, 236.562 505, 237.378 510.500 C 238.194 516, 239.555 525.225, 240.402 531 C 241.250 536.775, 242.373 542.400, 242.899 543.500 C 243.425 544.600, 244.571 549.963, 245.445 555.419 C 246.320 560.874, 247.428 565.824, 247.909 566.419 C 248.390 567.013, 249.312 570.080, 249.959 573.233 C 250.606 576.385, 251.515 579.200, 251.980 579.488 C 252.445 579.775, 253.133 581.921, 253.509 584.255 C 253.885 586.590, 254.791 589.447, 255.523 590.604 C 256.255 591.761, 257.163 594.461, 257.540 596.604 C 257.916 598.747, 258.781 601.400, 259.461 602.500 C 260.140 603.600, 261.272 606.300, 261.974 608.500 C 262.677 610.700, 264.107 614.413, 265.151 616.750 C 266.195 619.088, 267.320 622.350, 267.650 624 C 267.980 625.650, 268.644 627, 269.125 627 C 269.606 627, 270 627.483, 270 628.074 C 270 629.767, 284.737 658.653, 290.114 667.500 C 292.789 671.900, 295.700 677.075, 296.584 679 C 297.468 680.925, 299.006 683.400, 300.001 684.500 C 300.996 685.600, 302.640 687.890, 303.655 689.589 C 307.203 695.529, 310.928 700.838, 312.021 701.513 C 312.627 701.888, 313.514 703.163, 313.992 704.347 C 314.470 705.531, 317.030 709.147, 319.681 712.382 C 322.331 715.616, 324.998 719.118, 325.608 720.163 C 326.217 721.207, 327.423 722.836, 328.288 723.781 C 353.400 751.230, 375.707 773.608, 380.688 776.348 C 381.685 776.896, 385.010 779.517, 388.078 782.172 C 391.145 784.827, 394.135 787, 394.721 787 C 395.307 787, 396.032 787.642, 396.333 788.426 C 396.634 789.211, 399.945 791.857, 403.690 794.307 C 407.436 796.757, 411.357 799.715, 412.405 800.881 C 413.453 802.046, 414.853 803, 415.517 803 C 416.182 803, 418.424 804.350, 420.500 806 C 422.576 807.650, 424.902 809, 425.669 809 C 426.436 809, 427.322 809.675, 427.638 810.500 C 427.955 811.325, 428.786 812, 429.485 812 C 430.183 812, 431.315 812.675, 432 813.500 C 432.685 814.325, 433.925 815, 434.755 815 C 435.586 815, 436.997 815.788, 437.892 816.750 C 438.786 817.712, 442.439 820.018, 446.009 821.874 C 471.569 835.161, 481.010 839.845, 484.500 840.971 C 486.700 841.680, 489.132 842.765, 489.904 843.380 C 490.758 844.062, 495.846 844.499, 502.904 844.498 C 513.903 844.497, 514.835 844.333, 521 841.317 C 526.951 838.406, 533 833.961, 533 832.500 C 533 832.173, 534.045 830.913, 535.321 829.702 C 536.598 828.491, 538.663 825.250, 539.911 822.500 C 541.159 819.750, 542.702 816.418, 543.340 815.095 C 544.838 811.989, 544.927 786.213, 543.443 785.213 C 542.862 784.821, 541.757 782.925, 540.988 781 C 539.527 777.341, 531.944 769, 530.079 769 C 529.486 769, 528.994 768.438, 528.987 767.750 C 528.980 767.063, 526.167 765.236, 522.737 763.690 C 511.276 758.526, 503.594 754.582, 491.239 747.514 C 484.496 743.656, 477.521 739.736, 475.739 738.803 C 473.958 737.870, 472.050 736.738, 471.500 736.288 C 470.950 735.837, 468.025 733.909, 465 732.003 C 461.975 730.096, 456.316 725.941, 452.424 722.768 C 448.532 719.596, 444.970 717, 444.507 717 C 444.045 717, 442.504 715.928, 441.083 714.617 C 439.662 713.307, 435.590 709.595, 432.033 706.367 C 426.098 700.983, 416.345 691.053, 403.188 677 C 400.356 673.975, 398.023 671.050, 398.002 670.500 C 397.953 669.156, 393.500 665, 392.109 665 C 391.499 665, 391 664.484, 391 663.853 C 391 663.222, 389.425 660.784, 387.500 658.435 C 385.575 656.085, 384 653.785, 384 653.322 C 384 652.860, 383.100 651.919, 382 651.232 C 380.900 650.545, 380 649.312, 380 648.492 C 380 647.671, 379.571 647, 379.047 647 C 378.523 647, 377.356 645.446, 376.455 643.546 C 375.553 641.646, 374.182 639.566, 373.408 638.924 C 372.634 638.281, 372 637.158, 372 636.427 C 372 635.697, 371.411 634.740, 370.691 634.300 C 369.971 633.860, 368.760 631.925, 367.998 630 C 367.237 628.075, 366.229 626.235, 365.760 625.912 C 364.730 625.203, 363.351 622.689, 355.250 606.762 C 351.812 600.003, 349 593.972, 349 593.359 C 349 592.746, 348.372 591.724, 347.605 591.087 C 346.837 590.450, 345.896 588.258, 345.513 586.217 C 345.130 584.175, 344.487 582.279, 344.084 582.002 C 343.374 581.515, 341.663 577.046, 338.435 567.250 C 337.574 564.638, 336.232 561.150, 335.453 559.500 C 333.781 555.958, 331.425 547.593, 328.975 536.500 C 328.004 532.100, 326.739 527.304, 326.165 525.843 C 325.590 524.382, 324.836 520.332, 324.488 516.843 C 324.140 513.354, 323.461 509.600, 322.980 508.500 C 321.477 505.065, 320 480.606, 319.997 459.107 C 319.994 438.963, 321.643 411.996, 322.939 411 C 323.296 410.725, 324.159 406.463, 324.855 401.530 C 325.551 396.596, 326.472 392.096, 326.901 391.530 C 327.330 390.963, 328.255 387.125, 328.957 383 C 329.659 378.875, 330.552 375.050, 330.941 374.500 C 331.331 373.950, 332.196 371.475, 332.865 369 C 335.661 358.642, 339.283 347.324, 340.595 344.846 C 341.368 343.386, 342 341.432, 342 340.503 C 342 339.575, 342.900 337.671, 344 336.273 C 345.100 334.874, 346 333.124, 346 332.384 C 346 331.155, 351.060 319.571, 353.156 316 C 353.641 315.175, 355.510 311.575, 357.310 308 C 362.175 298.341, 368.130 287.726, 369.754 285.819 C 370.541 284.895, 371.931 282.786, 372.843 281.133 C 375.597 276.140, 382.179 266.769, 386.206 262.109 C 388.293 259.694, 390 257.272, 390 256.727 C 390 256.182, 391.575 254.251, 393.500 252.435 C 395.425 250.620, 397 248.607, 397 247.961 C 397 246.433, 437.584 206, 439.118 206 C 439.762 206, 441.237 205.069, 442.395 203.932 C 445.728 200.657, 455.620 193, 456.517 193 C 456.966 193, 458.045 192.315, 458.916 191.477 C 461.664 188.835, 468.241 184, 469.087 184 C 469.534 184, 472.030 182.562, 474.634 180.805 C 480.140 177.089, 482.282 175.931, 501.311 166.375 C 520.076 156.952, 531.934 151.380, 535 150.544 C 536.375 150.169, 538.850 149.258, 540.500 148.519 C 542.150 147.780, 545.525 146.642, 548 145.990 C 550.475 145.338, 553.226 144.434, 554.113 143.980 C 554.999 143.526, 558.599 142.605, 562.113 141.934 C 565.626 141.263, 568.960 140.358, 569.522 139.923 C 570.084 139.489, 573.684 138.613, 577.522 137.977 C 581.360 137.341, 585.264 136.422, 586.199 135.934 C 587.133 135.446, 595.233 134.318, 604.199 133.426 C 613.164 132.535, 621.281 131.399, 622.236 130.903 C 623.191 130.406, 628.935 130, 635 130 C 641.065 130, 646.809 130.406, 647.764 130.903 C 648.719 131.399, 656.900 132.542, 665.944 133.442 C 674.989 134.342, 682.864 135.439, 683.444 135.880 C 684.025 136.320, 687.875 137.255, 692 137.957 C 696.125 138.659, 699.950 139.579, 700.500 140.003 C 701.050 140.427, 703.525 141.104, 706 141.507 C 708.475 141.910, 712.075 142.807, 714 143.500 C 715.925 144.193, 719.525 145.310, 722 145.983 C 724.475 146.655, 727.625 147.773, 729 148.467 C 730.375 149.160, 732.850 150.041, 734.500 150.423 C 737.528 151.124, 745.231 154.350, 748 156.077 C 748.825 156.592, 750.175 157.286, 751 157.621 C 752.763 158.336, 780.989 172.485, 787.136 175.735 C 789.461 176.965, 791.619 178.324, 791.932 178.756 C 792.244 179.187, 793.625 180.124, 795 180.837 C 801.339 184.124, 804.270 185.979, 808.232 189.209 C 810.579 191.123, 813.625 193.285, 815 194.013 C 817.172 195.164, 827.100 203.184, 833.641 209.073 C 834.818 210.133, 836.281 211, 836.891 211 C 837.501 211, 838 211.675, 838 212.500 C 838 213.325, 838.534 214, 839.187 214 C 840.715 214, 873 247.059, 873 248.624 C 873 248.928, 875.025 251.492, 877.500 254.321 C 879.975 257.151, 882 259.908, 882 260.448 C 882 260.988, 882.910 262.345, 884.023 263.465 C 887.277 266.739, 891.871 273.017, 892.528 275.088 C 892.862 276.139, 893.524 277, 894 277 C 894.476 277, 895.152 277.902, 895.502 279.005 C 895.852 280.108, 897.198 282.270, 898.493 283.809 C 900.874 286.639, 902.808 289.982, 910.479 304.536 C 918.923 320.554, 925.018 333.178, 925.008 334.628 C 925.004 335.248, 925.626 336.275, 926.391 336.910 C 927.156 337.545, 927.999 339.287, 928.263 340.782 C 928.528 342.277, 929.971 346.650, 931.471 350.500 C 932.971 354.350, 934.778 359.750, 935.488 362.500 C 936.198 365.250, 937.311 368.850, 937.962 370.500 C 938.614 372.150, 940.045 377.550, 941.143 382.500 C 944.899 399.433, 945.635 402.502, 946.301 404 C 947.848 407.480, 949.994 439.047, 950.006 458.500 C 950.019 479.891, 947.521 515.729, 945.897 517.450 C 945.403 517.973, 945.002 519.323, 945.005 520.450 C 945.008 521.578, 944.351 524.525, 943.545 527 C 942.739 529.475, 941.119 535.775, 939.945 541 C 937.922 549.999, 929.489 574.608, 926.580 580 C 925.838 581.375, 924.925 583.931, 924.551 585.681 C 924.177 587.430, 923.225 589.398, 922.436 590.053 C 921.646 590.709, 921 591.819, 921 592.520 C 921 593.221, 919.617 596.653, 917.926 600.147 C 916.236 603.641, 913.873 608.525, 912.676 611 C 911.479 613.475, 910.163 615.650, 909.750 615.833 C 909.337 616.017, 909 616.622, 909 617.179 C 909 617.736, 908.140 619.399, 907.090 620.874 C 906.039 622.350, 904.099 625.569, 902.779 628.028 C 898.635 635.749, 897.536 637.477, 896.250 638.300 C 895.563 638.740, 895 639.557, 895 640.116 C 895 640.676, 893.875 642.608, 892.500 644.411 C 891.125 646.214, 890 648.193, 890 648.809 C 890 649.425, 889.100 650.411, 888 651 C 886.900 651.589, 886 652.555, 886 653.146 C 886 654.277, 880.108 661.611, 874.692 667.223 C 871.143 670.900, 862.590 680.655, 858.293 685.925 C 853.173 692.206, 835.480 709.361, 831.918 711.500 C 829.417 713.002, 814.805 724.545, 812.395 726.923 C 811.237 728.065, 809.980 729, 809.602 729 C 809.224 729, 806.571 730.693, 803.707 732.763 C 800.843 734.832, 796.925 737.316, 795 738.284 C 793.075 739.251, 789.830 741.045, 787.789 742.271 C 772.150 751.664, 754.730 760.999, 752.835 761.003 C 750.921 761.006, 736.999 770.251, 733.803 773.640 C 732.320 775.213, 729.875 778.750, 728.371 781.500 C 725.987 785.857, 725.580 787.887, 725.206 797.278 C 724.538 814.061, 727.886 823.623, 737.922 833.588 C 745.960 841.570, 754.233 844.876, 766.349 844.948 C 772.001 844.981, 776.336 844.482, 778.349 843.567 C 780.082 842.780, 783.525 841.454, 786 840.621 C 789.982 839.282, 803.687 832.447, 825.872 820.737 C 829.792 818.668, 833 816.531, 833 815.987 C 833 815.444, 833.686 815, 834.524 815 C 835.978 815, 843.479 810.409, 849.158 806.043 C 850.620 804.920, 852.251 804, 852.782 804 C 853.314 804, 855.363 802.537, 857.335 800.750 C 860.544 797.843, 862.813 796.252, 869.337 792.340 C 870.400 791.703, 871.547 790.800, 871.885 790.335 C 872.223 789.869, 874.264 788.173, 876.419 786.564 C 878.575 784.956, 882.625 781.687, 885.419 779.300 C 888.214 776.912, 892.046 773.731, 893.935 772.230 C 898.324 768.741, 925.864 741.181, 932.721 733.414 C 935.593 730.161, 940.636 724.125, 943.929 720 C 947.221 715.875, 950.609 711.713, 951.457 710.750 C 952.306 709.788, 953 708.613, 953 708.141 C 953 707.668, 954.791 705.247, 956.979 702.761 C 959.167 700.275, 961.419 697.174, 961.983 695.870 C 962.547 694.567, 964.571 691.475, 966.482 689 C 968.393 686.525, 970.633 683.150, 971.459 681.500 C 973.216 677.994, 975.441 674.245, 979.469 668 C 983.092 662.384, 1001.988 626.010, 1002.034 624.564 C 1002.053 623.979, 1002.937 621.700, 1004 619.500 C 1005.063 617.300, 1005.949 614.825, 1005.970 614 C 1005.991 613.175, 1006.812 611.150, 1007.795 609.500 C 1008.778 607.850, 1010.178 604.475, 1010.905 602 C 1011.633 599.525, 1012.597 596.600, 1013.048 595.500 C 1013.499 594.400, 1014.417 591.700, 1015.088 589.500 C 1015.759 587.300, 1016.869 584.150, 1017.554 582.500 C 1018.240 580.850, 1019.345 576.800, 1020.009 573.500 C 1020.673 570.200, 1021.587 567.042, 1022.039 566.481 C 1022.491 565.921, 1023.372 562.321, 1023.996 558.481 C 1024.620 554.642, 1025.530 550.600, 1026.017 549.500 C 1027.902 545.244, 1032.979 512.296, 1035.031 491 C 1036.161 479.283, 1035.655 420.847, 1034.407 418.909 C 1033.908 418.134, 1032.744 411.200, 1031.821 403.500 C 1029.945 387.857, 1027.327 372.532, 1026.013 369.500 C 1025.536 368.400, 1024.604 364.350, 1023.941 360.500 C 1023.279 356.650, 1022.416 353.050, 1022.023 352.500 C 1021.631 351.950, 1020.751 349.250, 1020.068 346.500 C 1019.385 343.750, 1018.207 339.925, 1017.451 338 C 1016.694 336.075, 1015.581 332.475, 1014.978 330 C 1014.374 327.525, 1013.007 323.592, 1011.940 321.261 C 1010.873 318.929, 1010 316.463, 1010 315.780 C 1010 314.475, 1006.996 306.273, 1004.038 299.500 C 1000.223 290.763, 997.756 285.429, 996.871 284 C 996.360 283.175, 995.663 281.656, 995.321 280.624 C 994.980 279.592, 993.715 276.892, 992.510 274.624 C 986.847 263.961, 985.460 261.464, 984.943 261 C 984.637 260.725, 983.763 258.925, 983.002 257 C 982.240 255.075, 981.029 253.140, 980.309 252.700 C 979.589 252.260, 979 251.323, 979 250.616 C 979 249.910, 977.200 246.762, 975 243.621 C 972.800 240.481, 971 237.636, 971 237.300 C 971 236.964, 969.954 235.296, 968.676 233.594 C 967.398 231.892, 966.063 229.713, 965.708 228.750 C 965.353 227.788, 964.599 227, 964.031 227 C 963.464 227, 963 226.480, 963 225.844 C 963 225.209, 961.875 223.214, 960.500 221.411 C 959.125 219.608, 957.994 217.766, 957.986 217.317 C 957.979 216.868, 955.504 213.596, 952.486 210.046 C 949.469 206.497, 947 203.250, 947 202.831 C 947 201.855, 933.719 186.221, 926.608 178.826 C 923.607 175.705, 920.651 172.217, 920.041 171.076 C 919.430 169.934, 918.367 169, 917.680 169 C 916.993 169, 915.643 167.666, 914.680 166.036 C 913.717 164.405, 911.595 162.283, 909.964 161.320 C 908.334 160.357, 907 158.991, 907 158.284 C 907 157.578, 906.586 157, 906.079 157 C 905.572 157, 903.027 154.869, 900.422 152.264 C 897.817 149.659, 894.908 147.071, 893.957 146.514 C 893.006 145.956, 888.690 142.413, 884.364 138.640 C 880.039 134.867, 875.825 131.520, 875 131.202 C 874.175 130.884, 870.047 127.895, 865.826 124.562 C 858.597 118.851, 847.050 110.983, 844.606 110.101 C 843.998 109.882, 842.228 108.644, 840.673 107.351 C 839.119 106.058, 837.401 105, 836.857 105 C 836.312 105, 834.392 103.875, 832.589 102.500 C 830.786 101.125, 828.621 100, 827.778 100 C 826.935 100, 825.740 99.392, 825.123 98.648 C 824.506 97.905, 820.964 95.844, 817.251 94.069 C 813.538 92.294, 808.925 90.011, 807 88.995 C 799.314 84.941, 786.345 79.050, 783.750 78.435 C 782.237 78.077, 781 77.480, 781 77.110 C 781 76.740, 778.975 75.839, 776.500 75.108 C 774.025 74.377, 772 73.477, 772 73.108 C 772 72.739, 769.862 71.856, 767.250 71.147 C 764.638 70.437, 761.375 69.255, 760 68.520 C 758.625 67.785, 755.808 66.866, 753.739 66.478 C 751.670 66.091, 749.749 65.403, 749.469 64.950 C 749.190 64.498, 745.482 63.360, 741.230 62.421 C 736.979 61.483, 733.275 60.402, 733 60.020 C 732.725 59.638, 730.250 58.813, 727.500 58.188 C 724.750 57.562, 718.450 56.101, 713.500 54.942 C 708.550 53.782, 700.450 52.192, 695.500 51.408 C 690.550 50.624, 685.375 49.560, 684 49.044 C 682.625 48.527, 674.975 47.633, 667 47.057 C 659.025 46.481, 650.025 45.780, 647 45.501 C 632.914 44.199, 628.071 44.076, 627.495 45.008 M 608 84.544 C 607.175 84.766, 599.970 85.608, 591.988 86.415 C 578.623 87.767, 561.271 90.636, 551.500 93.110 C 549.300 93.667, 544.125 94.938, 540 95.935 C 510.606 103.036, 470.541 120.072, 441 138.031 C 404.888 159.984, 369.721 190.194, 346.540 219.178 C 342.879 223.755, 339.302 228.214, 338.591 229.088 C 336.901 231.162, 318.858 256.944, 317.295 259.516 C 294.168 297.593, 281.160 328.980, 270.582 372.227 C 263.065 402.961, 260.598 428.426, 261.275 468.294 C 261.828 500.832, 263.807 516.220, 271.459 547.500 C 295.070 644.023, 352.384 723.579, 435.960 775.840 C 440.657 778.777, 445.850 782.068, 447.500 783.154 C 449.150 784.240, 459.482 789.599, 470.461 795.064 C 491.723 805.648, 495.104 806.567, 500.266 803.163 C 504.508 800.366, 505.933 797.891, 505.968 793.266 C 506.017 786.832, 502.772 784.025, 486.594 776.501 C 450.315 759.630, 420.273 738.812, 390.659 710.021 C 335.110 656.014, 302.747 593.109, 288.271 511 C 285.626 495.995, 285.539 494.334, 285.547 459 C 285.554 425.680, 285.755 421.280, 287.852 408.500 C 298.607 342.956, 320.823 291.079, 359.691 240.754 C 370.953 226.171, 402.186 195.071, 417.500 183.190 C 452.779 155.820, 489.160 136.639, 530 123.876 C 535.602 122.125, 541.985 120.499, 569 113.937 C 587.232 109.509, 643.035 106.481, 662.500 108.863 C 667.450 109.469, 675.550 110.426, 680.500 110.990 C 685.450 111.554, 692.650 112.679, 696.500 113.491 C 700.350 114.303, 706.650 115.620, 710.500 116.417 C 755.945 125.832, 803.340 147.219, 842.527 175.993 C 862.898 190.952, 891.267 217.523, 903.924 233.500 C 907.410 237.900, 910.561 241.725, 910.928 242 C 913.186 243.695, 933.799 274.121, 939.720 284.500 C 944.585 293.027, 957.014 318.977, 960.795 328.500 C 971.112 354.487, 977.808 380.899, 983.104 416.500 C 984.704 427.260, 985.658 461.340, 984.825 478 C 982.992 514.655, 974.375 554.296, 960.822 588.416 C 945.291 627.517, 925.161 659.784, 895.826 692.596 C 882.713 707.263, 873.636 716.010, 857.500 729.528 C 846.470 738.768, 844.850 739.977, 828.872 750.900 C 812.515 762.082, 784.570 776.980, 768.500 783.085 C 758.103 787.035, 755 790.237, 755 797.018 C 755 803.532, 759.674 808, 766.488 808 C 776.182 808, 818.813 786.528, 845.500 768.203 C 887.236 739.546, 920.654 705.738, 946.524 666 C 959.170 646.575, 965.584 635.375, 972.005 621.500 C 974.296 616.550, 976.986 610.925, 977.983 609 C 980.407 604.320, 991.521 574.496, 993.538 567.259 C 1003.166 532.722, 1008.285 501.924, 1009.289 472.500 C 1010.123 448.065, 1006.857 404.084, 1002.999 387.793 C 996.267 359.367, 992.849 346.862, 988.584 335.051 C 976.024 300.272, 963.941 276.811, 941.690 244 C 914.162 203.406, 873.875 165.422, 831 139.638 C 825.775 136.495, 820.825 133.505, 820 132.993 C 810.838 127.300, 781.282 113.288, 768.356 108.510 C 736.666 96.794, 709.005 89.967, 678.515 86.334 C 666.573 84.911, 611.805 83.521, 608 84.544 M 613.500 343.065 C 609.650 343.585, 603.612 344.908, 600.082 346.005 C 596.551 347.102, 593.244 348, 592.733 348 C 592.221 348, 590.159 348.729, 588.151 349.620 C 568.418 358.376, 563.327 361.775, 549.412 375.479 C 539.675 385.069, 533.809 392.703, 527.725 403.702 C 522.552 413.054, 518.003 422.716, 517.994 424.371 C 517.990 424.992, 517.376 426.672, 516.628 428.105 C 513.555 433.994, 511.949 445.391, 511.929 461.449 C 511.904 480.624, 515.117 495.762, 522.552 511.500 C 532.006 531.513, 552.123 553.191, 570.425 563.088 C 577.514 566.921, 586.484 571.081, 588.904 571.658 C 590.332 571.998, 591.985 572.654, 592.577 573.117 C 593.874 574.130, 604.859 576.641, 614.500 578.130 C 623.594 579.534, 644.591 578.660, 653.500 576.507 C 690.650 567.527, 720.229 543.950, 735.788 510.916 C 750.518 479.641, 751.164 444.783, 737.625 411.671 C 736.314 408.465, 734.737 405.337, 734.121 404.721 C 733.504 404.104, 733 403.178, 733 402.663 C 733 401.036, 724.447 388.745, 718.970 382.500 C 711.065 373.488, 700.580 364.743, 690.245 358.541 C 679.165 351.891, 670.703 348.595, 654.087 344.454 C 647.043 342.698, 622.451 341.857, 613.500 343.065 M 615 382.907 C 613.625 383.378, 609.575 384.595, 606 385.611 C 597.559 388.011, 591.462 391.398, 582.883 398.456 C 570.405 408.721, 562.546 419.872, 555.351 437.519 C 547.651 456.408, 550.314 481.445, 562.140 501.353 C 567.309 510.054, 571.571 514.803, 580.826 522.178 C 599.622 537.157, 622.112 542.762, 644.168 537.964 C 649.836 536.730, 655.154 535.352, 655.987 534.900 C 656.819 534.448, 659.985 532.951, 663.022 531.574 C 672.632 527.217, 684.816 517.160, 691.848 507.780 C 703.756 491.898, 708.903 474.072, 707.502 453.573 C 705.611 425.933, 689.471 402.504, 663.024 389.012 C 653.458 384.132, 647.108 382.780, 632 382.407 C 624.025 382.211, 616.375 382.435, 615 382.907 M 616.500 758.671 C 614.300 758.925, 612.072 759.554, 611.550 760.067 C 611.028 760.580, 609.547 761, 608.260 761 C 606.973 761, 604.026 761.945, 601.710 763.100 C 596.820 765.539, 584.010 777.728, 583.978 779.973 C 583.966 780.813, 583.076 782.625, 582 784 C 580.924 785.375, 580.034 787.647, 580.022 789.050 C 580.010 790.452, 579.482 792.118, 578.850 792.750 C 577.197 794.403, 577.201 1241.601, 578.854 1243.254 C 579.485 1243.885, 580 1245.173, 580 1246.117 C 580 1250.134, 584.385 1257.541, 590.259 1263.444 C 597.375 1270.595, 602.408 1273.639, 608.668 1274.577 C 611.051 1274.935, 613 1275.626, 613 1276.114 C 613 1277.271, 654.713 1277.273, 655.429 1276.115 C 655.729 1275.629, 657.945 1274.935, 660.353 1274.574 C 662.760 1274.213, 665.578 1273.276, 666.615 1272.491 C 667.652 1271.706, 669.175 1271.045, 670 1271.021 C 670.825 1270.998, 674.246 1268.171, 677.603 1264.739 C 683.217 1259.001, 686.689 1253.369, 688.542 1247 C 688.942 1245.625, 689.884 1243.612, 690.635 1242.527 C 691.778 1240.875, 692 1204.423, 692 1017.900 C 692 821.204, 691.825 795.100, 690.500 794 C 689.675 793.315, 688.997 791.573, 688.993 790.128 C 688.990 788.682, 688.093 786.150, 687 784.500 C 685.907 782.850, 685.010 780.787, 685.007 779.916 C 685 778.359, 680.273 772.988, 674.457 767.928 C 671.519 765.372, 665.700 762.404, 659 760.045 C 655.439 758.791, 624.191 757.781, 616.500 758.671 M 624.466 807.400 C 620.455 809.147, 615.048 814.642, 613.357 818.688 C 612.231 821.384, 612 853.679, 612 1008.652 L 612 1195.369 614.079 1199.663 C 618.488 1208.771, 628.091 1212.995, 640.018 1211.074 C 645.276 1210.228, 647.035 1209.407, 650.300 1206.276 C 652.466 1204.199, 655.075 1200.700, 656.097 1198.500 C 657.888 1194.646, 657.956 1187.690, 657.956 1008.500 C 657.956 829.945, 657.882 822.338, 656.114 818.444 C 653.888 813.543, 647.058 807.462, 642.831 806.616 C 637.644 805.579, 627.669 806.005, 624.466 807.400" stroke="none" fill="#000000" fill-rule="evenodd"/><path d="M 625.370 807.088 C 621.130 808.317, 614.252 815.398, 612.963 819.861 C 612.240 822.363, 612.004 881.968, 612.206 1010.664 L 612.500 1197.828 615.509 1202.109 C 619.713 1208.090, 626.410 1211.379, 634.352 1211.362 C 642.479 1211.345, 646.854 1209.760, 651.263 1205.234 C 658.576 1197.730, 658.002 1214.565, 657.978 1008.282 C 657.957 829.583, 657.885 822.347, 656.104 818.500 C 653.835 813.598, 649.712 809.612, 644.782 807.553 C 640.729 805.860, 630.455 805.614, 625.370 807.088" stroke="none" fill="#00ffdd" fill-rule="evenodd"/></svg>