<svg xmlns="http://www.w3.org/2000/svg" width="1080" height="1080" viewBox="0 0 1080 1080" version="1.1"><path d="M 801.608 209.553 C 714.129 221.465, 654.286 303.373, 671.618 387.473 C 671.848 388.588, 672.297 391.075, 672.617 393 C 674.335 403.361, 681.957 422.882, 688.482 433.629 C 690.967 437.722, 693 441.314, 693 441.610 C 693 445.952, 718.774 472.827, 732.007 482.284 C 815.136 541.692, 931 503.345, 963.492 405.671 C 997.984 301.984, 909.554 194.854, 801.608 209.553 M 797.012 228.711 C 786.404 230.574, 765.887 237.742, 757.695 242.448 C 744.285 250.151, 742.544 251.279, 736.134 256.421 C 622.221 347.774, 721.168 533.922, 859.739 488.958 C 1016.544 438.076, 959.216 200.229, 797.012 228.711" stroke="none" fill="#00fe81" fill-rule="evenodd"/><path d="M 838.190 188.861 C 837.408 189.358, 840.628 189.958, 846.190 190.352 C 851.311 190.715, 855.650 191.460, 855.833 192.006 C 856.017 192.553, 857.041 193, 858.110 193 C 861.492 193, 873 195.427, 873 196.140 C 873 196.516, 874.800 197.128, 877 197.500 C 879.200 197.872, 881 198.541, 881 198.988 C 881 199.435, 883.250 200.340, 886 201 C 888.750 201.660, 891 202.587, 891 203.060 C 891 203.533, 892.800 204.459, 895 205.118 C 897.200 205.777, 899 206.660, 899 207.079 C 899 207.498, 900.350 208.138, 902 208.500 C 903.650 208.862, 905 209.529, 905 209.982 C 905 210.434, 906.350 211.275, 908 211.850 C 909.650 212.425, 911 213.321, 911 213.840 C 911 214.359, 912.125 215.066, 913.500 215.411 C 914.875 215.756, 916 216.425, 916 216.898 C 916 217.371, 917.462 218.352, 919.250 219.078 C 921.038 219.805, 923.088 221.210, 923.807 222.200 C 924.525 223.190, 925.578 224, 926.146 224 C 926.714 224, 929.146 226.025, 931.552 228.500 C 933.957 230.975, 936.392 233, 936.963 233 C 937.533 233, 938 233.675, 938 234.500 C 938 235.325, 938.594 236, 939.320 236 C 940.787 236, 945 240.455, 945 242.008 C 945 242.553, 945.675 243, 946.500 243 C 947.325 243, 948 243.434, 948 243.966 C 948 244.497, 949.350 246.312, 951 248 C 952.650 249.688, 954 251.652, 954 252.365 C 954 253.079, 955.091 254.246, 956.424 254.959 C 957.757 255.673, 959.108 257.292, 959.425 258.558 C 959.743 259.824, 960.565 261.466, 961.252 262.207 C 963.628 264.771, 967 269.923, 967 270.991 C 967 271.580, 967.648 272.311, 968.439 272.615 C 969.230 272.919, 970.166 274.479, 970.518 276.084 C 970.871 277.688, 971.567 279, 972.065 279 C 972.563 279, 973.481 281.025, 974.104 283.500 C 974.728 285.975, 975.592 288, 976.026 288 C 976.460 288, 977.392 290.250, 978.097 293 C 978.801 295.750, 979.707 298, 980.110 298 C 980.512 298, 981.158 299.462, 981.546 301.250 C 981.934 303.038, 982.598 304.725, 983.021 305 C 983.444 305.275, 984.380 309.100, 985.101 313.500 C 985.822 317.900, 986.778 321.757, 987.227 322.072 C 987.675 322.387, 988.326 325.762, 988.673 329.572 C 989.020 333.382, 989.689 336.753, 990.159 337.063 C 991.352 337.849, 991.405 379.126, 990.214 379.890 C 989.690 380.225, 988.940 383.988, 988.546 388.250 C 988.152 392.512, 987.499 396, 987.095 396 C 986.691 396, 985.776 399.600, 985.061 404 C 984.347 408.400, 983.405 412, 982.969 412 C 982.533 412, 981.872 413.800, 981.500 416 C 981.128 418.200, 980.459 420, 980.012 420 C 979.565 420, 978.660 422.250, 978 425 C 977.340 427.750, 976.413 430, 975.940 430 C 975.467 430, 974.541 431.800, 973.882 434 C 973.223 436.200, 972.305 438, 971.842 438 C 971.379 438, 971 438.606, 971 439.347 C 971 440.088, 970.100 441.732, 969 443 C 967.900 444.268, 967 445.843, 967 446.500 C 967 447.157, 966.100 448.732, 965 450 C 963.900 451.268, 963 452.864, 963 453.546 C 963 454.228, 962.325 455.045, 961.500 455.362 C 960.675 455.678, 960 456.476, 960 457.135 C 960 457.793, 959.336 459.045, 958.524 459.916 C 951.788 467.144, 949 470.459, 949 471.238 C 949 472.570, 934.917 486, 933.521 486 C 932.870 486, 931.762 487.075, 931.059 488.390 C 930.355 489.704, 928.596 491.392, 927.148 492.140 C 925.700 492.888, 923.612 494.406, 922.508 495.514 C 921.404 496.622, 919.150 498.196, 917.500 499.012 C 915.850 499.829, 914.140 501.060, 913.700 501.748 C 913.260 502.437, 912.248 503, 911.450 503 C 910.653 503, 910 503.366, 910 503.813 C 910 504.261, 908.425 505.245, 906.500 506 C 904.575 506.755, 903 507.667, 903 508.027 C 903 508.386, 901.200 509.274, 899 510 C 896.800 510.726, 895 511.662, 895 512.081 C 895 512.499, 893.650 513.138, 892 513.500 C 890.350 513.862, 889 514.501, 889 514.920 C 889 515.338, 886.525 516.274, 883.500 517 C 880.475 517.726, 878 518.658, 878 519.072 C 878 519.486, 876.200 520.128, 874 520.500 C 871.800 520.872, 870 521.498, 870 521.893 C 870 522.287, 866.627 523.177, 862.505 523.869 C 855.557 525.037, 849.019 881.722, 855.815 888.886 C 856.542 889.653, 856.994 891.851, 856.825 893.806 C 856.616 896.232, 856.982 897.494, 857.993 897.831 C 859.901 898.467, 861.446 900.062, 862.275 902.250 C 862.639 903.213, 863.514 904.008, 864.219 904.017 C 864.923 904.027, 866.537 905.128, 867.805 906.465 C 869.072 907.802, 870.702 908.668, 871.426 908.390 C 872.150 908.112, 872.997 908.551, 873.310 909.365 C 873.664 910.289, 874.652 910.642, 875.939 910.306 C 877.957 909.778, 878 910.100, 878 925.883 C 878 935.961, 878.375 942, 879 942 C 879.550 942, 880 942.639, 880 943.421 C 880 945.313, 884.700 946.247, 892.293 945.866 C 895.707 945.694, 898.950 945.826, 899.500 946.159 C 909.686 952.329, 912 948.928, 912 927.783 C 912 908.783, 912 908.783, 909.500 909.411 C 907.620 909.882, 907 909.645, 907 908.452 C 907 907.390, 906.415 907.051, 905.233 907.426 C 904.079 907.792, 902.815 907.121, 901.592 905.494 C 900.563 904.122, 899.094 903, 898.329 903 C 897.563 903, 896.639 902.212, 896.275 901.250 C 895.343 898.791, 893.402 897, 891.667 897 C 890.528 897, 890.310 896.108, 890.714 893.099 C 891.157 889.796, 890.895 889.014, 889.011 888.006 C 887.383 887.135, 887.083 886.517, 887.893 885.707 C 888.694 884.906, 889 834.838, 889 704.365 C 889 524.130, 889 524.130, 896.500 522.870 C 900.625 522.177, 904 521.287, 904 520.893 C 904 520.498, 905.800 519.872, 908 519.500 C 910.200 519.128, 912 518.486, 912 518.072 C 912 517.658, 914.475 516.726, 917.500 516 C 920.525 515.274, 923 514.338, 923 513.920 C 923 513.501, 924.350 512.862, 926 512.500 C 927.650 512.138, 929 511.499, 929 511.081 C 929 510.662, 930.800 509.726, 933 509 C 935.200 508.274, 937 507.386, 937 507.027 C 937 506.667, 938.575 505.755, 940.500 505 C 942.425 504.245, 944 503.261, 944 502.813 C 944 502.366, 944.653 502, 945.450 502 C 946.248 502, 947.260 501.437, 947.700 500.748 C 948.140 500.060, 949.850 498.829, 951.500 498.012 C 953.150 497.196, 955.404 495.622, 956.508 494.514 C 957.612 493.406, 959.700 491.888, 961.148 491.140 C 962.596 490.392, 964.355 488.704, 965.059 487.390 C 965.762 486.075, 966.870 485, 967.521 485 C 968.917 485, 983 471.570, 983 470.238 C 983 469.459, 985.788 466.144, 992.524 458.916 C 993.336 458.045, 994 456.793, 994 456.135 C 994 455.476, 994.675 454.678, 995.500 454.362 C 996.325 454.045, 997 453.228, 997 452.546 C 997 451.864, 997.900 450.268, 999 449 C 1000.100 447.732, 1001 446.157, 1001 445.500 C 1001 444.843, 1001.900 443.268, 1003 442 C 1004.100 440.732, 1005 439.088, 1005 438.347 C 1005 437.606, 1005.379 437, 1005.842 437 C 1006.305 437, 1007.223 435.200, 1007.882 433 C 1008.541 430.800, 1009.467 429, 1009.940 429 C 1010.413 429, 1011.340 426.750, 1012 424 C 1012.660 421.250, 1013.565 419, 1014.012 419 C 1014.459 419, 1015.128 417.200, 1015.500 415 C 1015.872 412.800, 1016.533 411, 1016.969 411 C 1017.405 411, 1018.347 407.400, 1019.061 403 C 1019.776 398.600, 1020.691 395, 1021.095 395 C 1021.499 395, 1022.152 391.512, 1022.546 387.250 C 1022.940 382.988, 1023.690 379.225, 1024.214 378.890 C 1025.405 378.126, 1025.352 336.849, 1024.159 336.063 C 1023.689 335.753, 1023.020 332.382, 1022.673 328.572 C 1022.326 324.762, 1021.675 321.387, 1021.227 321.072 C 1020.778 320.757, 1019.822 316.900, 1019.101 312.500 C 1018.380 308.100, 1017.444 304.275, 1017.021 304 C 1016.598 303.725, 1015.934 302.038, 1015.546 300.250 C 1015.158 298.462, 1014.512 297, 1014.110 297 C 1013.707 297, 1012.801 294.750, 1012.097 292 C 1011.392 289.250, 1010.460 287, 1010.026 287 C 1009.592 287, 1008.728 284.975, 1008.104 282.500 C 1007.481 280.025, 1006.563 278, 1006.065 278 C 1005.567 278, 1004.871 276.688, 1004.518 275.084 C 1004.166 273.479, 1003.230 271.919, 1002.439 271.615 C 1001.648 271.311, 1001 270.580, 1001 269.991 C 1001 268.923, 997.628 263.771, 995.252 261.207 C 994.565 260.466, 993.743 258.824, 993.425 257.558 C 993.108 256.292, 991.757 254.673, 990.424 253.959 C 989.091 253.246, 988 252.079, 988 251.365 C 988 250.652, 986.650 248.688, 985 247 C 983.350 245.312, 982 243.497, 982 242.966 C 982 242.434, 981.325 242, 980.500 242 C 979.675 242, 979 241.553, 979 241.008 C 979 239.455, 974.787 235, 973.320 235 C 972.594 235, 972 234.325, 972 233.500 C 972 232.675, 971.533 232, 970.963 232 C 970.392 232, 967.957 229.975, 965.552 227.500 C 963.146 225.025, 960.714 223, 960.146 223 C 959.578 223, 958.525 222.190, 957.807 221.200 C 957.088 220.210, 955.038 218.805, 953.250 218.078 C 951.462 217.352, 950 216.371, 950 215.898 C 950 215.425, 948.875 214.756, 947.500 214.411 C 946.125 214.066, 945 213.359, 945 212.840 C 945 212.321, 943.650 211.425, 942 210.850 C 940.350 210.275, 939 209.434, 939 208.982 C 939 208.529, 937.650 207.862, 936 207.500 C 934.350 207.138, 933 206.498, 933 206.079 C 933 205.660, 931.200 204.777, 929 204.118 C 926.800 203.459, 925 202.533, 925 202.060 C 925 201.587, 922.750 200.660, 920 200 C 917.250 199.340, 915 198.435, 915 197.988 C 915 197.541, 913.200 196.872, 911 196.500 C 908.800 196.128, 907 195.516, 907 195.140 C 907 194.427, 895.492 192, 892.110 192 C 891.041 192, 890.017 191.583, 889.833 191.073 C 889.026 188.830, 841.453 186.792, 838.190 188.861 M 795.250 248.262 C 792.913 248.824, 791 249.620, 791 250.031 C 791 250.441, 789.425 251.073, 787.500 251.434 C 785.575 251.795, 784 252.520, 784 253.045 C 784 253.570, 783.019 254, 781.821 254 C 779.165 254, 773 256.146, 773 257.071 C 773 257.439, 771.028 258.292, 768.617 258.967 C 765.808 259.754, 763.772 261.057, 762.948 262.597 C 762.241 263.919, 760.861 265, 759.883 265 C 758.904 265, 756.989 266.012, 755.628 267.250 C 754.267 268.488, 751.907 270.400, 750.383 271.500 C 748.859 272.600, 746.718 274.512, 745.626 275.750 C 744.533 276.988, 743.054 278, 742.339 278 C 741.623 278, 740.770 279.067, 740.443 280.372 C 740.115 281.676, 738.806 283.301, 737.534 283.982 C 736.261 284.663, 734.608 286.408, 733.860 287.860 C 733.112 289.312, 731.263 291.613, 729.750 292.973 C 728.237 294.333, 727 296.250, 727 297.232 C 727 298.215, 726.102 299.789, 725.004 300.728 C 723.907 301.668, 722.732 303.914, 722.393 305.719 C 722.054 307.523, 721.377 309, 720.889 309 C 720.400 309, 720 309.689, 720 310.531 C 720 311.374, 719.349 312.313, 718.553 312.618 C 717.757 312.923, 716.600 315.609, 715.982 318.587 C 715.364 321.564, 714.499 324, 714.061 324 C 713.622 324, 713.013 325.865, 712.707 328.144 C 712.402 330.423, 711.555 332.657, 710.826 333.107 C 709.062 334.197, 708.869 382.671, 710.624 383.786 C 711.243 384.179, 712.087 386.075, 712.500 388 C 712.913 389.925, 713.644 391.751, 714.124 392.058 C 714.604 392.365, 715.489 395.290, 716.090 398.558 C 716.692 401.826, 717.817 404.860, 718.592 405.300 C 719.366 405.740, 720 406.752, 720 407.550 C 720 408.347, 720.450 409, 721 409 C 721.550 409, 722 409.681, 722 410.514 C 722 412.175, 723.796 415.656, 725.750 417.783 C 726.438 418.531, 727 420.053, 727 421.165 C 727 422.346, 727.832 423.405, 729 423.710 C 730.100 423.998, 731 424.856, 731 425.617 C 731 426.377, 731.450 427, 732 427 C 732.550 427, 733 427.463, 733 428.029 C 733 428.595, 735.925 432.041, 739.500 435.687 C 743.075 439.333, 746 442.686, 746 443.139 C 746 443.592, 747.125 444.244, 748.500 444.589 C 749.875 444.934, 751 445.813, 751 446.541 C 751 447.269, 751.978 448.176, 753.173 448.555 C 754.368 448.934, 756.253 450.090, 757.362 451.122 C 758.470 452.155, 759.967 453, 760.689 453 C 761.410 453, 762 453.395, 762 453.879 C 762 454.362, 763.462 455.355, 765.250 456.086 C 767.038 456.817, 769.095 457.997, 769.821 458.708 C 770.548 459.418, 771.786 460, 772.571 460 C 773.357 460, 774 460.392, 774 460.870 C 774 461.349, 776.025 462.307, 778.500 463 C 780.975 463.693, 783 464.593, 783 465.001 C 783 465.409, 785.354 466.055, 788.231 466.436 C 791.108 466.818, 793.706 467.525, 794.004 468.007 C 795.050 469.698, 807.651 470.985, 823.250 470.992 C 838.771 471, 843.937 469.863, 833.825 468.666 C 830.979 468.329, 828.383 467.620, 828.057 467.092 C 827.730 466.563, 825.108 465.818, 822.231 465.436 C 819.354 465.055, 817 464.409, 817 464.001 C 817 463.593, 814.975 462.693, 812.500 462 C 810.025 461.307, 808 460.349, 808 459.870 C 808 459.392, 807.357 459, 806.571 459 C 805.786 459, 804.548 458.418, 803.821 457.708 C 803.095 456.997, 801.038 455.817, 799.250 455.086 C 797.462 454.355, 796 453.362, 796 452.879 C 796 452.395, 795.410 452, 794.689 452 C 793.967 452, 792.470 451.155, 791.362 450.122 C 790.253 449.090, 788.368 447.934, 787.173 447.555 C 785.978 447.176, 785 446.269, 785 445.541 C 785 444.813, 783.875 443.934, 782.500 443.589 C 781.125 443.244, 780 442.592, 780 442.139 C 780 441.686, 777.075 438.333, 773.500 434.687 C 769.925 431.041, 767 427.595, 767 427.029 C 767 426.463, 766.550 426, 766 426 C 765.450 426, 765 425.377, 765 424.617 C 765 423.856, 764.100 422.998, 763 422.710 C 761.832 422.405, 761 421.346, 761 420.165 C 761 419.053, 760.438 417.531, 759.750 416.783 C 757.796 414.656, 756 411.175, 756 409.514 C 756 408.681, 755.550 408, 755 408 C 754.450 408, 754 407.347, 754 406.550 C 754 405.752, 753.366 404.740, 752.592 404.300 C 751.817 403.860, 750.692 400.826, 750.090 397.558 C 749.489 394.290, 748.604 391.365, 748.124 391.058 C 747.644 390.751, 746.913 388.925, 746.500 387 C 746.087 385.075, 745.243 383.179, 744.624 382.786 C 742.869 381.671, 743.062 333.197, 744.826 332.107 C 745.555 331.657, 746.402 329.423, 746.707 327.144 C 747.013 324.865, 747.622 323, 748.061 323 C 748.499 323, 749.364 320.564, 749.982 317.587 C 750.600 314.609, 751.757 311.923, 752.553 311.618 C 753.349 311.313, 754 310.374, 754 309.531 C 754 308.689, 754.400 308, 754.889 308 C 755.377 308, 756.054 306.523, 756.393 304.719 C 756.732 302.914, 757.907 300.668, 759.004 299.728 C 760.102 298.789, 761 297.215, 761 296.232 C 761 295.250, 762.237 293.333, 763.750 291.973 C 765.263 290.613, 767.112 288.312, 767.860 286.860 C 768.608 285.408, 770.261 283.663, 771.534 282.982 C 772.806 282.301, 774.115 280.676, 774.443 279.372 C 774.770 278.067, 775.623 277, 776.339 277 C 777.054 277, 778.533 275.988, 779.626 274.750 C 780.718 273.512, 782.859 271.600, 784.383 270.500 C 785.907 269.400, 788.267 267.488, 789.628 266.250 C 790.989 265.012, 792.904 264, 793.883 264 C 794.861 264, 796.241 262.919, 796.948 261.597 C 797.772 260.057, 799.808 258.754, 802.617 257.967 C 805.028 257.292, 807 256.439, 807 256.071 C 807 255.146, 813.165 253, 815.821 253 C 817.019 253, 818 252.570, 818 252.045 C 818 251.520, 819.575 250.795, 821.500 250.434 C 823.425 250.073, 825 249.409, 825 248.958 C 825 248.508, 826.013 247.944, 827.250 247.706 C 828.487 247.467, 822.750 247.265, 814.500 247.256 C 806.250 247.247, 797.587 247.700, 795.250 248.262 M 666.381 435.183 C 665.930 435.908, 665.685 437.454, 665.835 438.619 C 666.018 440.033, 665.447 440.911, 664.119 441.259 C 662.644 441.644, 662.277 442.344, 662.701 443.965 C 663.154 445.697, 662.886 446.083, 661.409 445.825 C 660.384 445.646, 659.479 446.063, 659.397 446.750 C 659.316 447.438, 659.140 448.337, 659.007 448.750 C 658.873 449.163, 658.816 449.837, 658.882 450.250 C 658.947 450.663, 658.593 451, 658.095 451 C 657.597 451, 657.442 452.875, 657.749 455.166 C 658.218 458.659, 658.056 459.236, 656.751 458.735 C 654.005 457.681, 651.100 460.689, 653.250 462.360 C 655.928 464.442, 655.587 469.778, 652.750 470.180 C 651.513 470.356, 650.500 471.175, 650.500 472 C 650.500 472.825, 650.089 473.797, 649.587 474.160 C 649.085 474.522, 648.778 478.010, 648.904 481.910 C 649.127 488.786, 649.064 488.993, 646.817 488.750 C 644.500 488.500, 644.500 488.500, 644.774 500.655 C 644.995 510.474, 644.755 513.102, 643.524 514.333 C 642.686 515.171, 642 516.699, 642 517.729 C 642 518.758, 641.460 520.140, 640.800 520.800 C 639.979 521.621, 639.950 522, 640.706 522 C 642.176 522, 641.078 526.263, 639.341 527.300 C 637.205 528.574, 637.363 735.818, 639.500 736.638 C 640.325 736.955, 641 737.664, 641 738.214 C 641 738.764, 640.339 738.960, 639.532 738.651 C 637.177 737.747, 636.747 739.611, 636.925 749.935 C 637.089 759.492, 637.051 759.667, 634.796 759.584 C 632.737 759.509, 632.468 760.014, 632.186 764.481 C 632.013 767.220, 631.487 769.699, 631.016 769.990 C 630.545 770.281, 630.012 771.188, 629.830 772.006 C 629.649 772.824, 628.825 774.043, 628 774.715 C 626.955 775.566, 626.879 775.946, 627.750 775.968 C 629.691 776.018, 629.223 779.777, 627 782 C 625.900 783.100, 624.993 783.663, 624.985 783.250 C 624.976 782.837, 624.535 783.175, 624.003 784 C 623.322 785.059, 623.494 785.842, 624.588 786.661 C 625.946 787.677, 625.874 787.905, 624.012 788.496 C 621.704 789.229, 619.545 793.383, 619.925 796.358 C 620.327 799.502, 619.040 803, 617.481 803 C 616.642 803, 616 803.913, 616 805.107 C 616 806.549, 615.536 807.036, 614.532 806.651 C 612.555 805.892, 611.574 807.737, 611.841 811.712 C 612.036 814.612, 611.767 815, 609.563 815 C 607.751 815, 607.221 815.413, 607.638 816.500 C 607.955 817.325, 607.716 818, 607.107 818 C 606.498 818, 606 818.691, 606 819.535 C 606 820.744, 605.588 820.850, 604.061 820.032 C 601.509 818.667, 600.025 820.814, 602.347 822.512 C 604.587 824.150, 604.434 824.674, 601.500 825.411 C 600.125 825.756, 598.986 826.592, 598.968 827.269 C 598.910 829.536, 596.220 832.113, 593.624 832.390 C 590.810 832.690, 587.041 836.759, 587.733 838.750 C 587.971 839.437, 587.679 840, 587.083 840 C 586.487 840, 586 840.450, 586 841 C 586 843.524, 579.920 847.202, 575.321 847.459 C 573.252 847.575, 572.675 848.904, 574 850.500 C 575.645 852.483, 575.248 852.816, 570.682 853.284 C 568.619 853.496, 566.406 854.194, 565.765 854.835 C 565.124 855.476, 564.024 856, 563.319 856 C 562.615 856, 561.749 857.152, 561.396 858.560 C 560.997 860.150, 560.244 860.924, 559.409 860.603 C 558.669 860.320, 557.791 860.530, 557.457 861.070 C 557.123 861.611, 556.096 861.929, 555.175 861.777 C 554.005 861.583, 553.524 862.179, 553.579 863.750 C 553.648 865.705, 553.157 866, 549.829 866 C 547.723 866, 546 866.477, 546 867.059 C 546 867.641, 545.581 867.859, 545.069 867.543 C 544.557 867.226, 543.856 867.425, 543.510 867.984 C 543.165 868.543, 542.046 869, 541.024 869 C 540.003 869, 538.963 869.563, 538.714 870.250 C 538.360 871.228, 537.821 871.241, 536.238 870.309 C 533.820 868.885, 533 869.504, 533 872.757 C 533 874.975, 532.640 875.162, 528.750 874.965 C 523.929 874.721, 520 875.745, 520 877.247 C 520 877.856, 518.207 878.058, 515.500 877.753 C 513.025 877.474, 511 877.578, 511 877.984 C 511 878.390, 509.875 878.508, 508.500 878.245 C 507.113 877.980, 506 878.236, 506 878.820 C 506 879.399, 504.538 880.055, 502.750 880.277 C 500.962 880.498, 507.262 880.752, 516.750 880.840 C 527.690 880.941, 534 880.634, 534 880 C 534 879.450, 535.098 879, 536.441 879 C 537.784 879, 539.160 878.550, 539.500 878 C 539.840 877.450, 541.179 877, 542.476 877 C 543.772 877, 545.096 876.438, 545.417 875.750 C 545.883 874.750, 546.117 874.750, 546.583 875.750 C 547.273 877.228, 554 877.455, 554 876 C 554 875.450, 554.627 875, 555.393 875 C 556.159 875, 557.074 874.250, 557.426 873.333 C 557.913 872.062, 558.343 871.943, 559.233 872.833 C 561.869 875.469, 567 874.258, 567 871 C 567 868.054, 568.282 867.029, 569.500 869 C 570.474 870.576, 573 870.166, 573 868.433 C 573 867.320, 573.581 867.050, 575 867.500 C 576.225 867.889, 577 867.680, 577 866.960 C 577 866.314, 577.675 866.045, 578.500 866.362 C 579.385 866.701, 580 866.374, 580 865.564 C 580 864.526, 581.038 864.329, 584.250 864.757 C 588.081 865.268, 588.368 865.164, 587.164 863.706 C 585.478 861.664, 586.627 859.669, 589.113 860.319 C 590.151 860.591, 591 860.375, 591 859.839 C 591 859.303, 591.900 859.151, 593 859.500 C 594.532 859.986, 595 859.680, 595 858.190 C 595 856.336, 597.983 852.811, 598.015 854.628 C 598.024 855.107, 598.427 854.875, 598.911 854.110 C 599.395 853.346, 601.746 852.525, 604.136 852.286 C 609.184 851.782, 609.800 851.400, 608.183 849.783 C 606.419 848.019, 606.754 845.843, 608.750 846.096 C 613.012 846.636, 620 842.850, 620 840 C 620 839.450, 620.480 839, 621.067 839 C 621.657 839, 621.868 838.158, 621.538 837.118 C 621.161 835.931, 621.505 835.020, 622.470 834.650 C 623.312 834.327, 624 833.449, 624 832.698 C 624 831.847, 625.135 831.333, 627.018 831.333 C 629.985 831.333, 632.901 828.851, 632.968 826.269 C 632.986 825.592, 634.125 824.756, 635.500 824.411 C 638.214 823.729, 638.932 822, 636.500 822 C 635.667 822, 635 821.111, 635 820 C 635 817.772, 636.960 817.360, 638.800 819.200 C 639.733 820.133, 640 820.022, 640 818.700 C 640 817.765, 640.480 817, 641.067 817 C 641.687 817, 641.863 816.144, 641.488 814.961 C 640.917 813.164, 641.156 813.001, 643.501 813.590 C 645.953 814.205, 646.144 814.031, 645.930 811.379 C 645.485 805.852, 645.866 804.732, 648 805.290 C 649.483 805.678, 650 805.320, 650 803.906 C 650 802.858, 650.645 802, 651.433 802 C 653.330 802, 654.307 798.674, 653.495 794.978 C 653.068 793.035, 653.237 792, 653.980 792 C 654.606 792, 654.877 791.610, 654.583 791.134 C 654 790.192, 656.594 787.594, 659 786.709 C 660.187 786.273, 660.135 786.141, 658.750 786.079 C 655.477 785.931, 658.659 780, 662.011 780 C 662.555 780, 663 778.875, 663 777.500 C 663 776.125, 662.584 775, 662.077 775 C 661.569 775, 661.827 773.650, 662.650 772 C 663.473 770.350, 664.508 769, 664.950 769 C 665.393 769, 665.571 767.087, 665.348 764.750 C 664.837 759.405, 667.014 755.937, 669.556 758.046 C 671.029 759.269, 671.158 758.544, 670.993 749.945 C 670.734 736.410, 670.690 736.686, 673 737.290 C 675.313 737.895, 675.737 736.497, 673.500 735.638 C 671.363 734.818, 671.205 527.574, 673.341 526.300 C 675.149 525.221, 676.069 521.212, 674.644 520.624 C 673.841 520.293, 673.904 519.869, 674.857 519.201 C 675.684 518.621, 675.958 517.444, 675.559 516.186 C 675.089 514.706, 675.476 513.816, 676.927 513.039 C 678.826 512.023, 678.927 511.184, 678.574 499.380 C 678.197 486.805, 678.197 486.805, 680.723 487.287 C 683.248 487.770, 683.248 487.770, 682.774 480.385 C 682.386 474.334, 682.566 473, 683.773 473 C 684.891 473, 684.977 472.677, 684.131 471.658 C 682.731 469.971, 683.657 469, 686.667 469 C 687.950 469, 689 468.844, 689 468.654 C 689 467.514, 685.714 462, 685.035 462 C 684.585 462, 683.934 460.875, 683.589 459.500 C 683.244 458.125, 682.509 457, 681.956 457 C 681.403 457, 680.523 455.875, 680 454.500 C 679.477 453.125, 678.588 452, 678.025 452 C 677.461 452, 677 451.347, 677 450.550 C 677 449.752, 676.389 448.740, 675.641 448.300 C 674.894 447.860, 673.701 445.700, 672.989 443.500 C 672.278 441.300, 670.835 438.747, 669.782 437.826 C 668.730 436.905, 667.936 435.855, 668.018 435.492 C 668.325 434.135, 667.169 433.917, 666.381 435.183 M 153.788 501.946 C 187.392 502.628, 182.967 484.561, 182.985 621.143 C 182.998 724.498, 183.164 736.849, 184.545 737.379 C 185.721 737.830, 186.007 739.157, 185.743 742.942 C 185.438 747.328, 185.638 747.947, 187.448 748.206 C 188.850 748.407, 189.600 749.371, 189.816 751.250 C 189.990 752.763, 190.570 754, 191.104 754 C 191.639 754, 191.946 755.237, 191.788 756.750 C 191.555 758.977, 191.946 759.563, 193.845 759.832 C 195.600 760.080, 196.064 760.647, 195.689 762.081 C 195.413 763.135, 195.603 764.255, 196.110 764.568 C 196.618 764.882, 196.793 765.526, 196.500 766 C 196.207 766.474, 196.397 767.127, 196.922 767.452 C 197.447 767.777, 198.367 767.245, 198.965 766.271 C 199.861 764.813, 200.005 765.119, 199.777 768 C 199.524 771.199, 199.734 771.504, 202.213 771.546 C 205.426 771.600, 205.087 771.258, 207.997 777.393 C 210.010 781.639, 210.476 782.069, 211.519 780.643 C 212.957 778.676, 214 778.523, 214 780.278 C 214 782.203, 218.136 785.353, 220.817 785.470 C 222.118 785.527, 223.603 786.326, 224.117 787.245 C 224.632 788.165, 225.658 788.685, 226.397 788.401 C 227.137 788.117, 228.025 788.622, 228.370 789.522 C 228.901 790.906, 229.986 791.054, 235.368 790.477 C 240.625 789.914, 242.090 790.097, 243.755 791.523 C 246.554 793.918, 257.352 793.999, 257.823 791.627 C 258.001 790.732, 259.014 790, 260.073 790 C 261.156 790, 262 789.313, 262 788.433 C 262 787.320, 261.419 787.050, 260 787.500 C 258.623 787.937, 258 787.680, 258 786.674 C 258 784.862, 255.336 783.759, 252.859 784.545 C 251.626 784.936, 251 784.643, 251 783.674 C 251 782.871, 250.325 781.955, 249.500 781.638 C 248.675 781.322, 248 780.374, 248 779.531 C 248 778.689, 247.550 778, 247 778 C 246.450 778, 246.112 778.563, 246.250 779.250 C 246.753 781.767, 242.532 780.551, 241.912 778 C 240.196 770.935, 239.872 770.589, 235.302 770.954 C 233.304 771.113, 233.156 770.783, 233.672 767.315 C 234.206 763.726, 234.149 763.618, 232.702 765.498 C 230.736 768.052, 229.579 766.883, 229.704 762.469 C 229.787 759.516, 229.470 759, 227.568 759 C 224.504 759, 223.906 758.143, 225.309 755.762 C 226.241 754.179, 226.228 753.640, 225.250 753.286 C 224.563 753.037, 224 751.777, 224 750.486 C 224 748.814, 223.353 748.047, 221.750 747.820 C 219.702 747.529, 219.521 747.019, 219.732 742.152 C 219.920 737.800, 219.641 736.719, 218.232 736.350 C 216.600 735.924, 216.514 729.201, 216.742 620.199 C 217.030 482.293, 224.467 501.511, 170.787 501.446 C 134.140 501.401, 131.208 501.487, 153.788 501.946 M 383 501.977 C 398.675 502.264, 410.712 502.823, 409.750 503.219 C 407.251 504.245, 407.004 723.929, 409.500 726 C 410.325 726.685, 411 727.865, 411 728.622 C 411 729.380, 411.726 730, 412.613 730 C 413.981 730, 414.166 731.063, 413.830 737 C 413.613 740.850, 413.835 744, 414.324 744 C 414.814 744, 414.942 744.708, 414.611 745.572 C 413.806 747.668, 415.674 751, 417.652 751 C 418.819 751, 419.102 751.687, 418.732 753.624 C 418.360 755.569, 418.693 756.369, 420.021 756.716 C 421.112 757.001, 422.062 758.517, 422.451 760.592 C 422.972 763.370, 423.544 764, 425.545 764 C 428.090 764, 429.110 767.196, 426.984 768.510 C 426.425 768.856, 426.240 769.579, 426.573 770.118 C 426.954 770.734, 427.701 770.663, 428.589 769.926 C 429.603 769.084, 430 769.071, 430 769.878 C 430 770.495, 430.689 771, 431.531 771 C 432.374 771, 433.361 771.778, 433.726 772.728 C 434.091 773.678, 435.411 775.403, 436.661 776.562 C 438.253 778.037, 438.617 778.983, 437.879 779.721 C 436.468 781.132, 437.807 781.868, 442.962 782.516 C 445.252 782.804, 448.028 783.880, 449.132 784.908 C 450.235 785.936, 451.949 786.565, 452.940 786.305 C 454.028 786.021, 455.820 786.911, 457.459 788.550 C 459.999 791.090, 460.569 791.225, 466.235 790.633 C 469.567 790.285, 476.932 790, 482.601 790 C 492.909 790, 492.909 790, 490.344 787.435 C 488.858 785.949, 487.145 785.114, 486.270 785.450 C 485.415 785.778, 483.978 785.128, 482.957 783.950 C 481.840 782.662, 479.887 781.845, 477.827 781.803 C 473.420 781.712, 470.424 780.176, 471.859 778.741 C 472.624 777.976, 472.280 777.062, 470.661 775.562 C 469.411 774.403, 468.091 772.678, 467.726 771.728 C 467.361 770.778, 466.411 770, 465.615 770 C 464.818 770, 463.940 769.438, 463.662 768.750 C 463.259 767.750, 463.142 767.750, 463.079 768.750 C 463.036 769.438, 462.325 770, 461.500 770 C 459.802 770, 459.489 768.434, 461 767.500 C 463.113 766.194, 462.080 763, 459.545 763 C 457.532 763, 456.973 762.371, 456.434 759.500 C 455.948 756.908, 455.267 756, 453.809 756 C 452.143 756, 451.942 755.540, 452.500 753 C 453.058 750.458, 452.858 750, 451.188 750 C 449.300 750, 447.158 745.509, 448.436 744.231 C 448.729 743.938, 448.188 743.105, 447.234 742.381 C 446.168 741.571, 445.981 741.051, 446.750 741.032 C 447.609 741.010, 448 739.105, 448 734.941 C 448 731.595, 447.596 729.132, 447.098 729.439 C 446.602 729.746, 445.252 728.397, 444.098 726.441 C 441.076 721.320, 440.738 502.477, 443.750 501.689 C 444.712 501.438, 425.025 501.282, 400 501.343 C 359.168 501.442, 357.424 501.507, 383 501.977 M 363.853 832.718 C 362.947 832.932, 361.967 834.017, 361.677 835.129 C 361.301 836.566, 360.475 837.057, 358.824 836.825 C 357.116 836.586, 356.537 836.964, 356.639 838.250 C 356.715 839.212, 356.488 840, 356.133 840 C 355.778 840, 354.882 841.371, 354.140 843.046 C 353.222 845.119, 351.867 846.277, 349.896 846.671 C 347.861 847.078, 347 847.844, 347 849.247 C 347 850.883, 346.736 851.026, 345.544 850.036 C 343.702 848.508, 342 849.514, 342 852.131 C 342 853.737, 341.446 854.078, 339.250 853.822 C 336.898 853.547, 336.545 853.826, 336.813 855.750 C 337.130 858.028, 335.635 858.836, 334.500 857 C 333.437 855.279, 332.338 855.905, 332.421 858.185 C 332.484 859.926, 331.669 860.586, 328.404 861.435 C 326.146 862.022, 324.482 863.006, 324.696 863.627 C 325.222 865.151, 321.920 866.320, 320.657 865.057 C 319.439 863.839, 317 865.550, 317 867.622 C 317 868.486, 315.881 869, 314 869 C 312.350 869, 311 869.477, 311 870.059 C 311 870.644, 310.448 870.777, 309.768 870.356 C 306.945 868.612, 304.887 869.317, 304.304 872.229 C 303.782 874.842, 303.361 875.113, 300.112 874.933 C 298.125 874.823, 295.780 875.040, 294.899 875.416 C 294.019 875.792, 292.669 875.965, 291.899 875.800 C 291.130 875.635, 290.612 876.063, 290.750 876.750 C 290.887 877.438, 290.100 878, 289 878 C 287.900 878, 287 877.564, 287 877.031 C 287 875.696, 283.779 876.932, 282.225 878.865 C 281.176 880.169, 280.600 880.232, 278.975 879.217 C 277.889 878.538, 277 878.408, 277 878.928 C 277 879.448, 275.538 880.055, 273.750 880.277 C 271.962 880.498, 278.262 880.752, 287.750 880.840 C 298.690 880.941, 305 880.634, 305 880 C 305 879.450, 306.035 879, 307.300 879 C 308.565 879, 310.196 878.438, 310.925 877.750 C 311.985 876.750, 312.342 876.750, 312.708 877.750 C 313.389 879.607, 315.698 879.263, 316.231 877.224 C 316.706 875.409, 321 874.363, 321 876.062 C 321 876.578, 321.900 877, 323 877 C 324.100 877, 324.888 876.438, 324.750 875.750 C 324.599 874.995, 325.391 874.594, 326.750 874.738 C 327.988 874.869, 329 874.587, 329 874.111 C 329 873.635, 331.025 873.474, 333.500 873.753 C 337.833 874.241, 338 874.161, 338 871.599 C 338 868.474, 340.439 867.169, 343.132 868.851 C 344.284 869.570, 345 869.630, 345 869.008 C 345 868.454, 346.350 868, 348 868 C 350.303 868, 351 867.549, 351 866.059 C 351 863.575, 352.707 862.512, 354.417 863.931 C 356.255 865.457, 358.878 864.251, 358.325 862.135 C 357.961 860.745, 358.566 860.380, 361.368 860.301 C 365.847 860.174, 367.226 859.287, 366.500 857 C 365.784 854.743, 367.781 853.266, 368.614 855.437 C 369.625 858.070, 371.269 857.207, 370.567 854.411 C 369.952 851.961, 370.079 851.858, 372.959 852.491 C 375.734 853.100, 376 852.933, 376 850.579 C 376 847.840, 377.790 847.190, 379.800 849.200 C 380.733 850.133, 380.993 850.078, 380.968 848.950 C 380.926 847.023, 378.917 844.533, 376.750 843.719 C 375.788 843.358, 375 842.474, 375 841.754 C 375 840.279, 371.519 837, 369.953 837 C 369.271 837, 369.286 836.334, 370 835 C 370.589 833.900, 370.942 832.969, 370.785 832.931 C 369.133 832.532, 365.159 832.410, 363.853 832.718" stroke="none" fill="#00ffdd" fill-rule="evenodd"/><path d="M 815.511 350.557 C 810.198 354.162, 809.433 355.085, 808.696 358.772 C 807.898 362.758, 808.935 371.158, 810.133 370.418 C 810.610 370.123, 811 370.543, 811 371.352 C 811 374.787, 822.094 378.055, 827.185 376.120 C 828.458 375.636, 829.837 375.186, 830.250 375.120 C 830.663 375.054, 831.866 374.134, 832.924 373.076 C 845.072 360.928, 829.639 340.970, 815.511 350.557" stroke="none" fill="#95ff00" fill-rule="evenodd"/><path d="M 796.526 190.188 C 791.590 190.694, 787.315 191.454, 787.026 191.878 C 786.737 192.302, 782.563 193.224, 777.750 193.928 C 772.938 194.632, 769 195.560, 769 195.992 C 769 196.424, 767.425 197.073, 765.500 197.434 C 763.575 197.795, 762 198.435, 762 198.856 C 762 199.277, 759.750 200.199, 757 200.903 C 754.250 201.608, 752 202.508, 752 202.903 C 752 203.299, 749.750 204.199, 747 204.903 C 744.250 205.608, 742 206.585, 742 207.073 C 742 207.562, 740.875 208.244, 739.500 208.589 C 738.125 208.934, 737 209.563, 737 209.987 C 737 210.411, 735.650 211.317, 734 212 C 732.350 212.683, 731 213.629, 731 214.102 C 731 214.575, 729.875 215.244, 728.500 215.589 C 727.125 215.934, 726 216.563, 726 216.987 C 726 217.411, 724.682 218.303, 723.072 218.970 C 721.461 219.637, 719.900 220.817, 719.603 221.592 C 719.306 222.366, 718.474 223, 717.754 223 C 717.034 223, 715.333 224.238, 713.973 225.750 C 712.613 227.262, 710.312 229.112, 708.860 229.860 C 707.408 230.608, 705.671 232.246, 705 233.500 C 704.329 234.754, 702.754 236.329, 701.500 237 C 700.246 237.671, 698.671 239.246, 698 240.500 C 697.329 241.754, 695.754 243.329, 694.500 244 C 693.247 244.671, 691.739 246.278, 691.150 247.570 C 690.086 249.906, 689.473 250.701, 684.233 256.551 C 682.730 258.228, 680.826 260.928, 680.002 262.551 C 679.178 264.173, 677.940 265.860, 677.252 266.300 C 676.563 266.740, 676 267.752, 676 268.550 C 676 269.347, 675.634 270, 675.187 270 C 674.739 270, 673.755 271.575, 673 273.500 C 672.245 275.425, 671.332 277, 670.972 277 C 670.611 277, 669.777 278.800, 669.118 281 C 668.459 283.200, 667.488 285, 666.960 285 C 666.432 285, 666 286.093, 666 287.429 C 666 288.764, 665.324 290.533, 664.499 291.359 C 663.673 292.184, 662.452 295.254, 661.787 298.180 C 661.121 301.106, 659.997 304.095, 659.288 304.821 C 658.580 305.548, 658 307.423, 658 308.988 C 658 310.553, 657.580 311.983, 657.066 312.167 C 656.552 312.350, 655.577 316.550, 654.899 321.500 C 654.222 326.450, 653.217 330.798, 652.666 331.162 C 652.064 331.561, 651.633 339.216, 651.583 350.410 C 651.506 367.599, 651.144 370.660, 649.500 368 C 648.384 366.195, 644.266 366.875, 643.722 368.954 C 643.294 370.593, 642.621 370.813, 639.551 370.315 C 636.003 369.739, 635.912 369.800, 636.552 372.351 C 637.339 375.488, 634.827 376.998, 631.881 375.158 C 629.603 373.735, 627 373.651, 627 375 C 627 375.550, 627.477 376, 628.059 376 C 628.641 376, 628.829 376.468, 628.475 377.041 C 628.121 377.613, 627.082 377.855, 626.166 377.579 C 625.074 377.249, 623.639 378.261, 622 380.515 C 620.625 382.407, 618.950 383.759, 618.278 383.520 C 615.020 382.359, 611.068 385.088, 611.667 388.083 C 612.282 391.160, 611.546 391.573, 606.250 391.118 C 604.808 390.994, 604 391.477, 604 392.462 C 604 393.308, 603.290 394, 602.422 394 C 601.554 394, 599.165 395.800, 597.114 398 C 595.062 400.200, 592.883 402, 592.271 402 C 591.659 402, 590.862 403.350, 590.500 405 C 590.138 406.650, 589.466 408, 589.008 408 C 588.550 408, 587.872 409.800, 587.500 412 C 586.818 416.039, 583.912 417.672, 582.610 414.750 C 582.303 414.063, 582.150 415.075, 582.270 417 C 582.472 420.263, 582.301 420.481, 579.744 420.212 C 577.817 420.010, 577 420.382, 577 421.462 C 577 422.308, 577.675 423, 578.500 423 C 579.350 423, 580 423.896, 580 425.067 C 580 426.651, 579.551 426.992, 578.081 426.526 C 576.708 426.090, 575.977 426.498, 575.513 427.958 C 575.157 429.081, 574.389 430, 573.808 430 C 573.166 430, 572.986 431.180, 573.350 433 C 573.680 434.650, 573.574 436, 573.114 436 C 572.654 436, 572.492 437.125, 572.755 438.500 C 573.170 440.672, 572.876 441, 570.507 441 C 567.960 441, 567.809 441.239, 568.206 444.642 C 568.553 447.607, 568.272 448.378, 566.694 448.790 C 565.007 449.232, 564.831 449.923, 565.331 454.148 C 565.887 458.844, 565.823 459, 563.329 459 C 560.817 459, 560.764 459.138, 561.208 464.500 C 561.570 468.855, 561.362 470, 560.210 470 C 559.158 470, 559.043 470.347, 559.795 471.253 C 560.529 472.137, 560.418 473.076, 559.417 474.444 C 558.534 475.652, 558 478.863, 558 482.969 C 558 489.465, 556.234 493, 552.989 493 C 551.530 493, 551.687 516.688, 553.151 517.594 C 553.959 518.093, 553.793 518.678, 552.598 519.552 C 551.660 520.238, 550.987 521.857, 551.102 523.149 C 551.596 528.706, 550.986 531.191, 549 531.710 C 546.281 532.421, 545.786 717.320, 548.500 718.362 C 550.604 719.169, 550.604 737.618, 548.499 740.398 C 547.256 742.041, 546.838 742.111, 545.394 740.912 C 543.858 739.637, 543.764 740.042, 544.212 746.014 C 544.672 752.130, 544.537 752.657, 541.852 755.257 C 540.286 756.773, 539.116 758.573, 539.252 759.257 C 539.388 759.940, 538.675 760.431, 537.666 760.347 C 536.192 760.224, 535.954 760.681, 536.455 762.677 C 536.984 764.783, 536.790 765.068, 535.180 764.557 C 532.040 763.561, 530 764.959, 530 768.107 C 530 770.012, 529.488 771, 528.500 771 C 527.452 771, 527 772.056, 527 774.500 C 527 776.425, 526.550 778, 526 778 C 525.450 778, 525 777.550, 525 777 C 525 775.397, 522.837 775.846, 521.392 777.750 C 520.661 778.712, 520.049 780.340, 520.032 781.367 C 520.008 782.764, 519.473 783.096, 517.904 782.685 C 515.142 781.963, 513 782.849, 513 784.714 C 513 785.641, 512.423 785.993, 511.489 785.634 C 508.449 784.468, 503.898 786.103, 504.541 788.130 C 505.159 790.076, 503.580 790.748, 502.500 789 C 501.534 787.437, 500.207 787.827, 500.361 789.628 C 500.444 790.600, 499.592 791.404, 498.250 791.622 C 497.012 791.823, 496 791.508, 496 790.922 C 496 789.898, 471.293 790.090, 463.250 791.176 C 461.462 791.417, 460 791.251, 460 790.807 C 460 790.363, 459.355 790, 458.567 790 C 457.779 790, 456.835 789.056, 456.469 787.902 C 455.953 786.277, 455.213 785.917, 453.185 786.305 C 451.418 786.643, 450.046 786.206, 448.968 784.963 C 448.071 783.929, 445.460 782.890, 443.021 782.596 C 438.322 782.030, 436.096 780.677, 437.962 779.523 C 438.726 779.051, 438.326 778.104, 436.744 776.638 C 435.449 775.438, 434.091 773.678, 433.726 772.728 C 433.361 771.778, 432.374 771, 431.531 771 C 430.689 771, 430 770.495, 430 769.878 C 430 769.071, 429.603 769.084, 428.589 769.926 C 427.701 770.663, 426.954 770.734, 426.573 770.118 C 426.240 769.579, 426.425 768.856, 426.984 768.510 C 429.110 767.196, 428.090 764, 425.545 764 C 423.532 764, 422.973 763.371, 422.434 760.500 C 421.963 757.987, 421.252 757, 419.914 757 C 418.376 757, 418.155 756.475, 418.650 754 C 419.115 751.673, 418.893 751, 417.660 751 C 415.741 751, 413.632 747.401, 414.392 745.422 C 414.692 744.640, 414.599 744, 414.186 744 C 413.773 744, 413.613 740.850, 413.830 737 C 414.166 731.063, 413.981 730, 412.613 730 C 411.726 730, 411 729.380, 411 728.622 C 411 727.865, 410.325 726.685, 409.500 726 C 407.005 723.930, 407.251 504.535, 409.750 503.080 C 410.958 502.377, 397.472 502.051, 366.227 502.030 C 320.954 502, 320.954 502, 321.227 617.456 C 321.500 732.913, 321.500 732.913, 319.250 732.348 C 317.450 731.896, 317 732.204, 317 733.892 C 317 735.051, 317.475 736, 318.055 736 C 320.350 736, 318.666 745.428, 316.180 746.500 C 314.311 747.305, 313.947 748.084, 314.310 750.500 C 314.965 754.864, 313.393 757.315, 310.418 756.569 C 307.779 755.906, 306.724 760.093, 309.151 761.594 C 309.980 762.106, 309.890 762.613, 308.833 763.403 C 308.025 764.006, 306.722 765.962, 305.938 767.750 C 305.153 769.538, 303.770 771, 302.863 771 C 301.956 771, 300.917 771.775, 300.553 772.722 C 299.996 774.173, 299.752 774.217, 299.001 773.001 C 298.510 772.207, 297.764 771.903, 297.342 772.324 C 296.921 772.746, 297.112 773.950, 297.767 774.999 C 298.675 776.453, 298.681 777.079, 297.789 777.631 C 297.145 778.029, 296.441 777.824, 296.226 777.177 C 295.466 774.899, 290 778.255, 290 781 C 290 781.550, 289.122 782, 288.050 782 C 286.977 782, 285.703 782.708, 285.219 783.572 C 284.735 784.437, 282.463 785.396, 280.170 785.704 C 276.677 786.173, 276 786.629, 276 788.515 C 276 790.967, 272.233 792.398, 269.815 790.864 C 267.119 789.155, 258 789.839, 258 791.750 C 258.001 793.230, 257.037 793.500, 251.750 793.500 C 247.080 793.500, 245.091 793.058, 243.883 791.750 C 242.198 789.927, 237.097 789.517, 233.516 790.915 C 230.872 791.948, 228 791.116, 228 789.316 C 228 788.320, 227.373 788.064, 226 788.500 C 224.607 788.942, 224 788.680, 224 787.635 C 224 785.857, 220.960 784.694, 218.641 785.584 C 217.569 785.996, 217 785.694, 217 784.714 C 217 783.889, 216.325 782.955, 215.500 782.638 C 214.675 782.322, 214 781.374, 214 780.531 C 214 779.689, 213.550 779, 213 779 C 212.450 779, 212 779.675, 212 780.500 C 212 781.325, 211.325 782, 210.500 782 C 209.675 782, 209 781.282, 209 780.404 C 209 775.953, 204.800 771.124, 201.481 771.759 C 199.229 772.189, 199.121 771.993, 199.611 768.358 C 200.028 765.264, 199.910 764.846, 199.016 766.250 C 197.654 768.386, 195.562 768.584, 196.362 766.500 C 196.678 765.675, 196.493 765, 195.950 765 C 195.395 765, 195.237 763.903, 195.589 762.500 C 196.142 760.298, 195.897 760, 193.529 760 C 191.063 760, 190.895 759.753, 191.500 757 C 191.894 755.207, 191.751 754, 191.146 754 C 190.589 754, 189.990 752.763, 189.816 751.250 C 189.594 749.313, 188.857 748.408, 187.324 748.190 C 185.350 747.909, 185.189 747.418, 185.598 742.918 C 185.945 739.100, 185.698 737.821, 184.525 737.371 C 183.171 736.852, 182.998 723.835, 182.985 621.143 C 182.966 483.345, 190.390 502.559, 137.037 502.220 C 93 501.940, 93 501.940, 93 627.908 C 93 753.877, 93 753.877, 95.750 753.688 C 98.396 753.507, 98.498 753.680, 98.457 758.250 C 98.433 760.863, 98.780 763, 99.226 763 C 99.673 763, 99.771 764.064, 99.445 765.364 C 99.025 767.037, 99.345 767.918, 100.538 768.376 C 101.841 768.876, 101.966 769.336, 101.087 770.395 C 100.212 771.450, 100.317 771.908, 101.543 772.378 C 102.619 772.791, 102.928 773.652, 102.493 775.023 C 102.038 776.456, 102.534 777.616, 104.174 778.954 C 106.278 780.670, 106.333 780.916, 104.750 781.533 C 101.875 782.652, 102.468 786.350, 105.404 785.613 C 107.706 785.036, 107.785 785.183, 107.265 789.059 C 106.734 793.021, 106.779 793.094, 109.352 792.448 C 112.618 791.628, 114.298 794.577, 111.662 796.505 C 110.748 797.173, 110 798.233, 110 798.860 C 110 799.907, 110.684 800.118, 114.996 800.404 C 116.094 800.476, 116.409 801.469, 116.181 804.125 C 115.888 807.517, 116.029 807.717, 118.389 807.266 C 120.803 806.805, 120.885 806.947, 120.335 810.642 C 119.803 814.209, 119.873 814.354, 121.248 812.570 C 123.266 809.953, 124.999 812.928, 124.267 817.750 C 123.883 820.278, 124.132 821, 125.387 821 C 126.274 821, 127 820.298, 127 819.441 C 127 818.584, 127.472 818.173, 128.048 818.530 C 128.624 818.886, 129.022 819.925, 128.933 820.839 C 128.624 823.989, 129.005 825, 130.500 825 C 131.359 825, 132 825.901, 132 827.108 C 132 828.844, 132.431 829.109, 134.439 828.605 C 136.988 827.965, 138.939 829.440, 136.756 830.357 C 135.852 830.736, 135.990 831.194, 137.250 831.992 C 138.213 832.601, 139 834.036, 139 835.181 C 139 837.001, 139.439 837.190, 142.500 836.694 C 144.685 836.339, 146 836.530, 146 837.203 C 146 837.795, 146.771 838.843, 147.712 839.532 C 149.160 840.590, 149.218 841.032, 148.090 842.392 C 146.957 843.757, 147 844, 148.378 844 C 149.270 844, 150 844.450, 150 845 C 150 845.550, 150.675 846, 151.500 846 C 152.325 846, 153 846.450, 153 847 C 153 847.550, 153.900 848, 155 848 C 156.111 848, 157 848.667, 157 849.500 C 157 850.325, 157.675 851, 158.500 851 C 159.325 851, 160 851.727, 160 852.617 C 160 853.817, 160.667 854.106, 162.590 853.738 C 166.651 852.962, 171.288 855.716, 170.592 858.491 C 169.984 860.910, 174.155 862.645, 177.497 861.363 C 178.626 860.930, 178.949 861.386, 178.758 863.140 C 178.526 865.263, 178.876 865.489, 182.250 865.386 C 184.714 865.311, 186 865.717, 186 866.569 C 186 868.175, 189.154 869.262, 191.359 868.416 C 192.461 867.993, 193 868.314, 193 869.393 C 193 871.239, 195.636 871.591, 196.226 869.823 C 196.880 867.860, 199 869.950, 199 872.559 C 199 875.279, 205.382 876.218, 207.752 873.848 C 208.622 872.978, 209.201 873.346, 210.113 875.348 C 211.447 878.276, 216.501 879.099, 218.833 876.767 C 219.810 875.790, 220.184 875.986, 220.635 877.712 C 221.123 879.580, 221.479 879.719, 223.133 878.695 C 224.668 877.743, 225.237 877.782, 225.923 878.885 C 226.495 879.804, 227.665 880.050, 229.393 879.616 C 231.345 879.126, 232 879.343, 232 880.481 C 232 881.788, 234.725 882, 251.500 882 C 263.833 882, 271 881.632, 271 881 C 271 880.450, 272.313 880, 273.917 880 C 275.521 880, 277.096 879.438, 277.417 878.750 C 277.883 877.750, 278.117 877.750, 278.583 878.750 C 279.374 880.444, 282 880.341, 282 878.617 C 282 877.007, 286.339 875.579, 286.833 877.026 C 287.328 878.470, 291.042 878.209, 290.750 876.750 C 290.599 875.995, 291.391 875.594, 292.750 875.738 C 293.988 875.869, 295 875.587, 295 875.111 C 295 874.635, 296.990 874.470, 299.422 874.744 C 303.685 875.225, 303.856 875.139, 304.172 872.371 C 304.512 869.394, 307.087 868.464, 309.750 870.357 C 310.535 870.915, 311 870.827, 311 870.122 C 311 869.505, 312.350 869, 314 869 C 315.725 869, 317.007 868.469, 317.015 867.750 C 317.049 865.003, 318.754 863.551, 320.371 864.893 C 322.088 866.318, 324.500 865.276, 324.500 863.111 C 324.500 862.318, 325.739 861.591, 327.390 861.415 C 332.130 860.909, 333.197 860.197, 332.502 858.005 C 331.852 855.958, 333.381 855.189, 334.500 857 C 335.635 858.836, 337.130 858.028, 336.813 855.750 C 336.545 853.826, 336.898 853.547, 339.250 853.822 C 341.620 854.099, 342 853.788, 342 851.572 C 342 848.840, 343.793 848.193, 345.800 850.200 C 346.733 851.133, 347 850.939, 347 849.325 C 347 847.836, 347.818 847.086, 349.896 846.671 C 351.867 846.277, 353.222 845.119, 354.140 843.046 C 354.882 841.371, 355.786 840, 356.150 840 C 356.515 840, 356.560 839.034, 356.251 837.853 C 355.750 835.937, 355.985 835.779, 358.428 836.393 C 360.661 836.953, 361.265 836.703, 361.700 835.040 C 361.993 833.918, 362.743 832.943, 363.367 832.872 C 370.756 832.040, 371.459 832.273, 369.968 835.061 C 369.239 836.422, 369.251 837, 370.007 837 C 371.434 837, 374.520 840.056, 375.309 842.250 C 375.654 843.212, 376.578 844, 377.362 844 C 378.145 844, 379.045 844.675, 379.362 845.500 C 379.678 846.325, 380.626 847, 381.469 847 C 382.311 847, 383 847.707, 383 848.571 C 383 850.427, 385.354 853, 387.051 853 C 387.945 853, 387.927 852.617, 386.980 851.476 C 386.284 850.638, 385.940 849.727, 386.214 849.452 C 387.084 848.582, 390 850.159, 390 851.500 C 390 852.207, 390.640 853.032, 391.422 853.332 C 392.293 853.666, 392.636 854.677, 392.306 855.939 C 391.673 858.359, 393.499 858.749, 394.405 856.387 C 395.314 854.018, 398.242 856.661, 397.455 859.141 C 396.849 861.052, 398.454 861.565, 403.675 861.129 C 406.483 860.895, 407.538 862.643, 405.836 864.710 C 404.634 866.170, 404.876 866.272, 408.250 865.729 C 411.569 865.195, 412 865.363, 412 867.194 C 412 868.999, 412.445 869.189, 415.500 868.694 C 418.140 868.265, 419 868.479, 419 869.563 C 419 871.284, 421.667 871.500, 422.226 869.823 C 422.897 867.809, 425 869.982, 425 872.689 C 425 875.145, 425.202 875.237, 429.500 874.753 C 431.975 874.474, 434 874.640, 434 875.123 C 434 875.605, 434.675 876, 435.500 876 C 436.325 876, 437 876.450, 437 877 C 437 877.550, 438.548 878, 440.441 878 C 442.334 878, 444.160 877.550, 444.500 877 C 445.587 875.240, 448 875.930, 448 878 C 448 880.207, 449.572 880.722, 450.286 878.750 C 450.648 877.750, 451.162 877.750, 452.856 878.750 C 454.020 879.437, 455.654 880, 456.486 880 C 457.319 880, 458 880.450, 458 881 C 458 881.635, 465.667 882, 479 882 C 492.333 882, 500 881.635, 500 881 C 500 880.450, 501.350 880, 503 880 C 504.650 880, 506 879.498, 506 878.883 C 506 878.232, 507.041 877.966, 508.500 878.245 C 510.303 878.589, 511 878.288, 511 877.161 C 511 875.947, 511.267 875.867, 512.200 876.800 C 513.648 878.248, 520 878.411, 520 877 C 520 876.450, 520.675 876, 521.500 876 C 522.325 876, 523 875.571, 523 875.047 C 523 874.491, 525.084 874.341, 528 874.686 C 533 875.279, 533 875.279, 533 872.139 C 533 869.076, 534.262 867.996, 535.500 870 C 536.474 871.576, 539 871.166, 539 869.433 C 539 868.320, 539.581 868.050, 541 868.500 C 542.225 868.889, 543 868.680, 543 867.960 C 543 867.314, 543.646 867.034, 544.435 867.337 C 545.225 867.640, 546.048 867.355, 546.265 866.704 C 546.498 866.007, 548.116 865.646, 550.204 865.826 C 553.574 866.117, 553.722 865.998, 553.228 863.411 C 552.771 861.021, 552.969 860.759, 554.854 861.252 C 556.034 861.560, 557 861.375, 557 860.839 C 557 860.303, 557.900 860.151, 559 860.500 C 560.565 860.997, 561 860.680, 561 859.043 C 561 857.754, 561.923 856.600, 563.403 856.037 C 564.724 855.534, 566.055 854.719, 566.361 854.225 C 566.666 853.731, 568.573 853.265, 570.599 853.189 C 575.020 853.023, 575.679 852.523, 574.056 850.568 C 572.703 848.937, 573.479 846.839, 575.325 847.136 C 578.928 847.717, 586 843.652, 586 841 C 586 840.450, 586.498 840, 587.107 840 C 587.716 840, 587.968 839.358, 587.666 838.573 C 587.365 837.788, 587.767 836.608, 588.559 835.951 C 589.352 835.293, 590 834.210, 590 833.544 C 590 832.864, 591.322 832.333, 593.018 832.333 C 595.985 832.333, 598.901 829.851, 598.968 827.269 C 598.986 826.592, 600.125 825.756, 601.500 825.411 C 604.214 824.729, 604.932 823, 602.500 823 C 601.667 823, 601 822.111, 601 821 C 601 818.772, 602.960 818.360, 604.800 820.200 C 605.733 821.133, 606 821.022, 606 819.700 C 606 818.765, 606.480 818, 607.067 818 C 607.687 818, 607.863 817.144, 607.488 815.961 C 606.914 814.155, 607.152 814, 609.564 814.606 C 612.135 815.251, 612.257 815.126, 611.737 812.405 C 611.070 808.917, 612.618 805.639, 614.577 806.391 C 615.511 806.749, 616 806.261, 616 804.969 C 616 803.886, 616.666 803, 617.481 803 C 619.290 803, 620.443 798.900, 619.589 795.500 C 619.244 794.125, 619.368 793, 619.864 793 C 620.361 793, 621.011 792.067, 621.309 790.926 C 621.607 789.785, 622.795 788.605, 623.949 788.303 C 625.866 787.802, 625.902 787.649, 624.371 786.529 C 622.680 785.293, 623.339 782.474, 625.069 783.543 C 625.581 783.859, 626 783.416, 626 782.559 C 626 781.702, 626.675 781, 627.500 781 C 629.337 781, 629.585 776.015, 627.750 775.968 C 626.924 775.947, 627.039 775.523, 628.088 774.718 C 628.961 774.048, 629.486 772.938, 629.255 772.251 C 629.023 771.563, 629.546 770.728, 630.417 770.394 C 631.522 769.969, 632 768.485, 632 765.475 C 632 759.275, 632.737 757.789, 635.169 759.090 C 637.072 760.109, 637.129 759.817, 636.893 750.260 C 636.640 740.017, 637.218 737.486, 639.601 738.400 C 640.371 738.696, 641 738.549, 641 738.076 C 641 737.602, 640.325 736.955, 639.500 736.638 C 637.363 735.818, 637.205 528.574, 639.341 527.300 C 641.158 526.216, 642.061 522.227, 640.644 521.548 C 639.817 521.152, 639.846 520.839, 640.750 520.417 C 641.438 520.096, 642 518.939, 642 517.845 C 642 516.752, 642.682 515.175, 643.516 514.342 C 644.753 513.104, 644.960 510.532, 644.643 500.321 C 644.254 487.815, 644.254 487.815, 646.690 488.281 C 649.102 488.742, 649.124 488.677, 648.897 481.679 C 648.758 477.389, 649.084 474.472, 649.728 474.257 C 650.311 474.063, 650.558 473.026, 650.277 471.952 C 649.867 470.383, 650.280 470, 652.383 470 C 655.568 470, 656.216 464.609, 653.288 462.468 C 650.934 460.747, 653.329 457.652, 656.288 458.591 C 658.128 459.175, 658.248 458.887, 657.742 455.114 C 657.439 452.851, 657.583 451, 658.064 451 C 658.544 451, 658.678 450.325, 658.362 449.500 C 658.045 448.675, 658.284 448, 658.893 448 C 659.502 448, 659.888 447.438, 659.750 446.750 C 659.613 446.063, 660.325 445.569, 661.334 445.653 C 662.793 445.775, 663.045 445.314, 662.565 443.403 C 662.070 441.430, 662.342 441, 664.089 441 C 665.832 441, 666.109 440.569, 665.618 438.614 C 664.966 436.015, 667.285 433.035, 668.470 434.951 C 668.826 435.528, 668.798 436, 668.406 436 C 668.014 436, 668.594 436.788, 669.695 437.750 C 670.795 438.712, 672.278 441.300, 672.989 443.500 C 673.701 445.700, 674.894 447.860, 675.641 448.300 C 676.389 448.740, 677 449.752, 677 450.550 C 677 451.347, 677.461 452, 678.025 452 C 678.588 452, 679.477 453.125, 680 454.500 C 680.523 455.875, 681.403 457, 681.956 457 C 682.509 457, 683.236 458.092, 683.571 459.428 C 683.906 460.763, 684.815 462.099, 685.590 462.396 C 686.366 462.694, 687 463.437, 687 464.047 C 687 464.657, 688.800 466.939, 691 469.117 C 693.200 471.295, 695 473.510, 695 474.039 C 695 474.567, 695.675 475, 696.500 475 C 697.325 475, 698 475.675, 698 476.500 C 698 477.325, 698.623 478, 699.383 478 C 700.144 478, 701.002 478.900, 701.290 480 C 701.577 481.100, 702.530 482, 703.406 482 C 704.283 482, 705 482.675, 705 483.500 C 705 484.325, 705.565 485, 706.256 485 C 706.946 485, 708.824 486.575, 710.429 488.500 C 712.035 490.425, 713.844 492, 714.452 492 C 715.059 492, 716.326 492.900, 717.268 494 C 718.210 495.100, 719.660 496, 720.490 496 C 721.321 496, 722 496.461, 722 497.025 C 722 497.588, 723.125 498.477, 724.500 499 C 725.875 499.523, 727 500.412, 727 500.975 C 727 501.539, 727.689 502, 728.531 502 C 729.374 502, 730.311 502.648, 730.615 503.439 C 730.919 504.230, 732.510 505.173, 734.151 505.533 C 735.792 505.894, 737.359 506.771, 737.632 507.482 C 737.905 508.194, 740.124 509.335, 742.564 510.018 C 745.004 510.701, 747 511.651, 747 512.130 C 747 512.608, 747.868 513, 748.929 513 C 749.989 513, 751.513 513.656, 752.314 514.457 C 753.115 515.258, 755.847 516.436, 758.385 517.075 C 760.923 517.715, 763 518.606, 763 519.057 C 763 519.508, 765.138 520.192, 767.750 520.578 C 770.362 520.963, 772.759 521.677, 773.075 522.165 C 773.392 522.653, 775.979 523.329, 778.825 523.666 C 784 524.279, 784 524.279, 784 696.032 C 784 855.436, 784.120 867.832, 785.667 868.426 C 786.938 868.913, 787.057 869.343, 786.167 870.233 C 784.571 871.829, 784.609 881.081, 786.210 880.750 C 787.083 880.570, 787.338 882.343, 787.126 887.111 C 786.863 893.018, 787.046 893.779, 788.836 894.247 C 790.555 894.696, 790.762 895.357, 790.289 898.886 C 789.842 902.217, 790.040 903, 791.333 903 C 793.441 903, 795.041 906.127, 794.328 908.853 C 793.894 910.515, 794.119 910.892, 795.278 910.447 C 796.114 910.126, 797.095 910.344, 797.458 910.932 C 797.821 911.519, 797.641 912, 797.059 912 C 795.443 912, 795.798 914.709, 797.500 915.362 C 798.325 915.678, 799 916.465, 799 917.110 C 799 917.754, 801.025 920.250, 803.500 922.656 C 805.975 925.061, 808 927.442, 808 927.947 C 808 928.452, 808.900 929.151, 810 929.500 C 811.100 929.849, 812 930.566, 812 931.092 C 812 931.619, 813.125 932.477, 814.500 933 C 815.875 933.523, 817 934.460, 817 935.084 C 817 935.803, 817.944 935.980, 819.583 935.568 C 821.645 935.051, 822.274 935.332, 822.700 936.960 C 823.265 939.122, 826 939.828, 826 937.811 C 826 937.158, 826.918 937.608, 828.039 938.811 C 829.160 940.015, 830.698 941, 831.456 941 C 832.213 941, 833.003 941.510, 833.211 942.133 C 833.432 942.797, 836.157 943.315, 839.792 943.383 C 843.796 943.459, 845.996 943.915, 845.998 944.671 C 846.001 946.329, 851.048 947.230, 858.293 946.866 C 861.707 946.694, 864.950 946.826, 865.500 947.159 C 875.686 953.329, 878 949.928, 878 928.783 C 878 909.783, 878 909.783, 875.500 910.411 C 873.620 910.882, 873 910.645, 873 909.452 C 873 908.390, 872.415 908.051, 871.233 908.426 C 870.079 908.792, 868.815 908.121, 867.592 906.494 C 866.563 905.122, 865.094 904, 864.329 904 C 863.563 904, 862.639 903.212, 862.275 902.250 C 861.442 900.050, 859.975 898.568, 857.828 897.755 C 856.730 897.340, 856.339 896.420, 856.690 895.077 C 857.456 892.147, 856.184 887.768, 854.813 888.615 C 854.037 889.095, 853.886 888.562, 854.329 886.906 C 854.683 885.583, 854.979 803.642, 854.986 704.815 C 855 525.130, 855 525.130, 862.500 523.870 C 866.625 523.177, 870 522.287, 870 521.893 C 870 521.498, 871.800 520.872, 874 520.500 C 876.200 520.128, 878 519.486, 878 519.072 C 878 518.658, 880.475 517.726, 883.500 517 C 886.525 516.274, 889 515.338, 889 514.920 C 889 514.501, 890.350 513.862, 892 513.500 C 893.650 513.138, 895 512.499, 895 512.081 C 895 511.662, 896.800 510.726, 899 510 C 901.200 509.274, 903 508.386, 903 508.027 C 903 507.667, 904.575 506.755, 906.500 506 C 908.425 505.245, 910 504.261, 910 503.813 C 910 503.366, 910.653 503, 911.450 503 C 912.248 503, 913.260 502.437, 913.700 501.748 C 914.140 501.060, 915.850 499.829, 917.500 499.012 C 919.150 498.196, 921.404 496.622, 922.508 495.514 C 923.612 494.406, 925.700 492.888, 927.148 492.140 C 928.596 491.392, 930.355 489.704, 931.059 488.390 C 931.762 487.075, 932.870 486, 933.521 486 C 934.917 486, 949 472.570, 949 471.238 C 949 470.459, 951.788 467.144, 958.524 459.916 C 959.336 459.045, 960 457.793, 960 457.135 C 960 456.476, 960.675 455.678, 961.500 455.362 C 962.325 455.045, 963 454.228, 963 453.546 C 963 452.864, 963.900 451.268, 965 450 C 966.100 448.732, 967 447.157, 967 446.500 C 967 445.843, 967.900 444.268, 969 443 C 970.100 441.732, 971 440.088, 971 439.347 C 971 438.606, 971.379 438, 971.842 438 C 972.305 438, 973.223 436.200, 973.882 434 C 974.541 431.800, 975.467 430, 975.940 430 C 976.413 430, 977.340 427.750, 978 425 C 978.660 422.250, 979.565 420, 980.012 420 C 980.459 420, 981.128 418.200, 981.500 416 C 981.872 413.800, 982.533 412, 982.969 412 C 983.405 412, 984.347 408.400, 985.061 404 C 985.776 399.600, 986.691 396, 987.095 396 C 987.499 396, 988.152 392.512, 988.546 388.250 C 988.940 383.988, 989.690 380.225, 990.214 379.890 C 991.405 379.126, 991.352 337.849, 990.159 337.063 C 989.689 336.753, 989.020 333.382, 988.673 329.572 C 988.326 325.762, 987.675 322.387, 987.227 322.072 C 986.778 321.757, 985.822 317.900, 985.101 313.500 C 984.380 309.100, 983.444 305.275, 983.021 305 C 982.598 304.725, 981.934 303.038, 981.546 301.250 C 981.158 299.462, 980.512 298, 980.110 298 C 979.707 298, 978.801 295.750, 978.097 293 C 977.392 290.250, 976.460 288, 976.026 288 C 975.592 288, 974.728 285.975, 974.104 283.500 C 973.481 281.025, 972.563 279, 972.065 279 C 971.567 279, 970.871 277.688, 970.518 276.084 C 970.166 274.479, 969.230 272.919, 968.439 272.615 C 967.648 272.311, 967 271.580, 967 270.991 C 967 269.923, 963.628 264.771, 961.252 262.207 C 960.565 261.466, 959.743 259.824, 959.425 258.558 C 959.108 257.292, 957.757 255.673, 956.424 254.959 C 955.091 254.246, 954 253.079, 954 252.365 C 954 251.652, 952.650 249.688, 951 248 C 949.350 246.312, 948 244.497, 948 243.966 C 948 243.434, 947.325 243, 946.500 243 C 945.675 243, 945 242.553, 945 242.008 C 945 240.455, 940.787 236, 939.320 236 C 938.594 236, 938 235.325, 938 234.500 C 938 233.675, 937.533 233, 936.963 233 C 936.392 233, 933.957 230.975, 931.552 228.500 C 929.146 226.025, 926.714 224, 926.146 224 C 925.578 224, 924.525 223.190, 923.807 222.200 C 923.088 221.210, 921.038 219.805, 919.250 219.078 C 917.462 218.352, 916 217.371, 916 216.898 C 916 216.425, 914.875 215.756, 913.500 215.411 C 912.125 215.066, 911 214.359, 911 213.840 C 911 213.321, 909.650 212.425, 908 211.850 C 906.350 211.275, 905 210.434, 905 209.982 C 905 209.529, 903.650 208.862, 902 208.500 C 900.350 208.138, 899 207.498, 899 207.079 C 899 206.660, 897.200 205.777, 895 205.118 C 892.800 204.459, 891 203.533, 891 203.060 C 891 202.587, 888.750 201.660, 886 201 C 883.250 200.340, 881 199.435, 881 198.988 C 881 198.541, 879.200 197.872, 877 197.500 C 874.800 197.128, 873 196.516, 873 196.140 C 873 195.427, 861.492 193, 858.110 193 C 857.041 193, 856.017 192.583, 855.833 192.073 C 854.914 189.518, 815.350 188.261, 796.526 190.188 M 800 209.258 C 800 209.701, 798.538 210.031, 796.750 209.992 C 790.222 209.850, 773.839 214.267, 762.500 219.225 C 646.875 269.788, 635.800 425.042, 743.194 489.862 C 750.402 494.213, 760.553 499.120, 763.500 499.679 C 764.600 499.887, 765.642 500.470, 765.815 500.973 C 765.988 501.476, 766.775 501.640, 767.565 501.337 C 768.354 501.034, 769 501.359, 769 502.060 C 769 502.760, 769.249 503.085, 769.553 502.780 C 769.857 502.476, 772.219 502.885, 774.803 503.688 C 792.640 509.233, 804.637 510.932, 823 510.512 C 830.975 510.330, 838.850 509.909, 840.500 509.578 C 842.150 509.246, 846.875 508.308, 851 507.493 C 855.125 506.679, 861.626 504.913, 865.448 503.569 C 869.269 502.225, 872.756 501.349, 873.198 501.622 C 873.639 501.895, 874 501.690, 874 501.167 C 874 500.312, 878.031 498.810, 879.634 499.067 C 879.987 499.124, 880.552 498.795, 880.888 498.335 C 881.225 497.876, 885.433 495.550, 890.240 493.166 C 989.802 443.797, 997.606 280.987, 902.741 232.382 C 900.959 231.468, 899.225 230.295, 898.888 229.775 C 898.552 229.255, 897.980 228.884, 897.617 228.952 C 897.255 229.019, 894.046 227.446, 890.486 225.455 C 883.811 221.722, 867.415 214.734, 863 213.740 C 857.769 212.562, 855.777 212.064, 853.821 211.443 C 850.682 210.447, 846.806 209.915, 843.250 209.992 C 841.462 210.031, 840 209.687, 840 209.227 C 840 208.767, 831 208.405, 820 208.422 C 809 208.439, 800 208.816, 800 209.258 M 814.983 227.348 C 814.699 227.634, 811.324 228.073, 807.483 228.324 C 796.336 229.053, 789.669 229.929, 789.063 230.744 C 788.753 231.160, 787.150 231.643, 785.500 231.817 C 781.808 232.207, 761.778 240.010, 760.765 241.453 C 760.361 242.029, 760.024 242.167, 760.015 241.761 C 760.007 241.354, 756.962 242.870, 753.250 245.128 C 679.526 289.984, 663.921 385.866, 719.930 449.865 C 730.156 461.550, 753.398 479.229, 760.275 480.553 C 761.361 480.762, 763.349 481.654, 764.693 482.535 C 768.364 484.940, 786.140 491.160, 787.668 490.574 C 788.400 490.293, 789 490.494, 789 491.020 C 789 491.547, 790.013 491.963, 791.250 491.945 C 792.487 491.927, 796.200 492.440, 799.500 493.085 C 812.038 495.537, 851 493.817, 851 490.812 C 851 490.301, 851.461 490.167, 852.024 490.515 C 853.410 491.371, 864.999 487.469, 873.131 483.407 C 876.778 481.585, 880.040 480.374, 880.381 480.714 C 880.721 481.055, 881 480.883, 881 480.333 C 881 479.783, 881.598 479.333, 882.329 479.333 C 885.262 479.333, 905.735 464.131, 914.414 455.509 C 974.152 396.158, 964.045 295.858, 893.668 249.628 C 880.575 241.027, 854.652 229.861, 851.829 231.606 C 851.373 231.887, 851 231.589, 851 230.942 C 851 230.228, 850.020 229.954, 848.500 230.245 C 847.125 230.508, 846 230.328, 846 229.845 C 846 229.363, 844.763 229.002, 843.250 229.043 C 841.737 229.084, 838.925 228.917, 837 228.671 C 829.330 227.692, 815.470 226.859, 814.983 227.348 M 795.250 248.262 C 792.913 248.824, 791 249.620, 791 250.031 C 791 250.441, 789.425 251.073, 787.500 251.434 C 785.575 251.795, 784 252.520, 784 253.045 C 784 253.570, 783.019 254, 781.821 254 C 779.165 254, 773 256.146, 773 257.071 C 773 257.439, 771.028 258.292, 768.617 258.967 C 765.808 259.754, 763.772 261.057, 762.948 262.597 C 762.241 263.919, 760.861 265, 759.883 265 C 758.904 265, 756.989 266.012, 755.628 267.250 C 754.267 268.488, 751.907 270.400, 750.383 271.500 C 748.859 272.600, 746.718 274.512, 745.626 275.750 C 744.533 276.988, 743.054 278, 742.339 278 C 741.623 278, 740.770 279.067, 740.443 280.372 C 740.115 281.676, 738.806 283.301, 737.534 283.982 C 736.261 284.663, 734.608 286.408, 733.860 287.860 C 733.112 289.312, 731.263 291.613, 729.750 292.973 C 728.237 294.333, 727 296.250, 727 297.232 C 727 298.215, 726.102 299.789, 725.004 300.728 C 723.907 301.668, 722.732 303.914, 722.393 305.719 C 722.054 307.523, 721.377 309, 720.889 309 C 720.400 309, 720 309.689, 720 310.531 C 720 311.374, 719.349 312.313, 718.553 312.618 C 717.757 312.923, 716.600 315.609, 715.982 318.587 C 715.364 321.564, 714.499 324, 714.061 324 C 713.622 324, 713.013 325.865, 712.707 328.144 C 712.402 330.423, 711.555 332.657, 710.826 333.107 C 709.062 334.197, 708.869 382.671, 710.624 383.786 C 711.243 384.179, 712.087 386.075, 712.500 388 C 712.913 389.925, 713.644 391.751, 714.124 392.058 C 714.604 392.365, 715.489 395.290, 716.090 398.558 C 716.692 401.826, 717.817 404.860, 718.592 405.300 C 719.366 405.740, 720 406.752, 720 407.550 C 720 408.347, 720.450 409, 721 409 C 721.550 409, 722 409.681, 722 410.514 C 722 412.175, 723.796 415.656, 725.750 417.783 C 726.438 418.531, 727 420.053, 727 421.165 C 727 422.346, 727.832 423.405, 729 423.710 C 730.100 423.998, 731 424.856, 731 425.617 C 731 426.377, 731.450 427, 732 427 C 732.550 427, 733 427.463, 733 428.029 C 733 428.595, 735.925 432.041, 739.500 435.687 C 743.075 439.333, 746 442.686, 746 443.139 C 746 443.592, 747.125 444.244, 748.500 444.589 C 749.875 444.934, 751 445.813, 751 446.541 C 751 447.269, 751.978 448.176, 753.173 448.555 C 754.368 448.934, 756.253 450.090, 757.362 451.122 C 758.470 452.155, 759.967 453, 760.689 453 C 761.410 453, 762 453.395, 762 453.879 C 762 454.362, 763.462 455.355, 765.250 456.086 C 767.038 456.817, 769.095 457.997, 769.821 458.708 C 770.548 459.418, 771.786 460, 772.571 460 C 773.357 460, 774 460.392, 774 460.870 C 774 461.349, 776.025 462.307, 778.500 463 C 780.975 463.693, 783 464.593, 783 465.001 C 783 465.409, 785.354 466.055, 788.231 466.436 C 791.108 466.818, 793.706 467.525, 794.004 468.007 C 796.433 471.936, 849 471.865, 849 467.932 C 849 467.457, 851.250 466.770, 854 466.406 C 856.750 466.041, 859 465.435, 859 465.060 C 859 464.685, 861.214 463.811, 863.921 463.117 C 866.627 462.423, 869.088 461.213, 869.389 460.428 C 869.691 459.643, 870.851 459, 871.969 459 C 873.086 459, 874 458.579, 874 458.065 C 874 457.550, 875.575 456.560, 877.500 455.864 C 879.425 455.168, 881 454.239, 881 453.799 C 881 453.360, 881.628 453, 882.395 453 C 883.162 453, 884.850 451.883, 886.145 450.517 C 887.440 449.152, 889.288 448.027, 890.250 448.017 C 891.212 448.008, 892 447.550, 892 447 C 892 445.690, 895.709 442, 897.025 442 C 897.588 442, 898.477 440.875, 899 439.500 C 899.523 438.125, 900.444 437, 901.047 437 C 902.460 437, 904.422 435.001, 905.311 432.655 C 905.696 431.640, 906.908 430.575, 908.005 430.288 C 909.102 430.001, 910 429.149, 910 428.395 C 910 427.640, 910.788 426.080, 911.750 424.927 C 912.712 423.775, 914.288 421.901, 915.250 420.763 C 916.212 419.625, 917 418.088, 917 417.347 C 917 416.606, 917.337 415.996, 917.750 415.992 C 918.648 415.983, 921 411.140, 921 409.301 C 921 408.585, 921.415 408, 921.922 408 C 922.430 408, 923.365 406.425, 924 404.500 C 924.635 402.575, 925.519 401, 925.964 401 C 926.409 401, 927.093 398.863, 927.484 396.250 C 927.876 393.637, 928.581 391.261, 929.051 390.970 C 929.522 390.678, 930.480 387.416, 931.181 383.720 C 931.882 380.024, 932.803 377, 933.228 377 C 933.653 377, 934 368.900, 934 359 C 934 349.100, 933.653 341, 933.228 341 C 932.803 341, 931.882 337.976, 931.181 334.280 C 930.480 330.584, 929.545 327.322, 929.103 327.030 C 928.661 326.739, 928.052 324.600, 927.749 322.277 C 927.446 319.955, 926.515 317.372, 925.681 316.538 C 924.846 315.703, 923.866 313.666, 923.502 312.010 C 923.139 310.355, 922.463 309, 922 309 C 921.537 309, 920.877 307.715, 920.532 306.145 C 919.924 303.377, 918.987 301.894, 914.251 296.203 C 913.014 294.716, 912.002 292.938, 912.001 292.250 C 912.001 291.563, 911.550 291, 911 291 C 910.450 291, 910 290.325, 910 289.500 C 910 288.675, 909.325 288, 908.500 288 C 907.675 288, 907 287.481, 907 286.847 C 907 285.409, 891.565 270, 890.125 270 C 889.545 270, 888.592 269.105, 888.006 268.012 C 887.421 266.918, 885.784 265.733, 884.368 265.378 C 882.953 265.022, 880.475 263.442, 878.863 261.866 C 877.250 260.290, 874.890 259, 873.619 259 C 872.347 259, 870.260 258.093, 868.982 256.984 C 867.704 255.876, 864.935 254.693, 862.829 254.357 C 860.723 254.020, 859 253.391, 859 252.960 C 859 252.529, 857.200 251.872, 855 251.500 C 852.800 251.128, 851 250.504, 851 250.112 C 851 247.287, 805.575 245.779, 795.250 248.262 M 815.775 342.368 C 815.022 343.121, 813.415 344.051, 812.203 344.435 C 810.992 344.820, 810 345.524, 810 346 C 810 346.476, 809.100 347.151, 808 347.500 C 806.900 347.849, 806 348.764, 806 349.532 C 806 350.301, 805.153 351.383, 804.119 351.936 C 800.712 353.760, 800.617 374, 804.015 374 C 804.483 374, 805.151 374.900, 805.500 376 C 805.849 377.100, 806.731 378, 807.460 378 C 808.189 378, 809.036 378.650, 809.340 379.445 C 809.645 380.239, 811.494 381.190, 813.447 381.556 C 815.401 381.923, 817 382.623, 817 383.111 C 817 383.600, 819.475 384, 822.500 384 C 825.525 384, 828 383.660, 828 383.243 C 828 382.827, 829.773 381.933, 831.941 381.257 C 836.505 379.833, 840.710 376.004, 841.598 372.465 C 841.938 371.109, 842.618 370, 843.108 370 C 843.599 370, 844 366.625, 844 362.500 C 844 358.167, 843.578 355, 843 355 C 842.450 355, 842 354.145, 842 353.100 C 842 351.153, 835.577 344, 833.829 344 C 833.294 344, 832.182 343.325, 831.357 342.500 C 829.379 340.522, 817.720 340.423, 815.775 342.368 M 815.511 350.557 C 810.198 354.162, 809.433 355.085, 808.696 358.772 C 807.898 362.758, 808.935 371.158, 810.133 370.418 C 810.610 370.123, 811 370.543, 811 371.352 C 811 374.787, 822.094 378.055, 827.185 376.120 C 828.458 375.636, 829.837 375.186, 830.250 375.120 C 830.663 375.054, 831.866 374.134, 832.924 373.076 C 845.072 360.928, 829.639 340.970, 815.511 350.557" stroke="none" fill="#ffffff" fill-rule="evenodd"/></svg>