<svg xmlns="http://www.w3.org/2000/svg" width="1280" height="1280" viewBox="0 0 1280 1280" version="1.1"><path d="M 600 548.488 C 543.043 561.771, 533.953 638.335, 586.302 663.857 C 614.589 677.648, 649.866 668.068, 665.425 642.370 C 694.187 594.865, 653.218 536.076, 600 548.488" stroke="none" fill="#00ffdd" fill-rule="evenodd"/><path d="M 600.999 115.250 C 600.999 115.662, 599.737 116, 598.193 116 C 595.213 116, 578.434 122.224, 570.341 126.331 C 564.997 129.043, 549.771 140.992, 544.268 146.792 C 538.178 153.211, 527.558 165.321, 523.915 170 C 518.380 177.107, 511 187.779, 510.997 188.679 C 510.995 189.131, 508.051 194.225, 504.455 200 C 500.859 205.775, 496.991 212.525, 495.859 215 C 494.727 217.475, 490.642 226.025, 486.782 234 C 482.921 241.975, 478.962 250.750, 477.985 253.500 C 477.008 256.250, 475.187 261.345, 473.937 264.823 C 469.629 276.812, 467.707 275.768, 525 292.547 C 536.038 295.779, 553.639 302.138, 576 310.973 C 581.775 313.255, 591.450 316.980, 597.500 319.252 C 603.550 321.524, 608.629 323.682, 608.786 324.048 C 609.407 325.497, 620.193 322.569, 633.500 317.339 C 666.059 304.541, 674.362 301.492, 692.500 295.669 C 716.803 287.868, 736.271 281.883, 743.132 280.104 C 756.884 276.539, 757.994 273.107, 750.582 257.063 C 748.153 251.804, 744.758 244.065, 743.038 239.867 C 741.318 235.669, 738.384 229.698, 736.517 226.598 C 734.650 223.497, 732.842 220.077, 732.499 218.996 C 726.514 200.141, 685.945 146.540, 670 136.421 C 667.525 134.850, 664.266 132.570, 662.758 131.354 C 650.011 121.075, 600.987 108.291, 600.999 115.250 M 969.607 653.907 C 964.233 658.428, 945.043 675.824, 942 678.934 C 930.271 690.921, 906.556 712.034, 888.009 727 C 855.503 753.231, 859.597 745.926, 852.421 790.500 C 846.696 826.063, 843.829 840.468, 836.994 868 C 830.110 895.729, 830.144 900.316, 837.242 901.407 C 879.421 907.890, 949.280 908.507, 959.027 902.483 C 959.400 902.253, 963.035 901.551, 967.103 900.924 C 999.840 895.880, 1037.263 871.417, 1043.480 851 C 1043.899 849.625, 1045.258 846.025, 1046.502 843 C 1054.860 822.663, 1050.332 771.612, 1038.561 753.472 C 1037.837 752.356, 1035.867 748.003, 1034.183 743.799 C 1032.500 739.595, 1029.223 732.858, 1026.901 728.827 C 1024.579 724.797, 1020.741 717.962, 1018.372 713.637 C 1016.004 709.313, 1013.009 704.363, 1011.718 702.637 C 1010.427 700.912, 1007.617 696.575, 1005.474 693 C 1003.331 689.425, 997.338 680.875, 992.156 674 C 977.295 654.284, 973.344 650.763, 969.607 653.907 M 247.341 657.250 C 245.663 659.038, 242.885 662.525, 241.167 665 C 237.075 670.896, 228.976 681.364, 228.015 682 C 226.978 682.685, 213.073 704.614, 212.310 706.767 C 211.972 707.720, 211.068 709.235, 210.300 710.132 C 208.510 712.224, 192.256 742.574, 191.422 745.380 C 191.076 746.546, 189.245 750.974, 187.354 755.220 C 176.624 779.308, 172.490 827.255, 179.889 841.790 C 180.927 843.831, 182.332 847.357, 183.010 849.626 C 190.269 873.927, 226.124 896.470, 269 903.690 C 274.225 904.570, 278.725 905.571, 279 905.915 C 281.138 908.585, 355.672 906.625, 373 903.443 C 377.675 902.584, 383.833 901.538, 386.685 901.117 C 396.240 899.708, 396.630 898.024, 391.969 878.316 C 390.301 871.267, 388.303 862.337, 387.528 858.470 C 386.752 854.604, 385.631 850.158, 385.035 848.592 C 383.443 844.405, 379.293 824.667, 377.513 812.814 C 368.429 752.338, 368.510 752.822, 367.029 750.054 C 366.024 748.177, 362.561 745.189, 341.118 727.704 C 337.608 724.842, 332.818 720.925, 330.473 719 C 328.129 717.075, 323.378 713.250, 319.916 710.500 C 311.748 704.011, 294.606 688.720, 279.500 674.448 C 272.900 668.212, 265.700 661.810, 263.500 660.222 C 261.300 658.633, 258.882 656.583, 258.128 655.667 C 255.797 652.837, 250.795 653.571, 247.341 657.250" stroke="none" fill="#95ff00" fill-rule="evenodd"/><path d="M 287.500 311.202 C 284.200 311.703, 276.878 312.769, 271.230 313.570 C 226.246 319.949, 195.332 339.179, 182.303 368.885 C 180.949 371.973, 179.435 375.400, 178.939 376.500 C 174.860 385.551, 175.445 419.597, 179.952 435.500 C 182.561 444.707, 189.195 464.923, 190.452 467.500 C 191.256 469.150, 193.571 474.325, 195.596 479 C 199.432 487.857, 211.068 509.295, 217.950 520.184 C 222.021 526.626, 225.141 531.147, 230.528 538.415 C 232.194 540.662, 236.129 546.165, 239.273 550.645 C 242.417 555.124, 246.454 560.324, 248.245 562.199 C 250.035 564.075, 256 570.965, 261.500 577.511 C 276.056 594.835, 310.559 631.018, 322.870 641.869 C 364.704 678.743, 360.533 681.358, 360.159 618.500 C 359.826 562.352, 360.809 538.709, 365.566 488.500 C 367.791 465.006, 368.842 456.641, 370.966 445.500 C 373.105 434.285, 376.723 412.604, 377.976 403.500 C 379.092 395.386, 382.586 378.714, 384.550 372.123 C 391.080 350.218, 395.924 321.646, 393.639 318.521 C 389.696 313.128, 310.684 307.680, 287.500 311.202 M 886.500 311.038 C 864.306 311.906, 860.371 312.390, 821.500 319.038 C 815.450 320.073, 808.250 321.209, 805.500 321.564 C 802.750 321.918, 794.388 323.737, 786.918 325.604 C 779.448 327.472, 772.698 328.997, 771.918 328.993 C 771.138 328.990, 766.450 330.074, 761.500 331.402 C 733.342 338.958, 728.044 340.479, 723.500 342.311 C 720.750 343.420, 711.794 346.624, 703.598 349.431 C 682.036 356.815, 682.056 357.277, 704.465 369.463 C 724.074 380.127, 736.986 387.374, 745.667 392.592 C 769.760 407.072, 784.186 415.852, 790 419.577 C 793.575 421.867, 798.750 424.935, 801.500 426.395 C 804.250 427.854, 808.975 431.080, 812 433.563 C 815.025 436.046, 820.425 440.076, 824 442.518 C 832.688 448.453, 849.122 460.257, 867.544 473.794 C 870.318 475.832, 880.668 484.263, 890.544 492.529 C 900.420 500.795, 911.658 510.068, 915.518 513.137 C 919.378 516.205, 928.603 524.532, 936.018 531.641 C 976.105 570.074, 973.482 568.833, 983.788 554.235 C 986.380 550.564, 990.309 545.522, 992.519 543.031 C 996.396 538.662, 998.834 535.126, 1011.599 515.366 C 1024.661 495.147, 1030.119 485.276, 1038.648 466.449 C 1050.965 439.261, 1055.156 398.254, 1047.831 376.603 C 1034.528 337.287, 996.678 315.923, 932.500 311.504 C 920.950 310.708, 909.925 310.120, 908 310.196 C 906.075 310.272, 896.400 310.651, 886.500 311.038 M 784.919 801.347 C 773.542 807.387, 764.028 812.907, 759.014 816.376 C 755.996 818.463, 752.171 820.814, 750.514 821.600 C 748.856 822.387, 744.125 825.059, 740 827.538 C 735.875 830.018, 727.325 834.722, 721 837.993 C 709.327 844.028, 704.085 846.893, 684.627 857.867 C 678.647 861.240, 673.546 864, 673.291 864 C 673.037 864, 670.055 865.314, 666.664 866.919 C 644.985 877.185, 619.290 889, 618.643 889 C 618.222 889, 614.082 890.787, 609.443 892.970 C 604.803 895.154, 597.068 898.331, 592.254 900.030 C 583.603 903.082, 560.193 912.105, 550.500 916.123 C 542.807 919.312, 532.799 922.452, 490.582 934.928 C 469.859 941.051, 469.222 941.832, 474.590 954.500 C 475.989 957.800, 477.990 962.894, 479.037 965.820 C 484.632 981.456, 515.053 1036.597, 522.996 1045.500 C 524.959 1047.700, 527.783 1051.300, 529.273 1053.500 C 561.411 1100.969, 622.744 1116.001, 663.500 1086.396 C 675.841 1077.432, 678.356 1075.279, 687.056 1066.229 C 695.161 1057.797, 698.067 1054.306, 707.559 1041.596 C 713.562 1033.559, 725.996 1011.220, 734.052 994 C 738.555 984.375, 743.613 973.575, 745.294 970 C 746.974 966.425, 750.248 958.325, 752.569 952 C 754.890 945.675, 758.206 936.900, 759.939 932.500 C 768.802 909.993, 784.181 853.783, 790.084 822.325 C 791.134 816.728, 792.444 810.961, 792.996 809.509 C 794.544 805.438, 794.245 800.308, 792.418 799.607 C 790.080 798.710, 789.734 798.790, 784.919 801.347" stroke="none" fill="#00fe81" fill-rule="evenodd"/><path d="M 596.500 60.933 C 586.484 61.756, 586.269 61.808, 573.195 66.637 C 559.492 71.698, 553.571 74.476, 546.152 79.322 C 542.493 81.712, 537.053 85.140, 534.062 86.940 C 525.946 91.824, 507.857 107.569, 500.764 115.922 C 489.053 129.713, 472.204 150.949, 469.484 155.345 C 467.843 157.997, 465.325 161.592, 463.889 163.334 C 462.452 165.075, 460.473 168.075, 459.490 170 C 458.508 171.925, 456.697 174.850, 455.466 176.500 C 454.236 178.150, 450.960 184.070, 448.187 189.655 C 445.414 195.240, 442.073 201.540, 440.763 203.655 C 435.874 211.546, 430.205 224.435, 419.940 251 C 415.365 262.841, 413.255 263.568, 392.500 260.467 C 357.680 255.263, 295.192 253.605, 274.500 257.336 C 241.864 263.220, 229.245 266.730, 205 276.670 C 165.781 292.749, 130.096 333.280, 124.094 368.563 C 123.539 371.828, 122.600 377.200, 122.009 380.500 C 117.358 406.450, 121.402 439.746, 132.936 470.452 C 135.040 476.052, 137.095 482.179, 137.503 484.067 C 138.506 488.710, 154.878 521.299, 161.835 532.500 C 163.542 535.250, 166.043 539.525, 167.391 542 C 168.739 544.475, 171.003 548.050, 172.421 549.944 C 173.839 551.839, 175 553.927, 175 554.586 C 175 555.245, 176.368 557.520, 178.041 559.642 C 181.387 563.887, 191.645 577.634, 196.767 584.737 C 198.564 587.229, 202.214 591.795, 204.878 594.884 C 213.344 604.700, 214.617 609.024, 210.692 614.634 C 208.569 617.670, 195.265 635.146, 187.077 645.653 C 184.869 648.488, 181.646 653.213, 179.915 656.153 C 178.184 659.094, 174.995 663.975, 172.828 667 C 165.070 677.831, 161.608 683.737, 153.482 700 C 142.684 721.612, 139.145 729.327, 136.970 736 C 135.984 739.025, 133.414 746.450, 131.258 752.500 C 127.626 762.697, 126.633 766.933, 122.505 789.860 C 120.530 800.830, 120.480 828.150, 122.419 837 C 123.202 840.575, 124.524 846.954, 125.357 851.176 C 126.190 855.397, 127.985 861.247, 129.347 864.176 C 130.709 867.104, 133.241 872.875, 134.973 877 C 136.705 881.125, 138.903 885.400, 139.856 886.500 C 140.809 887.600, 143.552 891.425, 145.952 895 C 157.436 912.111, 183.240 932.129, 205.500 941.196 C 223.600 948.569, 250.520 956.516, 254.692 955.719 C 255.923 955.483, 257.058 955.665, 257.215 956.122 C 258.305 959.301, 310.401 962.211, 343 960.912 C 365.365 960.021, 370.198 959.582, 395.953 956.095 C 416.282 953.342, 415.756 952.900, 426.120 981.500 C 431.772 997.099, 451.056 1033.876, 463.874 1053.500 C 467.107 1058.450, 470.881 1064.322, 472.261 1066.548 C 514.174 1134.174, 588.356 1170.402, 648 1152.375 C 656.596 1149.777, 674.532 1142.561, 676.652 1140.849 C 677.285 1140.337, 681.648 1137.574, 686.346 1134.709 C 699.416 1126.739, 723.738 1105.426, 734.514 1092.500 C 739.558 1086.450, 744.500 1080.825, 745.497 1080 C 747.409 1078.418, 754.250 1068.058, 762.537 1054.198 C 765.266 1049.632, 769.035 1043.332, 770.912 1040.198 C 776.160 1031.433, 780.684 1023.142, 784.116 1016 C 785.833 1012.425, 789.199 1005.450, 791.596 1000.500 C 793.992 995.550, 798.676 985.200, 802.006 977.500 C 812.507 953.215, 812.463 953.254, 826.500 955.562 C 842.029 958.115, 871.288 961.163, 877.109 960.833 C 880.351 960.650, 883.136 960.898, 883.297 961.384 C 883.706 962.620, 930.312 962.565, 930.724 961.329 C 930.903 960.792, 932.343 960.544, 933.925 960.776 C 967.675 965.729, 1039.516 938.753, 1066.679 910.927 C 1083.553 893.641, 1086.771 888.791, 1097.448 864.556 C 1109.624 836.919, 1108.275 791.105, 1094.045 749 C 1087.037 728.265, 1084.580 722.061, 1081.155 716.454 C 1079.490 713.729, 1075.137 705.425, 1071.481 698 C 1067.825 690.575, 1063.346 682.250, 1061.527 679.500 C 1059.708 676.750, 1056.033 671.165, 1053.360 667.090 C 1050.687 663.014, 1047.375 658.012, 1046 655.973 C 1044.625 653.935, 1042.220 650.348, 1040.655 648.002 C 1039.090 645.657, 1035.940 641.406, 1033.655 638.557 C 1010.326 609.467, 1010.284 609.315, 1021.531 595.503 C 1023.323 593.301, 1026.525 588.970, 1028.645 585.878 C 1030.765 582.785, 1034.522 577.610, 1036.994 574.378 C 1039.465 571.145, 1045.626 562.200, 1050.685 554.500 C 1055.743 546.800, 1060.843 539.263, 1062.017 537.751 C 1063.191 536.238, 1067.768 527.913, 1072.188 519.251 C 1076.608 510.588, 1081.490 501.025, 1083.035 498 C 1085.550 493.080, 1089.358 482.875, 1096.658 461.500 C 1097.973 457.650, 1099.751 450.450, 1100.610 445.500 C 1101.468 440.550, 1102.816 432.900, 1103.605 428.500 C 1112.787 377.290, 1090.631 318.927, 1052.393 293.596 C 1049.152 291.449, 1044.700 288.467, 1042.500 286.969 C 1022.482 273.341, 985.404 261.491, 948.825 257.033 C 931.885 254.968, 882.013 254.011, 881.990 255.750 C 881.985 256.163, 875.572 256.621, 867.740 256.769 C 859.908 256.916, 853.372 257.414, 853.215 257.873 C 853.058 258.333, 851.844 258.502, 850.517 258.248 C 849.190 257.994, 843.918 258.486, 838.802 259.340 C 815.558 263.221, 810.250 262.238, 808.475 253.723 C 808.106 251.950, 806.322 247.125, 804.511 243 C 802.701 238.875, 799.333 231, 797.028 225.500 C 792.366 214.377, 792.894 215.475, 783.546 197.500 C 770.208 171.851, 754.755 147.382, 745.337 137 C 742.095 133.425, 736.467 126.900, 732.831 122.500 C 726.011 114.247, 719.539 107.944, 704.592 95 C 696.682 88.150, 691.828 84.900, 680.500 78.869 C 678.300 77.697, 675.329 75.915, 673.899 74.907 C 659.847 65.013, 624.512 58.634, 596.500 60.933 M 600.999 115.250 C 600.999 115.662, 599.737 116, 598.193 116 C 595.213 116, 578.434 122.224, 570.341 126.331 C 564.997 129.043, 549.771 140.992, 544.268 146.792 C 538.178 153.211, 527.558 165.321, 523.915 170 C 518.380 177.107, 511 187.779, 510.997 188.679 C 510.995 189.131, 508.051 194.225, 504.455 200 C 500.859 205.775, 496.991 212.525, 495.859 215 C 494.727 217.475, 490.642 226.025, 486.782 234 C 482.921 241.975, 478.962 250.750, 477.985 253.500 C 477.008 256.250, 475.187 261.345, 473.937 264.823 C 469.629 276.812, 467.707 275.768, 525 292.547 C 536.038 295.779, 553.639 302.138, 576 310.973 C 581.775 313.255, 591.450 316.980, 597.500 319.252 C 603.550 321.524, 608.629 323.682, 608.786 324.048 C 609.407 325.497, 620.193 322.569, 633.500 317.339 C 666.059 304.541, 674.362 301.492, 692.500 295.669 C 716.803 287.868, 736.271 281.883, 743.132 280.104 C 756.884 276.539, 757.994 273.107, 750.582 257.063 C 748.153 251.804, 744.758 244.065, 743.038 239.867 C 741.318 235.669, 738.384 229.698, 736.517 226.598 C 734.650 223.497, 732.842 220.077, 732.499 218.996 C 726.514 200.141, 685.945 146.540, 670 136.421 C 667.525 134.850, 664.266 132.570, 662.758 131.354 C 650.011 121.075, 600.987 108.291, 600.999 115.250 M 314 310.127 C 240.330 312.094, 199.153 330.466, 182.303 368.885 C 180.949 371.973, 179.435 375.400, 178.939 376.500 C 174.860 385.551, 175.445 419.597, 179.952 435.500 C 182.561 444.707, 189.195 464.923, 190.452 467.500 C 191.256 469.150, 193.571 474.325, 195.596 479 C 199.432 487.857, 211.068 509.295, 217.950 520.184 C 222.021 526.626, 225.141 531.147, 230.528 538.415 C 232.194 540.662, 236.129 546.165, 239.273 550.645 C 242.417 555.124, 246.454 560.324, 248.245 562.199 C 250.035 564.075, 256 570.965, 261.500 577.511 C 299.385 622.599, 356.446 675.337, 359.580 668.159 C 359.978 667.247, 360.208 644.900, 360.089 618.500 C 359.837 562.138, 360.836 538.430, 365.566 488.500 C 367.791 465.006, 368.842 456.641, 370.966 445.500 C 373.105 434.285, 376.723 412.604, 377.976 403.500 C 379.092 395.386, 382.586 378.714, 384.550 372.123 C 391.082 350.208, 395.924 321.646, 393.637 318.518 C 392.117 316.440, 368.862 312.741, 349 311.418 C 343.225 311.033, 338.275 310.444, 338 310.109 C 337.725 309.774, 326.925 309.782, 314 310.127 M 886.500 311.038 C 864.306 311.906, 860.371 312.390, 821.500 319.038 C 815.450 320.073, 808.250 321.209, 805.500 321.564 C 802.750 321.918, 794.388 323.737, 786.918 325.604 C 779.448 327.472, 772.698 328.997, 771.918 328.993 C 771.138 328.990, 766.450 330.074, 761.500 331.402 C 733.342 338.958, 728.044 340.479, 723.500 342.311 C 720.750 343.420, 711.794 346.624, 703.598 349.431 C 682.036 356.815, 682.056 357.277, 704.465 369.463 C 724.074 380.127, 736.986 387.374, 745.667 392.592 C 769.760 407.072, 784.186 415.852, 790 419.577 C 793.575 421.867, 798.750 424.935, 801.500 426.395 C 804.250 427.854, 808.975 431.080, 812 433.563 C 815.025 436.046, 820.425 440.076, 824 442.518 C 832.688 448.453, 849.122 460.257, 867.544 473.794 C 870.318 475.832, 880.668 484.263, 890.544 492.529 C 900.420 500.795, 911.658 510.068, 915.518 513.137 C 919.378 516.205, 928.603 524.532, 936.018 531.641 C 949.587 544.650, 968.642 562.515, 970.500 563.970 C 972.621 565.630, 979.084 560.897, 983.782 554.244 C 986.377 550.568, 990.309 545.522, 992.519 543.031 C 996.396 538.662, 998.834 535.126, 1011.599 515.366 C 1024.661 495.147, 1030.119 485.276, 1038.648 466.449 C 1050.965 439.261, 1055.156 398.254, 1047.831 376.603 C 1034.528 337.287, 996.678 315.923, 932.500 311.504 C 920.950 310.708, 909.925 310.120, 908 310.196 C 906.075 310.272, 896.400 310.651, 886.500 311.038 M 452.455 333.455 C 451.105 334.805, 449.995 336.717, 449.988 337.705 C 449.982 338.692, 448.808 344, 447.380 349.500 C 445.951 355, 443.974 362.875, 442.984 367 C 441.995 371.125, 440.196 378.325, 438.986 383 C 436.564 392.355, 434.755 401.556, 432.500 416 C 431.684 421.225, 430.363 429.100, 429.565 433.500 C 424.413 461.917, 423.350 469.645, 420.971 496 C 419.854 508.375, 418.423 522.550, 417.790 527.500 C 416.201 539.929, 416.227 663.900, 417.821 677.130 C 418.460 682.426, 419.274 693.451, 419.631 701.630 C 420.479 721.050, 420.797 721.681, 434.206 730.574 C 439.868 734.329, 448.885 740.348, 454.244 743.950 C 465.901 751.785, 469.385 753.988, 480.227 760.372 C 484.777 763.052, 490.783 766.765, 493.573 768.622 C 496.363 770.480, 498.994 772, 499.419 772 C 501.515 772, 517.262 783.489, 520.292 787.229 C 532.835 802.714, 528.586 821.230, 510.565 829.622 C 499.934 834.572, 490.006 831.302, 465.838 814.890 C 462.688 812.751, 459.802 811, 459.426 811 C 459.050 811, 456.191 809.259, 453.073 807.130 C 436.516 795.828, 432.298 797.147, 435.398 812.656 C 436.261 816.970, 437.464 823.875, 438.073 828 C 438.681 832.125, 440.497 840.450, 442.109 846.500 C 443.720 852.550, 445.931 861.550, 447.022 866.500 C 450.361 881.656, 451.122 883.904, 453.122 884.539 C 454.155 884.867, 455 885.442, 455 885.817 C 455 886.193, 456.125 886.500, 457.500 886.500 C 458.875 886.500, 460 886.163, 460 885.750 C 460 885.337, 460.563 884.995, 461.250 884.990 C 461.938 884.984, 471.500 882.256, 482.500 878.928 C 493.500 875.600, 507 871.574, 512.500 869.981 C 518 868.388, 530.150 864.105, 539.500 860.463 C 548.850 856.821, 561.900 851.896, 568.500 849.519 C 581.525 844.827, 601.136 836.748, 604.439 834.712 C 605.573 834.014, 609.200 832.400, 612.500 831.126 C 625.190 826.225, 655.190 811.936, 676 800.882 C 681.225 798.106, 690.225 793.330, 696 790.267 C 701.775 787.205, 709.425 783.147, 713 781.251 C 716.575 779.354, 720.850 776.806, 722.500 775.588 C 724.150 774.371, 731.800 769.601, 739.500 764.989 C 756.731 754.668, 765.027 749.332, 775.968 741.535 C 780.626 738.216, 785.871 734.600, 787.624 733.500 C 805.378 722.358, 805.787 721.747, 807.494 703.827 C 810.547 671.773, 811.065 663.616, 811.574 639.590 C 812.484 596.571, 815.644 588.636, 834.160 582.873 C 857.637 575.566, 867.439 590.941, 866.754 634 C 866.196 669.056, 866.993 672.885, 873.728 667.500 C 896.088 649.622, 934.550 610.653, 933.261 607.184 C 932.145 604.182, 926.955 598.308, 922.676 595.202 C 920.379 593.536, 911.300 585.046, 902.500 576.336 C 893.700 567.626, 884.782 559.150, 882.683 557.500 C 880.583 555.850, 877.151 553.150, 875.056 551.500 C 872.961 549.850, 864.554 543.076, 856.374 536.448 C 839.991 523.173, 813.010 502.603, 809.645 500.823 C 808.465 500.200, 804.350 497.296, 800.500 494.371 C 787.454 484.460, 782.512 480.873, 777.500 477.679 C 774.750 475.926, 770.520 473.031, 768.100 471.246 C 765.680 469.461, 763.265 468, 762.734 468 C 762.203 468, 759.683 466.496, 757.134 464.658 C 754.585 462.820, 751.667 461.017, 750.649 460.651 C 749.632 460.285, 747.607 459.065, 746.149 457.940 C 741.326 454.216, 728.679 446.400, 715.500 438.999 C 708.350 434.984, 700.531 430.529, 698.124 429.100 C 672.344 413.787, 618.767 387.774, 612.826 387.686 C 605.599 387.578, 554.467 412.660, 531.272 427.690 C 505.561 444.351, 487.403 443.194, 476.263 424.186 C 467.358 408.990, 474.653 396.255, 500.500 381.881 C 506.550 378.516, 515.074 373.735, 519.443 371.256 C 523.811 368.777, 528.986 365.858, 530.943 364.768 C 538.451 360.586, 539.246 356.550, 533 354.324 C 531.075 353.638, 523.650 350.975, 516.500 348.407 C 509.350 345.839, 500.575 342.951, 497 341.990 C 493.425 341.029, 483.689 338.163, 475.365 335.621 C 457.934 330.299, 455.811 330.098, 452.455 333.455 M 606.990 491.750 C 606.985 492.163, 603.497 492.587, 599.240 492.693 C 589.559 492.935, 575.042 497.202, 562.500 503.493 C 497.298 536.194, 476.177 616.014, 517.220 674.610 C 525.443 686.350, 528.969 690.529, 533.998 694.500 C 536.785 696.700, 541.007 700.105, 543.381 702.066 C 557.008 713.326, 589.173 726.133, 600.505 724.810 C 602.427 724.585, 604 724.761, 604 725.201 C 604 725.640, 607.342 726, 611.428 726 C 709.041 726, 765.188 615.711, 706.882 538.500 C 697.791 526.463, 693.775 522.717, 676.767 510.413 C 662.668 500.213, 628.440 489.315, 620.307 492.436 C 619.588 492.712, 619 492.501, 619 491.969 C 619 491.436, 616.300 491, 613 491 C 609.700 491, 606.996 491.337, 606.990 491.750 M 600 548.488 C 543.043 561.771, 533.953 638.335, 586.302 663.857 C 614.589 677.648, 649.866 668.068, 665.425 642.370 C 694.187 594.865, 653.218 536.076, 600 548.488 M 969.607 653.907 C 964.233 658.428, 945.043 675.824, 942 678.934 C 930.271 690.921, 906.556 712.034, 888.009 727 C 855.503 753.231, 859.597 745.926, 852.421 790.500 C 846.696 826.063, 843.829 840.468, 836.994 868 C 830.110 895.729, 830.144 900.316, 837.242 901.407 C 879.421 907.890, 949.280 908.507, 959.027 902.483 C 959.400 902.253, 963.035 901.551, 967.103 900.924 C 999.840 895.880, 1037.263 871.417, 1043.480 851 C 1043.899 849.625, 1045.258 846.025, 1046.502 843 C 1054.860 822.663, 1050.332 771.612, 1038.561 753.472 C 1037.837 752.356, 1035.867 748.003, 1034.183 743.799 C 1032.500 739.595, 1029.223 732.858, 1026.901 728.827 C 1024.579 724.797, 1020.741 717.962, 1018.372 713.637 C 1016.004 709.313, 1013.009 704.363, 1011.718 702.637 C 1010.427 700.912, 1007.617 696.575, 1005.474 693 C 1003.331 689.425, 997.338 680.875, 992.156 674 C 977.295 654.284, 973.344 650.763, 969.607 653.907 M 247.341 657.250 C 245.663 659.038, 242.885 662.525, 241.167 665 C 237.075 670.896, 228.976 681.364, 228.015 682 C 226.978 682.685, 213.073 704.614, 212.310 706.767 C 211.972 707.720, 211.068 709.235, 210.300 710.132 C 208.510 712.224, 192.256 742.574, 191.422 745.380 C 191.076 746.546, 189.245 750.974, 187.354 755.220 C 176.624 779.308, 172.490 827.255, 179.889 841.790 C 180.927 843.831, 182.332 847.357, 183.010 849.626 C 190.269 873.927, 226.124 896.470, 269 903.690 C 274.225 904.570, 278.725 905.571, 279 905.915 C 281.138 908.585, 355.672 906.625, 373 903.443 C 377.675 902.584, 383.833 901.538, 386.685 901.117 C 396.240 899.708, 396.630 898.024, 391.969 878.316 C 390.301 871.267, 388.303 862.337, 387.528 858.470 C 386.752 854.604, 385.631 850.158, 385.035 848.592 C 383.443 844.405, 379.293 824.667, 377.513 812.814 C 368.429 752.338, 368.510 752.822, 367.029 750.054 C 366.024 748.177, 362.561 745.189, 341.118 727.704 C 337.608 724.842, 332.818 720.925, 330.473 719 C 328.129 717.075, 323.378 713.250, 319.916 710.500 C 311.748 704.011, 294.606 688.720, 279.500 674.448 C 272.900 668.212, 265.700 661.810, 263.500 660.222 C 261.300 658.633, 258.882 656.583, 258.128 655.667 C 255.797 652.837, 250.795 653.571, 247.341 657.250 M 785.913 800.923 C 776.294 805.789, 764.637 812.486, 759.014 816.376 C 755.996 818.463, 752.171 820.814, 750.514 821.600 C 748.856 822.387, 744.125 825.059, 740 827.538 C 735.875 830.018, 727.325 834.722, 721 837.993 C 709.327 844.028, 704.085 846.893, 684.627 857.867 C 678.647 861.240, 673.546 864, 673.291 864 C 673.037 864, 670.055 865.314, 666.664 866.919 C 644.985 877.185, 619.290 889, 618.643 889 C 618.222 889, 614.082 890.787, 609.443 892.970 C 604.803 895.154, 597.068 898.331, 592.254 900.030 C 583.603 903.082, 560.193 912.105, 550.500 916.123 C 542.807 919.312, 532.799 922.452, 490.582 934.928 C 469.859 941.051, 469.222 941.832, 474.590 954.500 C 475.989 957.800, 477.990 962.894, 479.037 965.820 C 484.632 981.456, 515.053 1036.597, 522.996 1045.500 C 524.959 1047.700, 527.783 1051.300, 529.273 1053.500 C 561.411 1100.969, 622.744 1116.001, 663.500 1086.396 C 675.841 1077.432, 678.356 1075.279, 687.056 1066.229 C 695.161 1057.797, 698.067 1054.306, 707.559 1041.596 C 713.562 1033.559, 725.996 1011.220, 734.052 994 C 738.555 984.375, 743.613 973.575, 745.294 970 C 746.974 966.425, 750.248 958.325, 752.569 952 C 754.890 945.675, 758.206 936.900, 759.939 932.500 C 768.802 909.993, 784.181 853.783, 790.084 822.325 C 791.134 816.728, 792.444 810.961, 792.996 809.509 C 796.304 800.809, 793.311 797.180, 785.913 800.923" stroke="none" fill="#000000" fill-rule="evenodd"/></svg>