<svg xmlns="http://www.w3.org/2000/svg" width="1920" height="1080" viewBox="0 0 1920 1080" version="1.1"><path d="M 101.507 325.989 C 101.163 326.545, 99.568 327, 97.961 327 C 57.704 327, 48.513 399.591, 86.520 417.361 C 88.709 418.384, 91.281 419.622, 92.236 420.111 C 93.191 420.600, 94.852 421, 95.927 421 C 97.002 421, 98.160 421.450, 98.500 422 C 99.954 424.352, 275.646 423.255, 282.433 420.852 C 288.715 418.628, 292.112 416.775, 295.439 413.758 C 296.505 412.791, 297.720 412, 298.138 412 C 299.356 412, 307.552 399.965, 310.055 394.500 C 321.928 368.580, 307.196 334.273, 281 326.836 C 275.216 325.195, 102.502 324.379, 101.507 325.989 M 1063.500 325.942 C 1062.400 326.386, 1059.250 327.283, 1056.500 327.935 C 1045.853 330.459, 1034.815 340.573, 1028.315 353.759 C 1022.374 365.814, 1022.280 755, 1028.218 755 C 1028.648 755, 1029 755.684, 1029 756.520 C 1029 761.300, 1044.308 777.939, 1048.750 777.987 C 1049.438 777.994, 1050 778.430, 1050 778.955 C 1050 779.480, 1051.688 780.213, 1053.750 780.585 C 1055.813 780.957, 1057.950 781.601, 1058.500 782.018 C 1061.047 783.946, 1073.214 784.291, 1139.500 784.317 C 1210.976 784.345, 1220.854 783.968, 1239 780.518 C 1243.675 779.630, 1248.967 778.650, 1250.759 778.341 C 1252.552 778.032, 1254.266 777.379, 1254.568 776.890 C 1254.871 776.400, 1256.415 776, 1258 776 C 1259.585 776, 1261.134 775.592, 1261.442 775.094 C 1261.750 774.595, 1264.229 773.881, 1266.951 773.507 C 1275.131 772.382, 1275.087 770.800, 1266.762 766.615 C 1256.718 761.567, 1256.367 761.317, 1248.996 754 C 1239.981 745.052, 1236.429 739.766, 1233.540 731 C 1232.543 727.975, 1231.373 724.600, 1230.941 723.500 C 1228.430 717.111, 1228.437 697.804, 1230.953 691.500 C 1231.392 690.400, 1232.263 688.229, 1232.888 686.675 C 1234.545 682.559, 1230.615 679.848, 1227.450 682.923 C 1224.872 685.428, 1126.957 687.529, 1123.224 685.159 C 1121.368 683.982, 1121.889 360.711, 1123.750 358.850 C 1124.438 358.162, 1125 356.784, 1125 355.786 C 1125 354.789, 1125.399 353.191, 1125.888 352.236 C 1126.376 351.281, 1127.962 347.998, 1129.411 344.939 C 1130.861 341.880, 1134.512 336.409, 1137.524 332.780 C 1140.536 329.151, 1143 325.916, 1143 325.591 C 1143 324.683, 1065.775 325.024, 1063.500 325.942 M 1629.586 325.860 C 1629.294 326.334, 1627.027 326.999, 1624.549 327.338 C 1612.459 328.995, 1597.860 344.504, 1592.863 361 C 1585.872 384.078, 1605.710 421, 1625.101 421 C 1626.080 421, 1627.160 421.450, 1627.500 422 C 1628.420 423.489, 1841.994 423.367, 1845.703 421.875 C 1847.241 421.257, 1849.625 420.294, 1851 419.735 C 1864.098 414.414, 1873.077 404.784, 1880.331 388.278 C 1889.518 367.376, 1866.376 327, 1845.209 327 C 1843.509 327, 1841.840 326.550, 1841.500 326 C 1840.725 324.746, 1630.361 324.608, 1629.586 325.860" stroke="none" fill="#00fe81" fill-rule="evenodd"/><path d="M 726.997 325.805 C 726.996 326.187, 723.059 326.650, 718.247 326.834 C 713.436 327.017, 709.386 327.470, 709.248 327.841 C 709.109 328.211, 706.971 328.353, 704.498 328.156 C 701.547 327.922, 700 328.198, 700 328.958 C 700 329.596, 699.550 329.840, 699 329.500 C 698.450 329.160, 698 329.268, 698 329.740 C 698 330.212, 696.425 330.415, 694.500 330.190 C 692.575 329.965, 691 330.185, 691 330.678 C 691 331.171, 689.538 331.685, 687.750 331.819 C 685.962 331.953, 684.372 332.434, 684.215 332.886 C 684.058 333.339, 682.878 333.508, 681.591 333.262 C 680.304 333.016, 678.646 333.464, 677.905 334.256 C 677.165 335.049, 675.812 335.502, 674.899 335.263 C 673.986 335.024, 672.636 335.474, 671.899 336.263 C 671.162 337.052, 669.809 337.501, 668.892 337.262 C 667.976 337.022, 666.923 337.315, 666.554 337.913 C 666.184 338.511, 665.009 339, 663.941 339 C 662.873 339, 662 339.408, 662 339.906 C 662 340.405, 661.100 340.577, 660 340.290 C 658.621 339.929, 658 340.259, 658 341.352 C 658 342.350, 657.445 342.724, 656.500 342.362 C 655.675 342.045, 655 342.311, 655 342.952 C 655 343.593, 654.550 343.840, 654 343.500 C 653.450 343.160, 653 343.385, 653 344 C 653 344.615, 652.597 344.869, 652.104 344.564 C 651.611 344.260, 649.924 344.680, 648.354 345.499 C 646.784 346.318, 644.923 346.990, 644.219 346.994 C 643.514 346.997, 642.679 347.672, 642.364 348.494 C 642.048 349.316, 641.424 349.762, 640.976 349.485 C 640.528 349.208, 639.370 349.773, 638.402 350.741 C 637.434 351.708, 636.513 352.275, 636.354 352 C 636.195 351.725, 635.150 352.283, 634.032 353.240 C 632.915 354.197, 632 354.690, 632 354.335 C 632 353.980, 631.212 354.345, 630.250 355.145 C 629.288 355.945, 626.768 357.477, 624.651 358.550 C 622.534 359.622, 620.243 361.285, 619.561 362.244 C 618.879 363.203, 618.042 363.709, 617.703 363.369 C 617.363 363.029, 615.681 363.932, 613.966 365.376 C 612.250 366.819, 610.461 368, 609.991 368 C 609.520 368, 608.847 368.907, 608.495 370.015 C 608.144 371.123, 607.503 371.811, 607.071 371.544 C 606.639 371.277, 601.384 375.256, 595.393 380.386 C 560.342 410.400, 537.980 445.586, 524.142 492.500 C 519.982 506.603, 520.373 508.343, 526.419 502.641 C 528.389 500.784, 530 499.499, 530 499.787 C 530 500.075, 530.824 499.564, 531.831 498.653 C 532.838 497.741, 533.963 497.297, 534.331 497.664 C 534.699 498.032, 535 497.782, 535 497.108 C 535 496.434, 535.414 496.138, 535.919 496.450 C 536.425 496.763, 537.442 496.416, 538.178 495.679 C 538.915 494.942, 540.076 494.525, 540.759 494.753 C 541.442 494.981, 542 494.653, 542 494.024 C 542 493.396, 542.450 493.160, 543 493.500 C 543.550 493.840, 544 493.656, 544 493.090 C 544 492.525, 544.640 492.308, 545.422 492.608 C 546.204 492.908, 547.755 492.666, 548.869 492.070 C 549.983 491.474, 552.043 490.891, 553.447 490.775 C 554.851 490.659, 556 490.324, 556 490.032 C 556 489.739, 559.825 489.500, 564.500 489.500 C 569.175 489.500, 573 489.790, 573 490.145 C 573 490.729, 576.082 491.362, 583 492.198 C 584.375 492.364, 585.994 493.131, 586.598 493.903 C 587.202 494.674, 588.215 494.985, 588.848 494.594 C 589.482 494.202, 590 494.385, 590 495 C 590 495.615, 590.450 495.840, 591 495.500 C 591.550 495.160, 592 495.434, 592 496.108 C 592 496.782, 592.263 497.070, 592.585 496.749 C 592.906 496.427, 594.046 496.915, 595.117 497.832 C 596.188 498.749, 597.265 499.399, 597.509 499.276 C 597.753 499.152, 599.159 500.169, 600.633 501.536 C 602.107 502.902, 603.518 503.815, 603.768 503.565 C 604.018 503.315, 605.338 504.437, 606.702 506.058 C 608.066 507.679, 609.661 508.710, 610.246 508.348 C 610.831 507.987, 611.034 508.136, 610.698 508.680 C 610.362 509.224, 612.040 511.585, 614.427 513.928 C 616.813 516.270, 618.984 517.807, 619.250 517.344 C 619.516 516.880, 620.528 514.025, 621.499 511 C 622.470 507.975, 623.705 504.943, 624.244 504.263 C 624.783 503.582, 624.963 502.345, 624.643 501.513 C 624.324 500.681, 624.467 500, 624.961 500 C 625.455 500, 626.886 497.863, 628.139 495.250 C 631.764 487.699, 640.424 475.021, 646.413 468.500 C 649.444 465.200, 651.941 461.938, 651.962 461.250 C 651.983 460.563, 652.370 460.113, 652.821 460.250 C 653.593 460.485, 661.930 453.745, 668.134 447.872 C 669.661 446.426, 671.120 445.453, 671.377 445.710 C 671.767 446.100, 677.348 442.652, 679 441 C 679.275 440.725, 681.188 439.642, 683.250 438.593 C 685.313 437.543, 687 436.402, 687 436.055 C 687 435.709, 687.788 435.364, 688.750 435.289 C 691.566 435.069, 696 433.130, 696 432.118 C 696 431.606, 696.819 431.401, 697.820 431.663 C 698.821 431.925, 700.204 431.460, 700.893 430.629 C 701.582 429.798, 702.788 429.365, 703.573 429.666 C 704.358 429.968, 705 429.812, 705 429.320 C 705 428.828, 706.462 428.315, 708.250 428.181 C 710.038 428.047, 711.620 427.592, 711.766 427.171 C 711.912 426.750, 713.542 426.582, 715.388 426.797 C 717.376 427.029, 719.255 426.641, 719.997 425.844 C 720.850 424.928, 723.117 424.608, 727.124 424.839 C 730.356 425.025, 733 424.800, 733 424.339 C 733 423.385, 735.255 423.146, 744.500 423.121 C 753.338 423.097, 755 423.283, 755 424.300 C 755 424.779, 757.869 425.020, 761.376 424.835 C 765.792 424.603, 768.137 424.913, 769.002 425.843 C 769.772 426.670, 771.741 427.044, 774.126 426.817 C 776.257 426.613, 778 426.745, 778 427.110 C 778 427.741, 782.184 428.809, 786.500 429.281 C 787.600 429.402, 788.997 430.136, 789.605 430.912 C 790.213 431.689, 791.414 432.055, 792.273 431.726 C 793.188 431.374, 794.079 431.764, 794.426 432.667 C 794.758 433.532, 795.670 433.957, 796.508 433.635 C 797.329 433.320, 798 433.446, 798 433.915 C 798 434.641, 799.394 435.245, 802.773 435.984 C 803.173 436.071, 804.288 436.855, 805.250 437.726 C 806.212 438.597, 807.014 438.903, 807.030 438.405 C 807.047 437.907, 807.519 438.288, 808.080 439.250 C 808.641 440.212, 809.697 441, 810.427 441 C 811.158 441, 812.328 441.690, 813.028 442.533 C 813.728 443.377, 814.791 443.903, 815.390 443.703 C 815.989 443.504, 817.323 444.412, 818.354 445.723 C 819.385 447.033, 820.459 447.874, 820.742 447.591 C 821.876 446.457, 846.944 473.107, 852.262 481.101 C 881.445 524.965, 881.325 584.995, 851.967 628.146 C 849.855 631.252, 848.435 634.102, 848.813 634.480 C 849.191 634.858, 849.027 635.017, 848.448 634.833 C 847.870 634.650, 845.865 636.300, 843.993 638.500 C 838.801 644.601, 828.386 655.480, 827.566 655.659 C 827.165 655.747, 825.096 657.381, 822.968 659.292 C 820.840 661.202, 818.924 662.590, 818.710 662.376 C 818.496 662.163, 817.504 662.890, 816.506 663.994 C 815.507 665.097, 814.089 666, 813.353 666 C 812.618 666, 811.483 666.855, 810.830 667.900 C 810.178 668.945, 809.053 669.574, 808.330 669.296 C 807.608 669.019, 806.741 669.512, 806.404 670.391 C 806.066 671.269, 805.424 671.762, 804.976 671.485 C 804.528 671.208, 803.370 671.773, 802.402 672.741 C 801.434 673.708, 800.509 674.427, 800.344 674.338 C 799.554 673.908, 796 675.337, 796 676.085 C 796 676.554, 795.383 676.700, 794.629 676.411 C 793.875 676.122, 792.633 676.510, 791.870 677.273 C 791.107 678.036, 789.924 678.475, 789.241 678.247 C 788.558 678.019, 788 678.347, 788 678.976 C 788 679.604, 787.550 679.840, 787 679.500 C 786.450 679.160, 786 679.316, 786 679.847 C 786 680.378, 785.100 680.577, 784 680.290 C 782.900 680.002, 782 680.174, 782 680.671 C 782 681.168, 780.555 681.685, 778.789 681.819 C 777.023 681.954, 775.336 682.414, 775.039 682.842 C 774.743 683.269, 772.250 683.742, 769.500 683.892 C 766.750 684.042, 764.388 684.466, 764.250 684.833 C 763.955 685.620, 724.005 685.338, 723.209 684.543 C 722.911 684.244, 720.717 684, 718.333 684 C 715.950 684, 714 683.550, 714 683 C 714 682.450, 712.425 682, 710.500 682 C 708.575 682, 707 681.498, 707 680.883 C 707 680.269, 706.199 679.976, 705.220 680.232 C 704.242 680.488, 702.838 680.052, 702.101 679.263 C 701.364 678.474, 699.944 678.043, 698.945 678.304 C 697.906 678.576, 696.884 678.140, 696.556 677.286 C 696.238 676.458, 695.319 676.048, 694.492 676.365 C 693.671 676.680, 693 676.550, 693 676.077 C 693 675.231, 688.216 673.515, 686.750 673.836 C 686.337 673.926, 686 673.523, 686 672.941 C 686 672.359, 685.550 672.160, 685 672.500 C 684.450 672.840, 684 672.615, 684 672 C 684 671.385, 683.550 671.160, 683 671.500 C 682.450 671.840, 682 671.641, 682 671.059 C 682 670.477, 681.363 670, 680.583 670 C 679.804 670, 679.017 669.663, 678.833 669.250 C 678.062 667.513, 671.858 663.965, 670.729 664.615 C 670.053 665.003, 669.808 664.978, 670.184 664.560 C 670.560 664.141, 666.373 660.180, 660.879 655.757 C 643.371 641.660, 623.202 612.196, 620.431 596.670 C 619.593 591.974, 617.448 590.916, 615.219 594.098 C 612.521 597.950, 604.203 606.870, 603.741 606.408 C 603.506 606.173, 602.005 607.192, 600.407 608.674 C 598.808 610.156, 597.275 611.290, 597 611.196 C 595.917 610.823, 593 612.188, 593 613.067 C 593 613.580, 592.100 614, 591 614 C 589.900 614, 589 614.436, 589 614.969 C 589 615.501, 588.319 615.676, 587.487 615.357 C 586.655 615.037, 585.249 615.378, 584.362 616.114 C 583.475 616.850, 581.456 617.317, 579.875 617.151 C 578.294 616.985, 577 617.221, 577 617.675 C 577 618.129, 571.150 618.500, 564 618.500 C 556.850 618.500, 551 618.130, 551 617.678 C 551 617.227, 549.938 616.996, 548.639 617.166 C 547.340 617.336, 545.543 616.866, 544.644 616.120 C 543.746 615.374, 542.207 614.974, 541.226 615.231 C 540.244 615.487, 538.865 615.081, 538.161 614.327 C 537.456 613.573, 536.457 613.218, 535.940 613.537 C 535.423 613.857, 535 613.653, 535 613.085 C 535 612.094, 529.387 608.672, 528.678 609.230 C 528.489 609.378, 527.165 608.150, 525.737 606.500 C 518.724 598.401, 521.082 611.656, 531.606 639.500 C 540.707 663.578, 555.205 687.078, 573.450 707.323 C 582.816 717.716, 605.508 738.296, 608.684 739.276 C 609.083 739.399, 610.446 740.537, 611.713 741.804 C 612.980 743.071, 614.440 743.846, 614.958 743.526 C 615.476 743.206, 616.395 743.869, 617 745 C 617.605 746.131, 618.481 746.821, 618.945 746.534 C 619.410 746.247, 620.059 746.712, 620.388 747.569 C 620.717 748.426, 621.392 748.876, 621.888 748.569 C 622.384 748.262, 623.059 748.712, 623.388 749.569 C 623.717 750.426, 624.439 750.847, 624.993 750.504 C 625.547 750.162, 626 750.385, 626 751 C 626 751.615, 626.403 751.869, 626.895 751.565 C 627.388 751.260, 628.066 751.731, 628.404 752.609 C 628.751 753.514, 629.659 753.961, 630.496 753.640 C 631.348 753.313, 631.875 753.587, 631.738 754.286 C 631.607 754.954, 632.288 755.438, 633.250 755.361 C 634.212 755.285, 635 755.578, 635 756.012 C 635 757.230, 642.034 761.097, 643.077 760.453 C 643.585 760.139, 644 760.434, 644 761.108 C 644 761.782, 644.279 762.055, 644.619 761.714 C 644.960 761.374, 645.896 761.753, 646.700 762.557 C 647.504 763.361, 648.575 763.763, 649.081 763.450 C 649.586 763.138, 650 763.407, 650 764.048 C 650 764.689, 650.675 764.955, 651.500 764.638 C 652.325 764.322, 653 764.547, 653 765.138 C 653 765.730, 653.675 765.955, 654.500 765.638 C 655.445 765.276, 656 765.650, 656 766.648 C 656 767.723, 656.623 768.070, 657.935 767.727 C 659.101 767.422, 660.100 767.818, 660.448 768.724 C 660.802 769.647, 661.792 770.026, 663.012 769.707 C 664.105 769.421, 665 769.622, 665 770.153 C 665 770.684, 665.450 770.840, 666 770.500 C 666.550 770.160, 667 770.323, 667 770.862 C 667 771.400, 668.462 772.154, 670.250 772.536 C 672.038 772.918, 674.060 773.682, 674.745 774.233 C 675.429 774.785, 676.892 775, 677.995 774.712 C 679.098 774.423, 680 774.491, 680 774.863 C 680 775.860, 696.438 780.221, 698.730 779.833 C 699.810 779.650, 701.426 780.109, 702.322 780.853 C 703.337 781.695, 705.658 782.069, 708.474 781.846 C 710.961 781.648, 713.109 781.787, 713.248 782.155 C 713.386 782.523, 717.886 782.976, 723.246 783.162 C 728.607 783.348, 732.994 783.803, 732.996 784.173 C 732.998 784.543, 737.725 784.846, 743.500 784.846 C 749.275 784.846, 754 784.543, 754 784.173 C 754 783.803, 755.913 783.471, 758.250 783.436 C 767.213 783.300, 775 782.676, 775 782.093 C 775 781.759, 777.036 781.647, 779.524 781.845 C 782.092 782.050, 784.670 781.689, 785.486 781.012 C 786.277 780.355, 789.285 779.691, 792.170 779.535 C 795.055 779.380, 797.576 778.771, 797.772 778.183 C 797.969 777.594, 798.775 777.360, 799.565 777.663 C 800.354 777.966, 801.001 777.828, 801.002 777.357 C 801.003 776.886, 802.462 776.397, 804.245 776.271 C 806.027 776.145, 807.617 775.648, 807.778 775.167 C 807.938 774.685, 809.173 774.502, 810.522 774.760 C 812.114 775.064, 813.178 774.700, 813.552 773.725 C 813.879 772.873, 814.904 772.424, 815.916 772.688 C 816.898 772.945, 818.390 772.467, 819.232 771.625 C 820.073 770.784, 820.968 770.301, 821.219 770.552 C 821.900 771.233, 828 768.934, 828 767.996 C 828 767.551, 828.895 767.421, 829.988 767.707 C 831.247 768.036, 832.202 767.637, 832.593 766.619 C 832.932 765.735, 833.554 765.225, 833.976 765.485 C 835.086 766.171, 844.092 761.426, 843.260 760.593 C 842.876 760.209, 843.263 760.164, 844.120 760.493 C 844.978 760.822, 846.253 760.400, 846.953 759.557 C 847.654 758.713, 848.629 758.271, 849.120 758.574 C 849.612 758.878, 850.273 758.452, 850.590 757.627 C 850.906 756.801, 851.707 756.334, 852.368 756.588 C 853.029 756.841, 854.472 756.251, 855.574 755.275 C 856.676 754.299, 858.142 753.381, 858.831 753.236 C 860.982 752.783, 868 748.024, 868 747.019 C 868 746.493, 868.621 746.301, 869.380 746.592 C 870.143 746.885, 871.707 745.917, 872.880 744.426 C 874.046 742.943, 875.015 742.128, 875.033 742.615 C 875.052 743.102, 875.855 742.600, 876.818 741.500 C 877.782 740.400, 879.167 739.371, 879.896 739.213 C 886.274 737.832, 918.604 705.383, 929.921 689.004 C 935.465 680.980, 937.859 677.261, 940.223 673 C 941.595 670.525, 944.040 666.250, 945.654 663.500 C 965.631 629.477, 976.476 575.785, 971.973 533.211 C 970.202 516.474, 967.462 500.654, 965.007 493 C 964.566 491.625, 963.450 487.800, 962.526 484.500 C 961.603 481.200, 960.482 477.600, 960.035 476.500 C 951.878 456.408, 947.766 448.069, 939.293 434.442 C 938.629 433.374, 936.868 430.475, 935.381 428 C 925.231 411.115, 887.306 370.313, 884.109 372.840 C 883.873 373.026, 883.274 372.454, 882.778 371.569 C 882.283 370.683, 881.455 370.219, 880.939 370.538 C 880.422 370.857, 880 370.680, 880 370.146 C 880 368.857, 871.909 362.938, 870.954 363.528 C 870.545 363.781, 869.949 363.309, 869.630 362.479 C 869.110 361.123, 865.850 359.325, 863.659 359.186 C 863.196 359.157, 862.296 358.458, 861.659 357.633 C 860.159 355.692, 850.995 350.885, 849.985 351.510 C 849.558 351.773, 848.941 351.288, 848.612 350.431 C 848.283 349.574, 847.608 349.124, 847.112 349.431 C 846.616 349.738, 845.934 349.269, 845.596 348.391 C 845.247 347.479, 844.342 347.039, 843.492 347.365 C 842.671 347.680, 842 347.554, 842 347.085 C 842 346.295, 838.813 344.860, 836.500 344.609 C 835.950 344.549, 835.006 343.869, 834.402 343.097 C 833.798 342.326, 832.832 341.986, 832.256 342.341 C 831.681 342.697, 830.932 342.265, 830.593 341.381 C 830.202 340.363, 829.247 339.964, 827.988 340.293 C 826.895 340.579, 826 340.405, 826 339.906 C 826 339.408, 825.127 339, 824.059 339 C 822.991 339, 821.816 338.511, 821.446 337.913 C 821.077 337.315, 819.925 337.048, 818.887 337.319 C 817.849 337.591, 817 337.378, 817 336.847 C 817 336.316, 816.550 336.160, 816 336.500 C 815.450 336.840, 815 336.589, 815 335.942 C 815 335.272, 814.168 334.984, 813.065 335.273 C 811.899 335.578, 810.900 335.182, 810.553 334.278 C 810.160 333.253, 809.028 332.916, 806.988 333.215 C 805.345 333.456, 804 333.333, 804 332.940 C 804 332.088, 798.867 330.927, 794 330.678 C 792.075 330.580, 789.866 329.898, 789.091 329.162 C 788.218 328.334, 786.028 327.955, 783.341 328.169 C 780.953 328.359, 779 328.239, 779 327.902 C 779 327.566, 775.962 327.159, 772.250 327 C 768.538 326.840, 764.487 326.662, 763.250 326.605 C 762.013 326.547, 761 326.184, 761 325.798 C 761 325.411, 753.350 325.099, 744 325.103 C 734.650 325.106, 726.999 325.423, 726.997 325.805 M 1177 325.764 C 1177 326.219, 1175.313 326.703, 1173.250 326.839 C 1171.188 326.976, 1169.358 327.493, 1169.185 327.988 C 1169.012 328.483, 1168.225 328.640, 1167.435 328.337 C 1166.646 328.034, 1166 328.209, 1166 328.726 C 1166 329.244, 1165.435 329.667, 1164.744 329.667 C 1160.206 329.667, 1145.918 343.388, 1142.184 351.333 C 1137.918 360.407, 1135.187 381.587, 1137.928 384.328 C 1138.518 384.918, 1139 386.420, 1139 387.666 C 1139 393.637, 1150.252 411.045, 1154.839 412.171 C 1155.576 412.352, 1157.558 413.759, 1159.245 415.297 C 1160.932 416.835, 1162.917 417.862, 1163.656 417.578 C 1164.395 417.295, 1165 417.466, 1165 417.958 C 1165 420.967, 1171.697 422.389, 1187.500 422.736 C 1207.325 423.171, 1208.998 423.296, 1208.999 424.335 C 1209 424.795, 1211.869 425.020, 1215.376 424.835 C 1219.795 424.603, 1222.136 424.913, 1223.004 425.844 C 1223.747 426.643, 1225.625 427.029, 1227.628 426.795 C 1229.482 426.579, 1231 426.710, 1231 427.087 C 1231 427.737, 1235.132 428.804, 1239.500 429.281 C 1240.600 429.402, 1241.997 430.136, 1242.605 430.912 C 1243.213 431.689, 1244.414 432.055, 1245.273 431.726 C 1246.188 431.374, 1247.079 431.764, 1247.426 432.667 C 1247.758 433.532, 1248.670 433.957, 1249.508 433.635 C 1250.329 433.320, 1251 433.450, 1251 433.923 C 1251 434.396, 1252.237 435.092, 1253.750 435.470 C 1255.263 435.847, 1257.259 436.840, 1258.187 437.676 C 1259.115 438.512, 1260.363 438.893, 1260.962 438.524 C 1261.566 438.150, 1261.927 438.440, 1261.775 439.176 C 1261.624 439.904, 1262.175 440.500, 1263 440.500 C 1263.825 440.500, 1264.950 441.038, 1265.500 441.695 C 1266.050 442.352, 1267.120 443.027, 1267.879 443.195 C 1268.637 443.363, 1270.328 444.537, 1271.637 445.804 C 1272.997 447.120, 1274.549 447.802, 1275.258 447.394 C 1275.941 447.001, 1276.193 447.021, 1275.817 447.439 C 1275.442 447.857, 1277.692 450.353, 1280.817 452.986 C 1283.943 455.619, 1288.487 459.830, 1290.916 462.344 C 1293.344 464.857, 1295.819 466.636, 1296.416 466.296 C 1297.012 465.957, 1297.178 466.036, 1296.785 466.471 C 1296.392 466.907, 1297.996 469.566, 1300.350 472.382 C 1310.826 484.912, 1320.907 503.915, 1324.020 517 C 1324.609 519.475, 1325.805 524.425, 1326.678 528 C 1327.848 532.787, 1328.271 539.638, 1328.285 554 C 1328.304 573.709, 1328.037 575.876, 1323.547 592.410 C 1321.924 598.385, 1321.551 599.317, 1316.092 611 C 1307.600 629.174, 1297.436 641.968, 1279.537 657.010 C 1277.908 658.380, 1275.320 660.703, 1273.787 662.173 C 1272.254 663.643, 1271 664.619, 1271 664.342 C 1271 663.119, 1263.042 668.745, 1258.292 673.326 C 1242.694 688.369, 1239.631 716.417, 1251.558 735 C 1254.533 739.636, 1266.758 751.575, 1267.633 750.700 C 1268.011 750.322, 1268.976 750.949, 1269.777 752.092 C 1270.667 753.363, 1271.948 753.985, 1273.069 753.692 C 1274.078 753.428, 1275.045 753.635, 1275.217 754.151 C 1275.389 754.667, 1276.535 755.165, 1277.765 755.257 C 1278.994 755.350, 1280 755.829, 1280 756.322 C 1280 756.815, 1281.575 757.035, 1283.500 756.810 C 1285.425 756.585, 1287 756.809, 1287 757.308 C 1287 757.806, 1287.675 757.955, 1288.500 757.638 C 1289.325 757.322, 1290 757.499, 1290 758.031 C 1290 758.564, 1291.575 759, 1293.500 759 C 1295.425 759, 1297 758.564, 1297 758.031 C 1297 757.499, 1297.675 757.322, 1298.500 757.638 C 1299.325 757.955, 1300 757.794, 1300 757.280 C 1300 756.767, 1301.350 756.545, 1303 756.787 C 1304.650 757.029, 1306 756.822, 1306 756.326 C 1306 755.831, 1307.006 755.350, 1308.235 755.257 C 1309.465 755.165, 1310.628 754.616, 1310.821 754.038 C 1311.013 753.460, 1311.546 753.219, 1312.005 753.503 C 1312.463 753.786, 1313.630 753.227, 1314.598 752.259 C 1315.566 751.292, 1316.507 750.622, 1316.689 750.770 C 1317.381 751.334, 1323 747.901, 1323 746.915 C 1323 746.347, 1323.393 746.125, 1323.874 746.422 C 1324.355 746.719, 1325.869 745.958, 1327.239 744.731 C 1328.609 743.504, 1330.353 742.371, 1331.115 742.213 C 1331.877 742.055, 1333.588 740.705, 1334.917 739.213 C 1336.246 737.721, 1337.493 736.624, 1337.688 736.776 C 1340.606 739.053, 1390 686.717, 1390 681.348 C 1390 680.968, 1390.629 679.947, 1391.399 679.079 C 1392.168 678.210, 1393.669 675.925, 1394.735 674 C 1398.688 666.862, 1403.301 658.425, 1404.577 656 C 1407.166 651.080, 1412.759 638.454, 1413.436 636 C 1413.815 634.625, 1414.525 632.600, 1415.012 631.500 C 1416.415 628.336, 1418.635 620.985, 1419.995 615 C 1420.683 611.975, 1421.612 608.600, 1422.060 607.500 C 1423.935 602.902, 1427.862 567.880, 1427.891 555.500 C 1427.914 545.638, 1424.997 515.760, 1423.157 507 C 1421.306 498.192, 1416.125 480.150, 1414.974 478.500 C 1414.590 477.950, 1413.968 476.213, 1413.591 474.640 C 1411.023 463.912, 1394.932 434.501, 1382.602 418 C 1374.544 407.217, 1361.185 392.375, 1359.874 392.750 C 1359.393 392.888, 1359.112 392.643, 1359.250 392.208 C 1359.387 391.772, 1356.463 388.570, 1352.750 385.093 C 1349.037 381.616, 1346 378.995, 1346 379.270 C 1346 379.544, 1344.116 378.047, 1341.813 375.941 C 1339.510 373.836, 1337.307 372.310, 1336.917 372.551 C 1336.528 372.792, 1335.941 372.288, 1335.612 371.431 C 1335.278 370.560, 1334.502 370.190, 1333.853 370.591 C 1333.183 371.005, 1332.959 370.875, 1333.323 370.286 C 1333.953 369.268, 1325.182 363.046, 1324.463 364 C 1324.256 364.275, 1323.406 363.600, 1322.575 362.500 C 1321.744 361.400, 1321.049 360.855, 1321.032 361.289 C 1321.014 361.723, 1320.032 361.176, 1318.849 360.074 C 1317.665 358.971, 1316.362 358.276, 1315.953 358.529 C 1315.544 358.782, 1314.941 358.288, 1314.612 357.431 C 1314.283 356.574, 1313.561 356.153, 1313.007 356.496 C 1312.453 356.838, 1312 356.653, 1312 356.085 C 1312 354.787, 1306.475 351.858, 1305.627 352.707 C 1305.282 353.051, 1305 352.782, 1305 352.108 C 1305 351.434, 1304.597 351.131, 1304.105 351.435 C 1303.612 351.740, 1302.934 351.269, 1302.596 350.391 C 1302.259 349.512, 1301.349 349.036, 1300.574 349.333 C 1299.799 349.630, 1298.903 349.190, 1298.582 348.354 C 1298.261 347.518, 1297.441 347.020, 1296.758 347.247 C 1296.076 347.475, 1294.915 347.058, 1294.178 346.321 C 1293.442 345.584, 1292.425 345.237, 1291.919 345.550 C 1291.414 345.862, 1291 345.566, 1291 344.892 C 1291 344.218, 1290.721 343.945, 1290.381 344.286 C 1290.040 344.626, 1289.082 344.225, 1288.252 343.395 C 1287.422 342.564, 1286.162 342.107, 1285.454 342.379 C 1284.745 342.651, 1283.898 342.176, 1283.571 341.323 C 1283.206 340.374, 1282.224 339.970, 1281.036 340.280 C 1279.969 340.559, 1278.955 340.365, 1278.783 339.849 C 1278.611 339.333, 1277.465 338.835, 1276.235 338.743 C 1275.006 338.650, 1274 338.183, 1274 337.704 C 1274 337.225, 1273.442 337.019, 1272.759 337.247 C 1272.076 337.475, 1270.884 337.027, 1270.110 336.253 C 1269.335 335.478, 1267.898 335.055, 1266.916 335.312 C 1265.904 335.576, 1264.879 335.127, 1264.553 334.278 C 1264.161 333.257, 1263.029 332.916, 1261.013 333.211 C 1259.383 333.451, 1257.925 333.290, 1257.774 332.855 C 1257.623 332.420, 1256.037 331.953, 1254.250 331.819 C 1252.463 331.685, 1251 331.169, 1251 330.674 C 1251 330.178, 1249.729 329.960, 1248.176 330.187 C 1246.559 330.425, 1244.796 330.007, 1244.052 329.210 C 1243.208 328.307, 1241.214 327.941, 1238.376 328.166 C 1235.969 328.358, 1234 328.251, 1234 327.928 C 1234 327.426, 1229.346 326.975, 1220.250 326.594 C 1219.013 326.542, 1218 326.195, 1218 325.823 C 1218 325.450, 1208.775 325.098, 1197.500 325.041 C 1186.225 324.984, 1177 325.310, 1177 325.764 M 1478.667 665.667 C 1477.487 666.846, 1477.899 740.895, 1479.110 745.384 C 1480.313 749.846, 1480.796 751.191, 1483.630 757.977 C 1485.740 763.030, 1496.698 775.330, 1498.480 774.646 C 1499.120 774.401, 1500.188 775.072, 1500.854 776.139 C 1501.520 777.205, 1502.454 777.838, 1502.928 777.545 C 1503.402 777.251, 1504.066 777.731, 1504.404 778.609 C 1504.741 779.488, 1505.651 779.964, 1506.426 779.667 C 1507.201 779.370, 1508.102 779.824, 1508.430 780.677 C 1508.822 781.700, 1509.861 782.069, 1511.478 781.760 C 1512.827 781.502, 1514.058 781.664, 1514.215 782.120 C 1514.372 782.576, 1516.635 783.074, 1519.245 783.225 C 1521.855 783.376, 1523.992 783.835, 1523.995 784.244 C 1523.998 784.653, 1594.425 784.987, 1680.500 784.987 C 1766.575 784.987, 1837.002 784.653, 1837.005 784.244 C 1837.008 783.835, 1839.145 783.376, 1841.755 783.225 C 1844.365 783.074, 1846.651 782.508, 1846.835 781.969 C 1847.020 781.429, 1847.593 781.248, 1848.109 781.567 C 1849.199 782.241, 1855 779.875, 1855 778.756 C 1855 778.340, 1855.338 778.093, 1855.750 778.206 C 1857.414 778.662, 1862.782 774.858, 1867.575 769.827 C 1876.165 760.811, 1879.567 754.334, 1880.965 744.336 C 1882.933 730.262, 1880.778 718.330, 1874.521 708.659 C 1869.511 700.914, 1856.245 689.113, 1854.064 690.460 C 1853.573 690.764, 1853.013 690.540, 1852.821 689.962 C 1852.628 689.384, 1851.465 688.835, 1850.235 688.743 C 1849.006 688.650, 1848 688.171, 1848 687.678 C 1848 687.185, 1846.425 686.965, 1844.500 687.190 C 1842.575 687.415, 1841 687.236, 1841 686.793 C 1841 686.350, 1770.575 686.103, 1684.500 686.244 C 1598.425 686.385, 1528 686.127, 1528 685.671 C 1528 685.215, 1524.624 684.990, 1520.498 685.171 C 1516.371 685.352, 1512.996 685.163, 1512.998 684.750 C 1512.999 684.337, 1511.650 684, 1510 684 C 1508.350 684, 1507 683.599, 1507 683.108 C 1507 682.295, 1502.915 680.690, 1500.500 680.556 C 1499.950 680.525, 1499.275 680.253, 1499 679.952 C 1497.889 678.734, 1492.275 675.100, 1491.056 674.810 C 1490.339 674.639, 1487.722 672.362, 1485.239 669.750 C 1480.684 664.955, 1479.878 664.455, 1478.667 665.667 M 251 686.906 C 251 687.405, 250.067 687.569, 248.927 687.271 C 246.534 686.645, 239 688.883, 239 690.219 C 239 690.714, 238.534 690.830, 237.964 690.478 C 234.461 688.313, 219.512 703.065, 213.727 714.396 C 208.809 724.029, 208.903 744.224, 213.913 754.500 C 219.741 766.454, 232.101 780.292, 235.226 778.361 C 235.651 778.097, 236 778.249, 236 778.697 C 236 779.859, 241.768 782.261, 242.891 781.567 C 243.407 781.248, 243.985 781.454, 244.175 782.024 C 244.365 782.594, 246.650 783.159, 249.253 783.280 C 251.856 783.401, 253.989 783.832, 253.993 784.238 C 253.997 784.644, 291.350 784.976, 337 784.977 C 382.650 784.977, 420.002 784.645, 420.005 784.239 C 420.008 783.832, 421.920 783.389, 424.254 783.254 C 426.588 783.119, 428.639 782.582, 428.813 782.061 C 428.987 781.539, 429.781 781.362, 430.577 781.668 C 431.374 781.974, 432.740 781.631, 433.614 780.906 C 434.487 780.181, 435.855 779.492, 436.653 779.375 C 438.801 779.059, 443 776.111, 443 774.918 C 443 774.348, 443.401 774.130, 443.891 774.433 C 444.869 775.037, 451.504 768.739, 455.843 763.088 C 458.286 759.908, 459.552 757.312, 463.169 748.071 C 463.692 746.735, 464.120 740.853, 464.120 735 C 464.120 729.147, 463.692 723.265, 463.169 721.929 C 460.397 714.847, 458.418 710.348, 457.513 709.068 C 454.840 705.291, 442.896 693.946, 442.106 694.434 C 441.613 694.739, 440.941 694.288, 440.612 693.431 C 440.283 692.574, 439.608 692.124, 439.112 692.431 C 438.616 692.738, 437.934 692.269, 437.596 691.391 C 437.259 690.512, 436.341 690.039, 435.556 690.340 C 434.771 690.641, 433.981 690.443, 433.800 689.899 C 433.619 689.356, 432.465 688.835, 431.235 688.743 C 430.006 688.650, 429 688.171, 429 687.678 C 429 687.185, 427.425 686.965, 425.500 687.190 C 423.575 687.415, 422 687.239, 422 686.799 C 422 686.360, 383.525 686, 336.500 686 C 286.054 686, 251 686.372, 251 686.906" stroke="none" fill="#00ffdd" fill-rule="evenodd"/><path d="M 101.507 325.989 C 101.163 326.545, 99.568 327, 97.961 327 C 57.704 327, 48.513 399.591, 86.520 417.361 C 88.709 418.384, 91.281 419.622, 92.236 420.111 C 93.191 420.600, 94.852 421, 95.927 421 C 97.002 421, 98.160 421.450, 98.500 422 C 99.954 424.352, 275.646 423.255, 282.433 420.852 C 288.715 418.628, 292.112 416.775, 295.439 413.758 C 296.505 412.791, 297.720 412, 298.138 412 C 299.356 412, 307.552 399.965, 310.055 394.500 C 321.928 368.580, 307.196 334.273, 281 326.836 C 275.216 325.195, 102.502 324.379, 101.507 325.989 M 1063.500 325.942 C 1062.400 326.386, 1059.250 327.283, 1056.500 327.935 C 1045.853 330.459, 1034.815 340.573, 1028.315 353.759 C 1022.374 365.814, 1022.280 755, 1028.218 755 C 1028.648 755, 1029 755.684, 1029 756.520 C 1029 761.300, 1044.308 777.939, 1048.750 777.987 C 1049.438 777.994, 1050 778.430, 1050 778.955 C 1050 779.480, 1051.688 780.213, 1053.750 780.585 C 1055.813 780.957, 1057.950 781.601, 1058.500 782.018 C 1061.047 783.946, 1073.214 784.291, 1139.500 784.317 C 1210.976 784.345, 1220.854 783.968, 1239 780.518 C 1243.675 779.630, 1248.967 778.650, 1250.759 778.341 C 1252.552 778.032, 1254.266 777.379, 1254.568 776.890 C 1254.871 776.400, 1256.415 776, 1258 776 C 1259.585 776, 1261.134 775.592, 1261.442 775.094 C 1261.750 774.595, 1264.229 773.881, 1266.951 773.507 C 1275.131 772.382, 1275.087 770.800, 1266.762 766.615 C 1256.718 761.567, 1256.367 761.317, 1248.996 754 C 1239.981 745.052, 1236.429 739.766, 1233.540 731 C 1232.543 727.975, 1231.373 724.600, 1230.941 723.500 C 1228.430 717.111, 1228.437 697.804, 1230.953 691.500 C 1231.392 690.400, 1232.263 688.229, 1232.888 686.675 C 1234.545 682.559, 1230.615 679.848, 1227.450 682.923 C 1224.872 685.428, 1126.957 687.529, 1123.224 685.159 C 1121.368 683.982, 1121.889 360.711, 1123.750 358.850 C 1124.438 358.162, 1125 356.784, 1125 355.786 C 1125 354.789, 1125.399 353.191, 1125.888 352.236 C 1126.376 351.281, 1127.962 347.998, 1129.411 344.939 C 1130.861 341.880, 1134.512 336.409, 1137.524 332.780 C 1140.536 329.151, 1143 325.916, 1143 325.591 C 1143 324.683, 1065.775 325.024, 1063.500 325.942 M 1629.586 325.860 C 1629.294 326.334, 1627.027 326.999, 1624.549 327.338 C 1612.459 328.995, 1597.860 344.504, 1592.863 361 C 1585.872 384.078, 1605.710 421, 1625.101 421 C 1626.080 421, 1627.160 421.450, 1627.500 422 C 1628.420 423.489, 1841.994 423.367, 1845.703 421.875 C 1847.241 421.257, 1849.625 420.294, 1851 419.735 C 1864.098 414.414, 1873.077 404.784, 1880.331 388.278 C 1889.518 367.376, 1866.376 327, 1845.209 327 C 1843.509 327, 1841.840 326.550, 1841.500 326 C 1840.725 324.746, 1630.361 324.608, 1629.586 325.860" stroke="none" fill="#00fe81" fill-rule="evenodd"/><path d="M 309.210 325.247 C 308.413 326.207, 309.246 327.628, 312.541 330.930 C 320.053 338.457, 326.753 353.381, 327.987 365.334 C 330.911 393.649, 324.581 405.864, 280 457.941 C 269.940 469.693, 249.962 493.230, 236.744 508.904 C 233.310 512.976, 227.125 520.227, 223 525.017 C 218.875 529.807, 212.575 537.241, 209 541.538 C 205.425 545.835, 198.985 553.434, 194.688 558.425 C 190.392 563.416, 184.209 570.650, 180.947 574.500 C 165.400 592.853, 153.518 606.898, 150.176 610.871 C 148.154 613.275, 144.475 617.580, 142 620.436 C 139.525 623.293, 134.350 629.363, 130.500 633.927 C 126.650 638.490, 122.600 643.224, 121.500 644.447 C 120.400 645.670, 116.575 650.183, 113 654.476 C 109.425 658.769, 104.700 664.398, 102.500 666.983 C 100.300 669.569, 95.575 675.184, 92 679.461 C 88.425 683.738, 83.660 689.322, 81.411 691.869 C 54.150 722.747, 53.880 759.683, 80.801 775.376 C 98.319 785.588, 96.698 785.387, 161.917 785.449 C 221.990 785.506, 218.217 786.161, 210.748 776.977 C 205.093 770.024, 201.442 763.903, 199.863 758.729 C 189.873 725.996, 195.694 709.567, 232.893 665.500 C 247.608 648.068, 250.394 644.784, 255 639.435 C 257.475 636.561, 260.599 632.925, 261.941 631.355 C 263.284 629.785, 267.470 624.900, 271.242 620.500 C 275.015 616.100, 280.666 609.420, 283.801 605.656 C 286.935 601.892, 291.525 596.444, 294 593.549 C 296.475 590.654, 301.502 584.734, 305.171 580.393 C 308.840 576.052, 312.890 571.407, 314.171 570.071 C 315.452 568.734, 317.175 566.647, 318 565.432 C 319.407 563.361, 321.837 560.495, 333.043 547.691 C 335.542 544.836, 342.063 537.100, 347.535 530.500 C 353.006 523.900, 359.512 516.170, 361.991 513.322 C 364.471 510.475, 369.200 504.930, 372.500 501 C 375.800 497.070, 380.525 491.505, 383 488.632 C 385.475 485.760, 389.750 480.761, 392.500 477.525 C 395.250 474.289, 399.525 469.294, 402 466.426 C 404.475 463.558, 409.200 457.930, 412.500 453.919 C 415.800 449.909, 420.526 444.349, 423.002 441.564 C 432.874 430.461, 448.609 411.603, 454.761 403.500 C 476.043 375.472, 459.911 333.263, 425 325.631 C 417.669 324.029, 310.516 323.673, 309.210 325.247 M 1520 325 C 1519.175 325.533, 1517.481 325.976, 1516.236 325.985 C 1514.991 325.993, 1513.191 326.396, 1512.236 326.881 C 1511.281 327.365, 1508.250 328.802, 1505.500 330.074 C 1494.540 335.141, 1482.777 349.756, 1479.485 362.395 C 1477.241 371.013, 1477.253 624.014, 1479.499 632.701 C 1483.271 647.294, 1492.065 658.721, 1505 665.841 C 1512.275 669.846, 1531.061 673.339, 1533.297 671.103 C 1533.904 670.496, 1535.630 670, 1537.134 670 C 1558.146 670, 1575.922 647.004, 1576.718 618.793 C 1577.104 605.085, 1577.104 605.085, 1682.802 604.793 C 1770.529 604.550, 1789.010 604.263, 1791.500 603.109 C 1793.150 602.343, 1796.866 600.621, 1799.759 599.281 C 1836.022 582.480, 1836.921 528.121, 1801.225 510.584 C 1798.076 509.036, 1794.600 507.260, 1793.500 506.635 C 1792.058 505.817, 1761.661 505.361, 1684.500 505 C 1584.753 504.534, 1539.445 444.386, 1577.913 363.500 C 1578.436 362.400, 1579.083 360.150, 1579.350 358.500 C 1581.161 347.333, 1585.504 338.562, 1593.294 330.343 C 1595.460 328.057, 1596.929 325.695, 1596.558 325.093 C 1595.680 323.673, 1522.191 323.584, 1520 325 M 555 505.905 C 528.702 510.357, 509.926 539.280, 516.060 565.888 C 522.116 592.154, 554.981 611.749, 578.304 602.999 C 610.844 590.791, 623.397 556.697, 606.019 527.730 C 600.595 518.689, 592.507 512.353, 579.788 507.180 C 576.232 505.734, 560.721 504.936, 555 505.905" stroke="none" fill="#95ff00" fill-rule="evenodd"/></svg>