<svg xmlns="http://www.w3.org/2000/svg" width="1080" height="1080" viewBox="0 0 1080 1080" version="1.1"><path d="M 687.230 222.250 C 686.672 222.938, 686.052 224.400, 685.852 225.500 C 685.652 226.600, 684.548 227.914, 683.399 228.420 C 682.250 228.927, 680.772 230.502, 680.116 231.920 C 677.580 237.397, 676.481 239, 675.263 239 C 674.568 239, 674 239.710, 674 240.577 C 674 241.444, 672.690 243.464, 671.089 245.065 C 669.488 246.665, 667.579 249.331, 666.845 250.988 C 666.112 252.644, 664.947 254, 664.256 254 C 663.565 254, 663 254.659, 663 255.465 C 663 256.271, 661.650 258.468, 660 260.347 C 658.350 262.226, 657 264.713, 657 265.874 C 657 267.034, 656.068 268.549, 654.930 269.242 C 653.791 269.934, 651.980 272.413, 650.905 274.750 C 649.830 277.087, 648.555 279, 648.073 279 C 647.590 279, 646.725 280.350, 646.150 282 C 645.575 283.650, 644.631 285, 644.052 285 C 643.473 285, 643 285.675, 643 286.500 C 643 287.325, 642.550 288, 642 288 C 641.450 288, 641 288.594, 641 289.320 C 641 290.046, 639.425 292.480, 637.500 294.729 C 635.575 296.978, 634 299.309, 634 299.909 C 634 300.509, 633.587 301, 633.082 301 C 631.291 301, 628 307.791, 628 311.485 C 628 314.818, 627.764 315.171, 625.869 314.676 C 623.724 314.115, 621 315.935, 621 317.929 C 621 318.518, 620.550 319, 620 319 C 619.450 319, 619 319.689, 619 320.531 C 619 321.374, 618.325 322.322, 617.500 322.638 C 616.675 322.955, 616 323.837, 616 324.599 C 616 325.360, 615.100 326.545, 614 327.232 C 612.900 327.919, 612 329.114, 612 329.888 C 612 330.661, 610.425 333.216, 608.500 335.565 C 606.575 337.915, 605 340.692, 605 341.738 C 605 342.784, 603.987 344.589, 602.750 345.750 C 599.474 348.824, 598 350.768, 598 352.016 C 598 353.180, 592.029 361.265, 590.750 361.833 C 590.337 362.017, 590 362.620, 590 363.174 C 590 363.728, 587.975 366.551, 585.500 369.448 C 583.025 372.345, 581 375.464, 581 376.379 C 581 377.294, 579.875 378.555, 578.500 379.182 C 577.125 379.808, 576 380.977, 576 381.779 C 576 382.580, 574.650 384.774, 573 386.653 C 571.350 388.532, 570 390.957, 570 392.041 C 570 393.126, 568.860 395.004, 567.467 396.216 C 565.506 397.921, 565.067 399.030, 565.527 401.123 C 566.014 403.342, 565.707 403.953, 563.810 404.532 C 560.535 405.531, 558 407.994, 558 410.176 C 558 411.204, 556.860 412.562, 555.461 413.200 C 554.045 413.845, 553.142 414.929, 553.420 415.652 C 553.693 416.364, 553.351 417.297, 552.658 417.724 C 550.939 418.784, 547 424.536, 547 425.986 C 547 427.209, 540.682 435.591, 538.163 437.712 C 536.713 438.931, 535.533 440.768, 532.356 446.750 C 531.406 448.538, 530.263 450, 529.815 450 C 529.367 450, 529 450.675, 529 451.500 C 529 452.325, 529.761 453, 530.691 453 C 533.104 453, 529.197 455.924, 526.725 455.968 C 525.558 455.989, 524.741 457.043, 524.341 459.045 C 524.006 460.720, 522.217 463.519, 520.366 465.265 C 518.515 467.011, 517 469.041, 517 469.774 C 517 470.885, 508.966 481.164, 503.470 487.084 C 502.662 487.955, 502 489.323, 502 490.124 C 502 490.925, 500.200 493.569, 498 496 C 495.800 498.431, 494 500.823, 494 501.316 C 494 501.809, 492.650 503.917, 491 506 C 487.596 510.298, 487.385 511, 489.500 511 C 491.600 511, 491.367 512.289, 489 513.768 C 487.900 514.455, 487 515.913, 487 517.008 C 487 518.104, 486.592 519, 486.094 519 C 485.595 519, 485.404 517.987, 485.668 516.750 C 486.136 514.556, 486.109 514.549, 484.574 516.441 C 483.708 517.509, 483 518.811, 483 519.336 C 483 519.860, 482.086 521.237, 480.969 522.395 C 476.907 526.606, 473.254 531.552, 472.557 533.784 C 472.165 535.040, 471.077 536.840, 470.140 537.784 C 467.123 540.823, 461 548.809, 461 549.706 C 461 550.184, 459.668 552.134, 458.041 554.038 C 456.413 555.942, 455.063 558.199, 455.041 559.054 C 455.018 559.908, 453.404 562.155, 451.452 564.046 C 448.800 566.617, 448.046 568.049, 448.466 569.720 C 448.900 571.449, 448.515 572.088, 446.763 572.541 C 443.899 573.282, 440.479 579.667, 441.979 581.474 C 443.098 582.823, 441.992 584.159, 438.822 585.286 C 437.899 585.614, 436.999 587.146, 436.822 588.691 C 436.621 590.446, 435.904 591.506, 434.913 591.516 C 432.936 591.536, 430 594.379, 430 596.274 C 430 597.053, 429.100 598.505, 428 599.500 C 426.900 600.495, 426 602.392, 426 603.714 C 426 605.036, 425.591 605.865, 425.090 605.556 C 423.694 604.693, 421 606.044, 421 607.607 C 421 608.373, 420.550 609, 420 609 C 419.450 609, 419 609.822, 419 610.826 C 419 611.830, 417.875 613.708, 416.500 615 C 415.125 616.292, 414 617.945, 414 618.674 C 414 619.403, 413.550 620, 413 620 C 412.450 620, 412 620.590, 412 621.311 C 412 622.033, 411.105 623.584, 410.011 624.758 C 408.871 625.981, 408.283 627.574, 408.633 628.487 C 409.071 629.627, 408.356 630.417, 406.123 631.260 C 404.004 632.060, 403 633.107, 403 634.519 C 403 635.664, 402.443 637.157, 401.762 637.838 C 401.080 638.520, 400.518 639.847, 400.512 640.788 C 400.505 641.730, 399.488 642.944, 398.250 643.487 C 397.012 644.030, 396 645.027, 396 645.702 C 396 646.378, 394.650 648.468, 393 650.347 C 391.193 652.405, 389.987 654.905, 389.968 656.632 C 389.951 658.209, 389.276 660.374, 388.468 661.441 C 386.438 664.125, 386.633 666, 388.941 666 C 390.009 666, 391.160 666.450, 391.500 667 C 394.806 672.349, 416 666.914, 416 660.718 C 416 658.722, 417.152 656.467, 419.500 653.868 C 421.425 651.738, 423 649.373, 423 648.614 C 423 647.854, 423.900 646.998, 425 646.710 C 426.147 646.410, 427 645.346, 427 644.216 C 427 643.132, 427.675 641.685, 428.500 641 C 429.325 640.315, 430 638.694, 430 637.397 C 430 635.740, 430.715 634.859, 432.405 634.435 C 434.164 633.993, 434.981 632.914, 435.450 630.416 C 435.802 628.537, 436.531 627, 437.070 627 C 437.609 627, 438.458 625.925, 438.958 624.611 C 439.457 623.297, 441.189 620.710, 442.806 618.861 C 444.422 617.012, 446.063 614.038, 446.452 612.250 C 447.053 609.487, 447.596 609, 450.079 609 C 452.465 609, 453 608.576, 453 606.689 C 453 605.417, 453.900 603.411, 455 602.230 C 456.100 601.050, 457 599.445, 457 598.664 C 457 596.959, 459.424 594.758, 460.318 595.651 C 461.358 596.692, 464 593.909, 464 591.771 C 464 590.680, 465.145 588.887, 466.545 587.786 C 467.944 586.685, 468.998 585.046, 468.886 584.142 C 468.456 580.679, 470.189 577.170, 472.629 576.557 C 475.496 575.838, 476.874 573.158, 474.980 571.988 C 474.004 571.384, 474.604 570.296, 477.335 567.721 C 479.351 565.819, 481 563.599, 481 562.787 C 481 561.975, 481.900 560.495, 483 559.500 C 484.100 558.505, 485 557.071, 485 556.314 C 485 555.557, 485.675 554.678, 486.500 554.362 C 487.325 554.045, 488 553.337, 488 552.787 C 488 551.797, 491.128 547.547, 494.992 543.286 C 496.096 542.068, 497 540.605, 497 540.036 C 497 539.466, 497.360 539, 497.799 539 C 498.239 539, 499.152 537.468, 499.829 535.595 C 500.506 533.723, 501.722 531.937, 502.530 531.627 C 503.339 531.317, 504.013 530.486, 504.028 529.781 C 504.067 527.969, 509.113 523.288, 511.500 522.850 C 512.843 522.603, 513.608 521.545, 513.827 519.628 C 514.034 517.825, 514.864 516.587, 516.077 516.270 C 518.391 515.665, 518.586 514.162, 516.457 513.345 C 515.117 512.831, 515.101 512.538, 516.336 511.126 C 517.119 510.232, 518.454 508.150, 519.303 506.500 C 520.153 504.850, 522.682 501.493, 524.924 499.040 C 527.166 496.587, 529 493.973, 529 493.231 C 529 491.769, 534.716 484.001, 536.750 482.700 C 537.438 482.260, 538 481.412, 538 480.815 C 538 480.218, 539.125 478.687, 540.500 477.412 C 541.875 476.138, 543 474.271, 543 473.263 C 543 472.256, 544.323 470.650, 545.939 469.695 C 547.556 468.740, 549.159 466.956, 549.502 465.729 C 550.793 461.113, 552.316 459.187, 555.114 458.627 C 557.902 458.070, 559.111 455.537, 556.935 454.812 C 555.435 454.312, 561.624 444.374, 567.800 437.367 C 570.644 434.140, 572.978 430.896, 572.986 430.158 C 572.994 429.419, 573.900 427.671, 575 426.273 C 576.100 424.874, 577 423.116, 577 422.365 C 577 421.614, 577.675 421, 578.500 421 C 579.325 421, 580 420.152, 580 419.117 C 580 418.081, 580.832 417.016, 581.848 416.750 C 582.906 416.473, 583.946 415.019, 584.280 413.351 C 584.695 411.275, 585.890 409.946, 588.431 408.734 C 591.295 407.369, 592 406.467, 592 404.171 C 592 402.580, 592.888 400.507, 594 399.500 C 595.100 398.505, 596 396.860, 596 395.845 C 596 394.830, 596.450 394, 597 394 C 597.550 394, 598 393.403, 598 392.674 C 598 391.945, 599.125 390.292, 600.500 389 C 601.875 387.708, 603 385.882, 603 384.942 C 603 384.002, 603.900 382.998, 605 382.710 C 606.132 382.414, 607 381.346, 607 380.249 C 607 379.182, 607.900 377.495, 609 376.500 C 610.100 375.505, 611 374.314, 611 373.854 C 611 373.394, 612.350 371.727, 614 370.150 C 615.650 368.574, 617 366.835, 617 366.288 C 617 365.740, 618.013 364.160, 619.250 362.775 C 623.697 357.801, 625 355.956, 625 354.629 C 625 353.888, 626.570 351.755, 628.489 349.890 C 630.408 348.026, 632.002 345.600, 632.030 344.500 C 632.058 343.400, 633.413 340.942, 635.041 339.038 C 636.668 337.134, 638 334.996, 638 334.288 C 638 332.711, 641.584 329, 643.107 329 C 643.716 329, 643.955 328.325, 643.638 327.500 C 643.322 326.675, 643.499 326, 644.031 326 C 644.564 326, 645 325.100, 645 324 C 645 322.900, 645.623 322, 646.383 322 C 647.144 322, 648.002 321.100, 648.290 320 C 648.664 318.567, 649.654 318, 651.779 318 C 654.602 318, 654.768 317.762, 655.219 313.078 C 655.677 308.308, 657.551 305.032, 663.006 299.465 C 664.103 298.345, 665 296.883, 665 296.215 C 665 295.547, 665.429 295, 665.953 295 C 666.477 295, 667.654 293.425, 668.567 291.500 C 669.480 289.575, 670.627 288, 671.114 288 C 671.601 288, 672 287.122, 672 286.050 C 672 284.977, 672.563 283.740, 673.250 283.300 C 675.129 282.097, 679 276.279, 679 274.657 C 679 273.874, 679.900 272.998, 681 272.710 C 682.353 272.356, 683 271.346, 683 269.587 C 683 268.060, 684.032 266.090, 685.500 264.813 C 686.875 263.618, 688 262.158, 688.001 261.570 C 688.001 260.981, 689.576 258.731, 691.501 256.568 C 693.425 254.406, 695 252.224, 695 251.720 C 695 251.215, 696.350 249.541, 698 248 C 699.650 246.459, 701 244.684, 701 244.057 C 701 243.430, 701.949 241.923, 703.108 240.708 C 704.268 239.494, 705.662 237.262, 706.206 235.750 C 706.750 234.238, 707.602 233, 708.098 233 C 710.103 233, 713.010 228.791, 713.614 225.014 C 714.275 220.876, 690.378 218.372, 687.230 222.250 M 212.250 347.250 C 212.937 349.313, 438 349.566, 438 347.504 C 438 346.174, 424.912 346, 324.917 346 C 234.894 346, 211.918 346.255, 212.250 347.250 M 815 411 C 815 411.550, 816.098 412, 817.441 412 C 818.784 412, 820.128 412.398, 820.429 412.885 C 820.729 413.371, 823.118 414.088, 825.738 414.478 C 828.357 414.868, 830.950 415.545, 831.500 415.982 C 832.050 416.420, 835.087 417.349, 838.250 418.048 C 841.413 418.747, 844 419.647, 844 420.048 C 844 420.449, 845.688 421.094, 847.750 421.480 C 849.813 421.867, 852.850 422.881, 854.500 423.735 C 860.200 426.682, 860.979 427, 862.486 427 C 863.319 427, 864 427.360, 864 427.799 C 864 428.239, 865.619 429.184, 867.599 429.899 C 869.578 430.615, 873.065 432.393, 875.349 433.850 C 882.588 438.471, 883.431 438.976, 886.750 440.691 C 888.538 441.615, 890 442.737, 890 443.185 C 890 443.633, 890.500 444, 891.111 444 C 891.722 444, 894.372 445.800, 897 448 C 899.628 450.200, 902.267 452, 902.866 452 C 903.464 452, 904.691 453.125, 905.592 454.500 C 906.493 455.875, 907.748 457, 908.381 457 C 909.704 457, 932 479.087, 932 480.398 C 932 480.874, 933.575 482.749, 935.500 484.565 C 937.425 486.380, 939 488.171, 939 488.544 C 939 488.917, 940.800 491.372, 943 494 C 945.200 496.628, 947 499.084, 947 499.459 C 947 499.833, 948.350 502.102, 950 504.500 C 951.650 506.898, 953 509.187, 953 509.586 C 953 509.985, 954.040 511.704, 955.310 513.406 C 957.797 516.737, 964.981 531.281, 966.964 537 C 967.631 538.925, 968.761 541.625, 969.473 543 C 970.186 544.375, 971.088 546.993, 971.479 548.817 C 971.869 550.642, 972.818 553.342, 973.588 554.817 C 974.358 556.293, 974.990 558.261, 974.994 559.191 C 974.997 560.121, 975.375 561.113, 975.832 561.396 C 976.290 561.679, 977.244 565.868, 977.952 570.705 C 978.660 575.542, 979.580 579.950, 979.996 580.500 C 983.643 585.318, 983.674 652.748, 980.031 657.500 C 979.610 658.050, 978.700 662.212, 978.010 666.750 C 977.320 671.288, 976.376 675, 975.912 675 C 975.448 675, 974.770 677.250, 974.406 680 C 974.041 682.750, 973.409 685, 973.001 685 C 972.593 685, 971.673 687.138, 970.955 689.750 C 970.238 692.362, 969.099 695.400, 968.424 696.500 C 967.749 697.600, 966.891 699.962, 966.519 701.750 C 966.146 703.538, 965.427 705, 964.921 705 C 964.414 705, 964 705.499, 964 706.108 C 964 707.972, 954.661 726.447, 953.288 727.300 C 952.580 727.740, 952 728.697, 952 729.427 C 952 730.158, 951.366 731.281, 950.592 731.924 C 949.818 732.566, 948.447 734.646, 947.545 736.546 C 946.644 738.446, 945.477 740, 944.953 740 C 944.429 740, 944 740.514, 944 741.142 C 944 741.770, 941.975 744.655, 939.500 747.552 C 937.025 750.449, 935 753.134, 935 753.519 C 935 754.469, 908.522 781, 907.573 781 C 907.158 781, 904.449 783.025, 901.552 785.500 C 898.655 787.975, 895.819 790, 895.249 790 C 894.680 790, 893.955 790.675, 893.638 791.500 C 893.322 792.325, 892.551 793, 891.925 793 C 891.300 793, 889.148 794.283, 887.144 795.852 C 883.097 799.019, 882.630 799.277, 867.312 806.835 C 852.744 814.023, 850.944 814.827, 847.750 815.574 C 846.237 815.927, 845 816.546, 845 816.949 C 845 817.352, 842.413 818.253, 839.250 818.952 C 836.087 819.651, 833.050 820.563, 832.500 820.980 C 831.950 821.396, 828.350 822.305, 824.500 823 C 820.650 823.695, 817.050 824.603, 816.500 825.018 C 815.197 826, 800.041 828, 793.900 828 C 791.270 828, 788.840 828.450, 788.500 829 C 788.159 829.552, 783.656 830, 778.441 830 C 773.248 830, 769 830.403, 769 830.895 C 769 833.266, 823.422 833.337, 827.924 830.972 C 828.791 830.516, 833.543 829.630, 838.484 829.002 C 843.426 828.373, 847.701 827.495, 847.984 827.051 C 848.268 826.606, 850.804 825.928, 853.619 825.545 C 856.435 825.162, 859.941 824.224, 861.412 823.462 C 862.882 822.699, 865.640 821.783, 867.542 821.426 C 869.444 821.069, 871 820.413, 871 819.968 C 871 819.523, 872.462 818.854, 874.250 818.481 C 876.038 818.109, 878.400 817.260, 879.500 816.595 C 880.600 815.930, 883.413 814.831, 885.750 814.153 C 888.087 813.475, 890 812.488, 890 811.960 C 890 811.432, 890.556 811, 891.236 811 C 892.830 811, 903.393 805.742, 903.842 804.725 C 904.030 804.299, 905.605 803.270, 907.342 802.439 C 913.369 799.555, 916 797.886, 916 796.945 C 916 796.425, 916.579 796, 917.288 796 C 917.996 796, 920.134 794.668, 922.038 793.041 C 923.942 791.413, 925.955 790.063, 926.511 790.041 C 927.067 790.018, 928.637 788.650, 930 787 C 931.363 785.350, 932.954 784, 933.535 784 C 934.117 784, 940.793 777.587, 948.371 769.750 C 965.188 752.357, 966 751.474, 966 750.563 C 966 750.164, 967.575 747.915, 969.500 745.565 C 971.425 743.216, 973 740.764, 973 740.116 C 973 739.468, 973.598 738.708, 974.330 738.427 C 975.061 738.146, 976.270 736.360, 977.016 734.458 C 977.763 732.556, 978.705 731, 979.111 731 C 979.516 731, 981.120 728.413, 982.674 725.250 C 984.228 722.087, 985.837 719.350, 986.250 719.167 C 986.663 718.983, 987 718.382, 987 717.831 C 987 716.949, 990.894 708.229, 994.516 701 C 995.205 699.625, 996.105 696.932, 996.516 695.015 C 996.926 693.098, 997.835 690.623, 998.535 689.515 C 999.235 688.407, 1000.115 685.590, 1000.491 683.255 C 1000.867 680.921, 1001.533 678.789, 1001.972 678.518 C 1002.410 678.246, 1003.088 675.882, 1003.478 673.262 C 1003.868 670.643, 1004.548 668.050, 1004.988 667.500 C 1009.628 661.709, 1009.630 582.310, 1004.991 576.500 C 1004.552 575.950, 1003.873 572.913, 1003.481 569.750 C 1003.090 566.587, 1002.443 564, 1002.044 564 C 1001.645 564, 1000.747 561.413, 1000.048 558.250 C 999.349 555.087, 998.443 552.050, 998.034 551.500 C 997.625 550.950, 996.677 548.362, 995.927 545.750 C 995.177 543.138, 994.247 541, 993.861 541 C 993.475 541, 992.852 539.604, 992.478 537.898 C 991.559 533.716, 981.036 513.239, 978.252 510.216 C 977.565 509.470, 976.737 507.799, 976.411 506.502 C 976.086 505.206, 975.185 503.901, 974.410 503.604 C 973.634 503.306, 973 502.524, 973 501.865 C 973 501.207, 972.327 499.955, 971.505 499.084 C 968.804 496.222, 965 491.224, 965 490.538 C 965 490.168, 963.425 488.380, 961.500 486.565 C 959.575 484.749, 957.994 482.867, 957.986 482.382 C 957.979 481.897, 952.466 476.189, 945.736 469.698 C 929.977 454.498, 929.431 454, 928.534 454 C 928.118 454, 925.628 452.200, 923 450 C 920.372 447.800, 917.771 446, 917.218 446 C 916.666 446, 915.971 445.367, 915.675 444.594 C 915.378 443.821, 913.755 442.885, 912.068 442.515 C 910.380 442.144, 909 441.474, 909 441.025 C 909 440.150, 906.800 438.920, 892 431.518 C 886.775 428.905, 881.375 426.197, 880 425.499 C 878.625 424.802, 875.925 423.902, 874 423.500 C 872.075 423.098, 870.044 422.404, 869.487 421.959 C 868.929 421.513, 866.229 420.600, 863.487 419.930 C 860.744 419.260, 858.050 418.386, 857.500 417.987 C 856.950 417.589, 853.350 416.695, 849.500 416 C 845.650 415.305, 842.050 414.386, 841.500 413.957 C 840.950 413.528, 836.778 412.853, 832.228 412.457 C 827.678 412.062, 823.714 411.347, 823.419 410.869 C 822.669 409.656, 815 409.776, 815 411 M 758 457.704 C 754.975 457.887, 751.600 458.427, 750.500 458.903 C 749.400 459.379, 744.900 460.315, 740.500 460.983 C 736.100 461.651, 732.050 462.545, 731.500 462.968 C 730.950 463.392, 728.757 464.054, 726.627 464.438 C 724.497 464.822, 722.022 465.524, 721.127 465.997 C 718.922 467.162, 711.285 470.441, 707 472.062 C 705.075 472.791, 703.275 473.663, 703 474 C 702.725 474.337, 700.925 475.224, 699 475.971 C 697.075 476.718, 693.361 478.830, 690.748 480.664 C 688.134 482.499, 685.723 484, 685.391 484 C 684.511 484, 675.021 491.439, 671.392 494.973 C 669.683 496.638, 667.870 498, 667.363 498 C 666.100 498, 654 510.302, 654 511.586 C 654 512.154, 652.210 514.167, 650.023 516.060 C 647.835 517.952, 646.035 519.904, 646.023 520.397 C 646.010 520.890, 644.425 523.216, 642.500 525.565 C 640.575 527.915, 639 530.103, 639 530.429 C 639 530.754, 637.488 533.171, 635.641 535.799 C 633.793 538.428, 631.678 542.248, 630.940 544.289 C 630.202 546.330, 629.274 548, 628.879 548 C 628.483 548, 627.838 549.462, 627.446 551.250 C 627.054 553.038, 625.893 556.068, 624.867 557.985 C 623.840 559.902, 622.986 562.152, 622.968 562.985 C 622.951 563.818, 622.276 565.374, 621.468 566.441 C 620.661 567.509, 619.997 569.534, 619.994 570.941 C 619.990 572.349, 619.329 574.763, 618.523 576.307 C 617.718 577.851, 616.556 583.026, 615.941 587.807 C 615.326 592.588, 614.300 597.581, 613.662 598.901 C 612.085 602.162, 612.079 634.822, 613.655 638.099 C 614.290 639.419, 615.350 644.440, 616.010 649.256 C 616.669 654.071, 617.570 658.234, 618.011 658.507 C 618.452 658.779, 619.126 661.364, 619.509 664.251 C 619.892 667.138, 620.798 670.850, 621.523 672.500 C 622.248 674.150, 623.131 676.625, 623.486 678 C 624.144 680.553, 627.497 688.297, 629.115 691 C 629.609 691.825, 630.267 693.175, 630.579 694 C 630.890 694.825, 631.571 696.175, 632.092 697 C 632.614 697.825, 633.750 700.053, 634.617 701.950 C 635.484 703.848, 637.725 707.269, 639.597 709.553 C 641.469 711.837, 643 714.003, 643 714.366 C 643 714.729, 645.250 717.264, 648 720 C 650.750 722.736, 653 725.334, 653 725.774 C 653 727.049, 662.441 736, 663.784 736 C 664.453 736, 665 736.675, 665 737.500 C 665 738.325, 665.428 739, 665.952 739 C 666.475 739, 668.397 740.538, 670.222 742.417 C 673.951 746.256, 682.337 752.499, 685.750 753.977 C 686.987 754.512, 688 755.313, 688 755.756 C 688 756.199, 689.237 757.103, 690.750 757.765 C 692.263 758.427, 695.975 760.331, 699 761.996 C 702.025 763.660, 705.400 765.289, 706.500 765.615 C 707.600 765.941, 710.300 767.019, 712.500 768.012 C 721.388 772.023, 723.670 772.865, 727.500 773.548 C 729.700 773.940, 731.958 774.621, 732.518 775.060 C 733.078 775.500, 737.578 776.374, 742.518 777.002 C 747.458 777.630, 752.281 778.561, 753.236 779.072 C 755.551 780.309, 762.722 780.259, 763.500 779 C 763.845 778.441, 763.077 778, 761.759 778 C 760.462 778, 758.973 777.614, 758.450 777.142 C 757.928 776.670, 754.688 775.708, 751.250 775.005 C 747.813 774.302, 745 773.436, 745 773.082 C 745 772.727, 742.975 771.839, 740.500 771.108 C 738.025 770.377, 736 769.379, 736 768.890 C 736 768.400, 735.197 768, 734.217 768 C 733.236 768, 729.523 766.440, 725.967 764.533 C 722.410 762.627, 718.375 760.499, 717 759.804 C 715.625 759.110, 714.140 757.970, 713.700 757.271 C 713.260 756.572, 712.443 756, 711.884 756 C 711.324 756, 709.392 754.875, 707.589 753.500 C 705.786 752.125, 704.010 751, 703.642 751 C 703.275 751, 700.736 748.750, 698 746 C 695.264 743.250, 692.570 741, 692.013 741 C 691.456 741, 691 740.325, 691 739.500 C 691 738.675, 690.421 738, 689.712 738 C 688.342 738, 679 728.971, 679 727.647 C 679 727.216, 677.087 724.923, 674.750 722.552 C 669.865 717.597, 663 708.522, 663 707.019 C 663 706.459, 662.649 706, 662.219 706 C 661.790 706, 660.906 704.763, 660.256 703.250 C 659.605 701.737, 658.676 699.825, 658.192 699 C 656.012 695.289, 655 692.914, 655 691.514 C 655 690.681, 654.567 690, 654.039 690 C 653.510 690, 652.566 688.087, 651.941 685.750 C 651.316 683.413, 650.439 681.050, 649.992 680.500 C 649.545 679.950, 648.864 677.813, 648.478 675.750 C 648.093 673.688, 647.433 672, 647.011 672 C 646.589 672, 645.684 668.400, 645 664 C 644.316 659.600, 643.433 656, 643.038 656 C 642.258 656, 640 639.322, 640 633.558 C 640 631.601, 639.550 630, 639 630 C 638.407 630, 638 626.333, 638 621 C 638 615.667, 638.407 612, 639 612 C 639.550 612, 640 610.343, 640 608.318 C 640 603.005, 642.177 586.590, 642.960 586 C 643.325 585.725, 644.185 582.800, 644.872 579.500 C 645.559 576.200, 646.721 572.150, 647.455 570.500 C 649.248 566.469, 650.551 563.198, 652.036 559 C 654.224 552.817, 660.226 540.770, 662.002 539 C 662.277 538.725, 663.177 537.154, 664.002 535.508 C 664.826 533.862, 666.448 531.612, 667.607 530.508 C 668.765 529.404, 670.414 527.150, 671.271 525.500 C 672.128 523.850, 674.443 520.949, 676.415 519.054 C 678.387 517.158, 680 515.259, 680 514.834 C 680 513.890, 692.602 501, 693.524 501 C 693.884 501, 696.727 498.709, 699.840 495.909 C 702.953 493.110, 706.513 490.421, 707.750 489.934 C 708.987 489.448, 710 488.672, 710 488.211 C 710 487.750, 711.575 486.755, 713.500 486 C 715.425 485.245, 717 484.317, 717 483.939 C 717 483.562, 721.163 481.233, 726.250 478.764 C 741.073 471.572, 744.632 470, 746.110 469.994 C 746.874 469.990, 748.671 469.376, 750.103 468.629 C 751.535 467.882, 754.910 466.941, 757.603 466.538 C 760.296 466.134, 762.727 465.437, 763.005 464.989 C 763.613 464.009, 777.396 462, 783.513 462 C 785.916 462, 788.160 461.550, 788.500 461 C 788.840 460.450, 790.666 460, 792.559 460 C 794.452 460, 796 459.617, 796 459.148 C 796 457.464, 775.058 456.668, 758 457.704 M 608.464 762.037 C 605.775 764.767, 602.879 767, 602.028 767 C 601.177 767, 599.919 767.900, 599.232 769 C 598.545 770.101, 596.900 771, 595.575 771 C 594.250 771, 593.017 771.375, 592.833 771.832 C 592.368 772.994, 581.141 778, 579.002 778 C 578.035 778, 576.704 778.652, 576.042 779.449 C 575.381 780.246, 573.189 781.425, 571.170 782.070 C 569.152 782.714, 567.073 783.637, 566.550 784.121 C 566.028 784.604, 563.444 785, 560.808 785 C 557.100 785, 555.735 785.452, 554.768 787 C 553.791 788.565, 552.428 789.002, 548.509 789.011 C 539.029 789.032, 531.801 791.265, 538.250 792.180 C 539.487 792.356, 453.882 792.379, 348.016 792.230 C 177.117 791.990, 155.699 792.128, 157.028 793.457 C 159.528 795.956, 565.365 796.247, 566.924 793.750 C 567.762 792.408, 569.378 792, 573.853 792 C 578.278 792, 580.098 791.549, 581.377 790.136 C 582.509 788.885, 584.982 788.098, 588.898 787.743 C 592.512 787.415, 596.508 786.222, 599.401 784.607 C 601.970 783.173, 604.694 782, 605.454 782 C 607.096 782, 613.356 778.825, 613.833 777.750 C 614.017 777.337, 615.003 777, 616.024 777 C 617.046 777, 618.160 776.550, 618.500 776 C 618.840 775.450, 620.126 775, 621.359 775 C 627.908 775, 627.289 770.680, 619.676 763.248 C 613.352 757.074, 613.352 757.074, 608.464 762.037" stroke="none" fill="#00ffdd" fill-rule="evenodd"/><path d="M 186 282.378 C 186 357.227, 164.861 346.641, 313 345.973 C 437.500 345.412, 437.500 345.412, 312.750 345.206 C 188 345, 188 345, 188 282.500 C 188 241.500, 187.656 220, 187 220 C 186.344 220, 186 241.459, 186 282.378 M 767.517 585.973 C 767.186 586.508, 765.121 587.429, 762.929 588.019 C 758.393 589.241, 752.668 594.783, 750.812 599.750 C 750.145 601.538, 749.239 603, 748.799 603 C 748.360 603, 748 604.800, 748 607 C 748 609.200, 747.550 611, 747 611 C 746.450 611, 746 613.025, 746 615.500 C 746 617.975, 746.450 620, 747 620 C 747.550 620, 748 621.800, 748 624 C 748 626.200, 748.394 628, 748.875 628 C 749.356 628, 750.036 629.429, 750.385 631.175 C 751.024 634.371, 758.490 642.978, 760.636 642.992 C 761.260 642.997, 763.060 643.672, 764.636 644.494 C 768.648 646.586, 788.805 646.615, 791.559 644.532 C 792.626 643.724, 794.134 643.049, 794.908 643.032 C 796.566 642.994, 805.996 633.986, 805.999 632.438 C 805.999 631.854, 806.900 629.513, 808 627.236 C 810.181 622.722, 810.907 607.678, 809 606.500 C 808.450 606.160, 808 605.009, 808 603.941 C 808 602.873, 807.599 602, 807.108 602 C 806.618 602, 805.932 600.867, 805.585 599.482 C 804.572 595.448, 796.799 588.241, 792.615 587.456 C 790.615 587.080, 788.731 586.374, 788.430 585.887 C 787.682 584.676, 768.269 584.756, 767.517 585.973 M 204 791.743 C 397.066 792.425, 533.764 792.428, 533.346 791.750 C 533.091 791.337, 442.571 791.110, 332.191 791.243 C 221.811 791.377, 164.125 791.602, 204 791.743" stroke="none" fill="#95ff00" fill-rule="evenodd"/><path d="M 186 219 C 186 219.550, 186.450 220, 187 220 C 187.656 220, 188 241.500, 188 282.500 C 188 345, 188 345, 312.250 345.015 C 380.587 345.024, 436.969 345.361, 437.542 345.765 C 438.804 346.656, 439.103 355, 437.872 355 C 437.392 355, 437 355.625, 437 356.389 C 437 357.184, 435.505 358.058, 433.500 358.434 C 430.378 359.020, 428.283 362, 430.994 362 C 432.075 362, 431.895 364.774, 430.689 366.706 C 430.275 367.370, 429.223 367.639, 428.353 367.305 C 427.128 366.835, 426.914 367.153, 427.407 368.708 C 427.800 369.947, 427.461 371.202, 426.523 371.981 C 425.685 372.676, 425 374.058, 425 375.053 C 425 376.167, 424.136 376.984, 422.750 377.180 C 421.248 377.394, 420.598 378.082, 420.794 379.250 C 420.968 380.288, 420.459 381, 419.544 381 C 418.685 381, 418 381.857, 418 382.933 C 418 383.996, 417.100 385.151, 416 385.500 C 414.743 385.899, 414 387.013, 414 388.500 C 414 389.987, 413.257 391.101, 412 391.500 C 410.900 391.849, 410 393.004, 410 394.067 C 410 395.130, 409.325 396, 408.500 396 C 407.675 396, 407 396.605, 407 397.345 C 407 398.085, 406.100 399.505, 405 400.500 C 403.900 401.495, 403 402.890, 403 403.598 C 403 404.307, 401.620 405.700, 399.933 406.693 C 397.629 408.051, 396.973 409.059, 397.295 410.750 C 397.574 412.219, 397.235 413, 396.317 413 C 395.545 413, 395.004 413.563, 395.117 414.250 C 395.488 416.522, 393.054 421.151, 391.872 420.421 C 391.180 419.993, 390.932 420.261, 391.235 421.111 C 391.971 423.179, 390.060 426.237, 388.423 425.609 C 387.489 425.251, 387 425.739, 387 427.031 C 387 428.114, 386.550 429, 386 429 C 385.450 429, 385 429.648, 385 430.441 C 385 432.460, 382.937 433.516, 381.989 431.982 C 381.117 430.571, 378 431.342, 378 432.969 C 378 433.536, 378.723 434, 379.607 434 C 380.662 434, 381.005 434.544, 380.607 435.582 C 380.273 436.452, 380 437.352, 380 437.582 C 380 437.812, 379.325 438, 378.500 438 C 377.675 438, 376.986 438.788, 376.968 439.750 C 376.922 442.298, 372.434 447, 370.048 447 C 367.748 447, 367.570 447.738, 368.975 451.435 C 369.815 453.643, 369.680 454, 368.007 454 C 366.865 454, 366.258 454.516, 366.537 455.250 C 367.336 457.358, 362.533 462.052, 359.875 461.760 C 357.734 461.526, 357.511 461.870, 357.614 465.250 C 357.688 467.675, 357.279 469, 356.458 469 C 355.680 469, 355.390 469.775, 355.710 471 C 356.074 472.391, 355.741 473, 354.617 473 C 353.727 473, 353 473.675, 353 474.500 C 353 475.325, 352.270 476, 351.378 476 C 350.054 476, 349.983 476.275, 350.990 477.488 C 351.990 478.693, 351.919 479.094, 350.613 479.595 C 349.726 479.936, 349 480.889, 349 481.714 C 349 482.614, 348.420 482.991, 347.549 482.657 C 346.488 482.250, 345.876 483.229, 345.273 486.300 C 344.581 489.821, 344.026 490.549, 341.843 490.805 C 339.659 491.061, 339.136 491.747, 338.607 495.055 C 338.200 497.598, 337.448 499, 336.488 499 C 335.670 499, 335.112 499.542, 335.250 500.205 C 335.387 500.867, 334.825 501.441, 334 501.479 C 333.002 501.526, 332.563 502.461, 332.688 504.275 C 332.847 506.567, 332.478 507, 330.371 507 C 328.394 507, 327.988 507.388, 328.448 508.837 C 328.915 510.308, 328.220 510.917, 324.963 511.893 C 320.968 513.090, 318.498 515.999, 320.820 516.773 C 322.687 517.396, 322.194 520.398, 320 521.768 C 318.900 522.455, 318 523.688, 318 524.508 C 318 525.329, 317.325 526, 316.500 526 C 315.504 526, 315 526.996, 315 528.965 C 315 530.906, 314.310 532.299, 313 533 C 311.900 533.589, 311 534.846, 311 535.795 C 311 536.743, 309.435 538.865, 307.522 540.510 C 305.556 542.200, 304.034 544.449, 304.022 545.683 C 304.009 546.975, 303.184 548.124, 302 548.500 C 300.900 548.849, 300 550.004, 300 551.067 C 300 552.143, 299.315 553, 298.456 553 C 297.607 553, 297.045 553.627, 297.206 554.393 C 297.502 555.795, 292.508 561.174, 291.680 560.346 C 290.737 559.403, 286 561.290, 286 562.608 C 286 563.374, 286.450 564, 287 564 C 287.550 564, 288 564.900, 288 566 C 288 567.100, 287.550 568, 287 568 C 286.450 568, 286 568.900, 286 570 C 286 571.470, 285.333 572, 283.484 572 C 281.324 572, 280.999 572.410, 281.189 574.900 C 281.478 578.685, 279.462 581, 275.878 581 C 272.923 581, 271.685 584.069, 274.049 585.531 C 274.682 585.922, 274.046 587.155, 272.445 588.638 C 270.790 590.172, 269.974 591.791, 270.275 592.943 C 270.603 594.196, 269.993 595.138, 268.379 595.873 C 267.070 596.469, 266 597.594, 266 598.372 C 266 599.150, 265.274 600.065, 264.386 600.405 C 263.294 600.825, 262.925 601.829, 263.247 603.512 C 263.509 604.881, 263.335 606, 262.861 606 C 262.388 606, 262 605.512, 262 604.917 C 262 604.321, 261.438 604.023, 260.750 604.254 C 260.049 604.490, 259.641 605.843, 259.822 607.337 C 260.050 609.228, 259.687 610, 258.572 610 C 257.655 610, 257 610.853, 257 612.045 C 257 614.174, 252.868 619, 251.045 619 C 250.470 619, 250 619.675, 250 620.500 C 250 621.325, 249.277 622, 248.393 622 C 247.314 622, 246.993 622.539, 247.416 623.641 C 248.287 625.911, 245.389 630, 242.910 630 C 241.320 630, 241.007 630.445, 241.500 632 C 241.950 633.419, 241.680 634, 240.567 634 C 239.567 634, 239 634.894, 239 636.469 C 239 638.366, 238.613 638.789, 237.326 638.295 C 236.058 637.808, 235.808 638.058, 236.295 639.326 C 236.648 640.247, 236.501 641, 235.969 641 C 235.436 641, 235 641.845, 235 642.878 C 235 643.910, 234.325 645.315, 233.500 646 C 232.675 646.685, 232 646.933, 232 646.551 C 232 646.169, 231.280 646.577, 230.401 647.456 C 229.122 648.735, 229.046 649.351, 230.023 650.528 C 231.013 651.721, 230.938 652, 229.622 652 C 228.667 652, 228 652.822, 228 654 C 228 655.100, 227.550 656, 227 656 C 226.450 656, 226 656.675, 226 657.500 C 226 658.325, 225.325 659, 224.500 659 C 223.675 659, 223 659.576, 223 660.279 C 223 660.983, 222.100 662.207, 221 663 C 219.900 663.793, 219 665.242, 219 666.221 C 219 667.199, 218.325 668, 217.500 668 C 216.567 668, 216 668.944, 216 670.500 C 216 672.333, 215.467 673, 214 673 C 212.533 673, 212 673.667, 212 675.500 C 212 677.333, 211.467 678, 210 678 C 208.667 678, 208 678.667, 208 680 C 208 681.100, 207.437 681.887, 206.750 681.750 C 206.021 681.604, 205.536 682.462, 205.586 683.808 C 205.650 685.536, 205.006 686.249, 203.022 686.646 C 200.716 687.107, 200.430 687.572, 200.820 690.230 C 201.135 692.375, 200.923 693.071, 200.108 692.567 C 199.378 692.115, 198.539 693.024, 197.843 695.021 C 197.057 697.276, 196.502 697.812, 195.922 696.874 C 194.839 695.121, 193.837 697.579, 194.224 701.038 C 194.397 702.582, 194.034 703.407, 193.250 703.250 C 192.563 703.113, 192 703.450, 192 704 C 192 704.550, 191.325 705, 190.500 705 C 189.517 705, 189 705.984, 189 707.854 C 189 710.400, 185.434 715.644, 183.276 716.274 C 182.849 716.398, 182.607 717.288, 182.738 718.250 C 182.869 719.212, 182.547 720, 182.023 720 C 180.763 720, 175 725.661, 175 726.899 C 175 727.430, 174.100 728.151, 173 728.500 C 171.900 728.849, 171 729.949, 171 730.945 C 171 731.941, 170.304 733.333, 169.453 734.039 C 168.217 735.065, 168.166 735.489, 169.203 736.146 C 170.151 736.748, 170.001 736.973, 168.643 736.985 C 167.406 736.995, 166.978 737.501, 167.362 738.500 C 167.742 739.491, 167.326 740, 166.138 740 C 165.148 740, 163.736 741.125, 163 742.500 C 162.264 743.875, 161.299 745, 160.856 745 C 160.413 745, 160.320 746.350, 160.650 748 C 161.120 750.349, 160.897 751, 159.625 751 C 158.731 751, 158 751.576, 158 752.279 C 158 752.983, 157.100 754.207, 156 755 C 154.900 755.793, 154 757.467, 154 758.721 C 154 760.901, 153.091 761.454, 150.162 761.055 C 149.243 760.929, 149.030 761.520, 149.481 762.941 C 149.926 764.342, 149.632 765.204, 148.569 765.612 C 147.664 765.959, 147 767.391, 147 768.996 C 147 771.032, 146.531 771.741, 145.250 771.639 C 144.040 771.543, 143.402 772.349, 143.184 774.250 C 143.002 775.824, 142.254 777, 141.434 777 C 140.645 777, 140 777.575, 140 778.278 C 140 778.981, 139.100 780.326, 138 781.268 C 136.900 782.210, 136 783.660, 136 784.490 C 136 785.321, 135.298 786, 134.441 786 C 133.584 786, 133.162 786.453, 133.504 787.007 C 133.847 787.561, 133.423 788.284, 132.563 788.614 C 131.704 788.944, 131 789.616, 131 790.107 C 131 790.628, 214.696 791, 331.941 791 C 464.823 791, 533.091 791.339, 533.500 792 C 533.840 792.550, 535.554 792.933, 537.309 792.850 C 540.333 792.708, 540.356 792.679, 537.750 792.284 C 536.223 792.052, 535 791.230, 535 790.434 C 535 788.946, 537.346 788.676, 547.637 788.982 C 551.911 789.109, 553.198 788.711, 555.294 786.615 C 557.396 784.513, 558.430 784.196, 561.532 784.699 C 564.385 785.162, 565.467 784.918, 566.175 783.651 C 566.684 782.743, 567.963 782, 569.019 782 C 570.075 782, 572.542 781.100, 574.500 780 C 576.458 778.900, 578.835 777.967, 579.780 777.927 C 580.726 777.887, 582.850 776.992, 584.500 775.938 C 586.150 774.884, 588.175 773.759, 589 773.438 C 589.825 773.117, 591.281 772.437, 592.236 771.927 C 593.191 771.417, 594.889 771, 596.008 771 C 597.208 771, 598.510 769.975, 599.182 768.500 C 599.808 767.125, 601.149 766, 602.161 766 C 603.172 766, 604 765.550, 604 765 C 604 764.450, 604.512 764, 605.138 764 C 605.763 764, 607.621 762.425, 609.265 760.500 C 612.475 756.742, 614.703 756.063, 615.658 758.551 C 616.454 760.626, 640.258 784.482, 643.747 786.701 C 645.261 787.664, 646.860 789.025, 647.300 789.726 C 647.740 790.427, 648.557 791, 649.116 791 C 649.676 791, 651.608 792.125, 653.411 793.500 C 655.214 794.875, 657.209 796, 657.844 796 C 658.480 796, 659 796.425, 659 796.945 C 659 797.958, 660.036 798.586, 670.643 804 C 674.414 805.925, 677.725 807.774, 678 808.109 C 678.275 808.444, 680.188 809.322, 682.250 810.060 C 684.313 810.798, 686 811.716, 686 812.101 C 686 812.486, 688.250 813.340, 691 814 C 693.750 814.660, 696 815.543, 696 815.963 C 696 816.383, 698.700 817.300, 702 818 C 705.300 818.700, 708 819.622, 708 820.049 C 708 820.475, 709.913 821.140, 712.250 821.525 C 714.587 821.911, 716.950 822.573, 717.500 822.996 C 718.831 824.021, 728.361 826, 731.966 826 C 733.543 826, 734.983 826.424, 735.167 826.942 C 735.950 829.157, 787.181 831.133, 788.500 829 C 788.840 828.450, 791.270 828, 793.900 828 C 800.041 828, 815.197 826, 816.500 825.018 C 817.050 824.603, 820.650 823.695, 824.500 823 C 828.350 822.305, 831.950 821.396, 832.500 820.980 C 833.050 820.563, 836.087 819.651, 839.250 818.952 C 842.413 818.253, 845 817.352, 845 816.949 C 845 816.546, 846.238 815.927, 847.750 815.574 C 850.944 814.827, 852.744 814.023, 867.312 806.835 C 882.508 799.337, 883.091 799.017, 887 796.018 C 888.925 794.541, 891.288 793.047, 892.250 792.698 C 893.212 792.348, 894 791.599, 894 791.031 C 894 790.464, 894.514 790, 895.142 790 C 895.770 790, 898.655 787.975, 901.552 785.500 C 904.449 783.025, 907.158 781, 907.573 781 C 908.522 781, 935 754.469, 935 753.519 C 935 753.134, 937.025 750.449, 939.500 747.552 C 941.975 744.655, 944 741.770, 944 741.142 C 944 740.514, 944.429 740, 944.953 740 C 945.477 740, 946.644 738.446, 947.545 736.546 C 948.447 734.646, 949.818 732.566, 950.592 731.924 C 951.366 731.281, 952 730.158, 952 729.427 C 952 728.697, 952.580 727.740, 953.288 727.300 C 954.661 726.447, 964 707.972, 964 706.108 C 964 705.499, 964.414 705, 964.921 705 C 965.427 705, 966.146 703.538, 966.519 701.750 C 966.891 699.962, 967.749 697.600, 968.424 696.500 C 969.099 695.400, 970.238 692.362, 970.955 689.750 C 971.673 687.138, 972.593 685, 973.001 685 C 973.409 685, 974.041 682.750, 974.406 680 C 974.770 677.250, 975.448 675, 975.912 675 C 976.376 675, 977.320 671.288, 978.010 666.750 C 978.700 662.212, 979.610 658.050, 980.031 657.500 C 983.674 652.748, 983.643 585.318, 979.996 580.500 C 979.580 579.950, 978.660 575.542, 977.952 570.705 C 977.244 565.868, 976.290 561.679, 975.832 561.396 C 975.375 561.113, 974.997 560.121, 974.994 559.191 C 974.990 558.261, 974.358 556.293, 973.588 554.817 C 972.818 553.342, 971.869 550.642, 971.479 548.817 C 971.088 546.993, 970.186 544.375, 969.473 543 C 968.761 541.625, 967.631 538.925, 966.964 537 C 964.981 531.281, 957.797 516.737, 955.310 513.406 C 954.040 511.704, 953 509.985, 953 509.586 C 953 509.187, 951.650 506.898, 950 504.500 C 948.350 502.102, 947 499.833, 947 499.459 C 947 499.084, 945.200 496.628, 943 494 C 940.800 491.372, 939 488.917, 939 488.544 C 939 488.171, 937.425 486.380, 935.500 484.565 C 933.575 482.749, 932 480.860, 932 480.366 C 932 479.057, 909.674 457, 908.349 457 C 907.734 457, 906.493 455.875, 905.592 454.500 C 904.691 453.125, 903.464 452, 902.866 452 C 902.267 452, 899.628 450.200, 897 448 C 894.372 445.800, 891.722 444, 891.111 444 C 890.500 444, 890 443.633, 890 443.185 C 890 442.737, 888.538 441.615, 886.750 440.691 C 883.431 438.976, 882.588 438.471, 875.349 433.850 C 873.065 432.393, 869.578 430.615, 867.599 429.899 C 865.619 429.184, 864 428.239, 864 427.799 C 864 427.360, 863.319 427, 862.486 427 C 860.979 427, 860.200 426.682, 854.500 423.735 C 852.850 422.881, 849.813 421.867, 847.750 421.480 C 845.687 421.094, 844 420.449, 844 420.048 C 844 419.647, 841.412 418.747, 838.250 418.048 C 835.087 417.349, 832.050 416.420, 831.500 415.982 C 830.950 415.545, 828.357 414.868, 825.738 414.478 C 823.118 414.088, 820.729 413.371, 820.429 412.885 C 820.128 412.398, 818.784 412, 817.441 412 C 816.098 412, 815 411.623, 815 411.163 C 815 410.057, 795.669 407.997, 785.309 407.999 C 780.804 407.999, 776.865 407.591, 776.556 407.090 C 775.854 405.955, 767.109 406.014, 766.402 407.159 C 766.116 407.622, 762.723 408, 758.861 408 C 750.451 408, 732.904 409.929, 731.500 411.008 C 730.950 411.430, 728.138 412.094, 725.250 412.482 C 722.362 412.870, 720 413.595, 720 414.094 C 720 414.592, 719.040 415, 717.866 415 C 715.425 415, 707.993 417.001, 706.500 418.060 C 705.950 418.450, 703.925 419.094, 702 419.491 C 700.075 419.888, 694.900 421.930, 690.500 424.028 C 686.100 426.127, 681.263 428.153, 679.750 428.531 C 678.237 428.908, 677 429.566, 677 429.992 C 677 430.418, 676.212 431.059, 675.250 431.416 C 674.288 431.773, 671.250 433.374, 668.500 434.972 C 665.750 436.571, 662.487 438.345, 661.250 438.915 C 660.013 439.484, 659 440.412, 659 440.975 C 659 441.539, 658.360 442, 657.577 442 C 656.794 442, 654.816 443.125, 653.182 444.500 C 651.548 445.875, 649.939 447, 649.606 447 C 648.919 447, 646.842 448.691, 641.500 453.600 C 639.465 455.470, 637.495 457, 637.121 457 C 636.748 457, 633.543 459.925, 630 463.500 C 626.457 467.075, 622.982 470, 622.279 470 C 621.575 470, 621 470.489, 621 471.088 C 621 471.686, 617.625 475.843, 613.500 480.326 C 609.375 484.809, 606 489.029, 606 489.703 C 606 490.378, 605.100 491.411, 604 492 C 602.900 492.589, 602 493.535, 602 494.102 C 602 494.669, 600.875 496.608, 599.500 498.411 C 598.125 500.214, 597 502.161, 597 502.737 C 597 503.314, 596.367 504.029, 595.594 504.325 C 594.821 504.622, 593.894 506.208, 593.533 507.849 C 593.173 509.490, 592.230 511.081, 591.439 511.385 C 590.648 511.689, 589.990 512.514, 589.978 513.219 C 589.966 513.923, 589.076 515.625, 588 517 C 586.924 518.375, 586.034 520.302, 586.022 521.281 C 586.010 522.261, 585.325 523.322, 584.500 523.638 C 583.675 523.955, 582.986 524.953, 582.969 525.857 C 582.952 526.761, 581.831 529.750, 580.478 532.500 C 579.125 535.250, 578.014 538.288, 578.009 539.250 C 578.004 540.212, 577.567 541, 577.039 541 C 576.510 541, 575.599 542.913, 575.016 545.250 C 574.432 547.587, 573.545 550.232, 573.045 551.127 C 572.546 552.022, 571.822 554.497, 571.438 556.627 C 571.054 558.757, 570.392 560.950, 569.968 561.500 C 569.545 562.050, 568.611 566.100, 567.893 570.500 C 567.176 574.900, 566.300 578.725, 565.948 579 C 565.016 579.727, 563 598.899, 563 607.036 C 563 610.866, 562.576 614, 562.058 614 C 561.541 614, 561.181 617.150, 561.260 621 C 561.339 624.850, 561.699 628, 562.060 628 C 562.421 628, 562.956 633.046, 563.248 639.213 C 563.574 646.095, 564.209 650.570, 564.890 650.797 C 565.500 651, 566 651.565, 566 652.052 C 566 652.539, 565.325 652.678, 564.500 652.362 C 563.550 651.997, 563 652.375, 563 653.393 C 563 654.277, 562.325 655, 561.500 655 C 560.675 655, 560 655.500, 560 656.111 C 560 656.840, 558.794 656.996, 556.500 656.566 C 553.682 656.037, 553 656.222, 553 657.514 C 553 658.396, 552.618 658.882, 552.151 658.594 C 551.685 658.305, 550.295 659.008, 549.064 660.155 C 547.280 661.818, 545.942 662.141, 542.470 661.750 C 539.188 661.380, 537.972 661.629, 537.537 662.764 C 537.047 664.042, 535.224 664.163, 525.480 663.562 C 515.620 662.955, 514 663.068, 514 664.358 C 514 665.577, 513.388 665.685, 510.757 664.930 C 506.456 663.697, 499 663.741, 499 665 C 499 665.550, 500.163 666, 501.583 666 C 503.004 666, 504.012 666.465, 503.822 667.033 C 503.591 667.728, 485.332 668.050, 448.013 668.017 C 384.920 667.960, 383.918 667.845, 388.600 661.160 C 389.481 659.904, 389.961 657.958, 389.668 656.837 C 389 654.284, 390.876 650, 392.661 650 C 393.397 650, 394 649.325, 394 648.500 C 394 647.675, 394.450 647, 395 647 C 395.550 647, 396 646.314, 396 645.475 C 396 644.637, 397.171 643.505, 398.602 642.961 C 400.278 642.324, 401.005 641.454, 400.644 640.515 C 400.337 639.714, 400.741 638.402, 401.542 637.600 C 402.344 636.799, 403 635.197, 403 634.040 C 403 632.883, 403.563 631.770, 404.250 631.565 C 409.025 630.141, 409.106 630.066, 408.030 628.057 C 407.190 626.487, 407.341 625.888, 408.769 625.123 C 409.756 624.595, 411.610 622.069, 412.888 619.509 C 414.167 616.950, 415.840 614.615, 416.606 614.321 C 417.373 614.027, 418 613.042, 418 612.133 C 418 609.675, 422.934 604.761, 424.714 605.444 C 425.887 605.894, 426.088 605.489, 425.620 603.621 C 425.159 601.785, 425.596 600.839, 427.476 599.607 C 428.971 598.628, 429.712 597.412, 429.364 596.506 C 429.038 595.657, 429.482 594.752, 430.396 594.401 C 431.278 594.063, 432 593.164, 432 592.405 C 432 591.569, 432.888 591.118, 434.250 591.262 C 436.196 591.468, 436.480 591.061, 436.353 588.250 C 436.227 585.493, 436.550 585, 438.480 585 C 439.731 585, 441.315 584.325, 442 583.500 C 442.860 582.464, 442.898 582, 442.122 582 C 438.618 582, 442.599 573.568, 446.575 572.571 C 448.675 572.044, 448.886 571.655, 447.987 569.976 C 447.096 568.312, 447.487 567.512, 450.465 564.897 C 452.409 563.190, 454 560.935, 454 559.887 C 454 558.838, 454.926 557.197, 456.058 556.240 C 457.190 555.283, 458.765 553.150, 459.557 551.500 C 460.349 549.850, 462.123 547.193, 463.499 545.594 C 464.874 543.996, 466 542.192, 466 541.585 C 466 540.978, 466.900 539.919, 468 539.232 C 469.100 538.545, 470 537.087, 470 535.992 C 470 534.896, 470.503 534.113, 471.117 534.250 C 471.732 534.388, 472.382 533.600, 472.562 532.500 C 472.742 531.400, 473.814 529.883, 474.945 529.128 C 476.075 528.373, 477 527.189, 477 526.497 C 477 525.804, 478.304 523.946, 479.897 522.369 C 481.491 520.791, 482.953 518.637, 483.147 517.583 C 483.341 516.528, 484.131 515.456, 484.902 515.199 C 485.911 514.863, 486.147 515.329, 485.745 516.866 C 485.438 518.040, 485.595 519, 486.094 519 C 486.592 519, 487 518.104, 487 517.008 C 487 515.913, 487.900 514.455, 489 513.768 C 491.367 512.289, 491.600 511, 489.500 511 C 487.582 511, 487.577 509.596, 489.489 508.009 C 490.308 507.329, 490.729 506.371, 490.426 505.880 C 490.122 505.388, 490.577 504.716, 491.437 504.386 C 492.296 504.056, 493 503.197, 493 502.478 C 493 501.758, 494.350 499.895, 496 498.338 C 497.650 496.781, 499 494.991, 499 494.360 C 499 493.730, 499.704 492.944, 500.563 492.614 C 501.423 492.284, 501.838 491.548, 501.486 490.977 C 501.134 490.407, 502.117 488.404, 503.673 486.527 C 505.228 484.649, 507.625 481.702, 509 479.979 C 510.375 478.255, 512.737 475.448, 514.250 473.742 C 515.763 472.036, 517.014 469.933, 517.032 469.070 C 517.071 467.153, 518.877 464.873, 521.523 463.399 C 522.817 462.678, 523.608 461.021, 523.813 458.601 C 524.079 455.468, 524.419 454.998, 526.053 455.517 C 527.122 455.856, 528.973 455.432, 530.212 454.564 C 532.445 453, 532.445 453, 530.223 453 C 528.667 453, 528 452.400, 528 451 C 528 449.889, 528.667 449, 529.500 449 C 530.325 449, 531 448.325, 531 447.500 C 531 446.675, 531.399 446, 531.886 446 C 532.373 446, 533.475 444.537, 534.333 442.750 C 535.192 440.962, 537.268 438.010, 538.947 436.188 C 540.626 434.367, 542 432.302, 542 431.599 C 542 430.896, 543.090 429.825, 544.421 429.218 C 546.189 428.412, 546.698 427.559, 546.305 426.057 C 545.999 424.888, 546.249 424, 546.883 424 C 547.498 424, 548 423.529, 548 422.952 C 548 422.376, 549.125 420.862, 550.500 419.588 C 551.875 418.313, 553 416.521, 553 415.604 C 553 414.687, 553.677 413.677, 554.505 413.360 C 555.332 413.042, 556.723 411.278, 557.596 409.439 C 558.664 407.188, 560.285 405.731, 562.553 404.982 C 565.566 403.988, 565.863 403.567, 565.352 401.012 C 564.911 398.806, 565.262 397.853, 566.890 396.836 C 568.051 396.112, 569.004 394.615, 569.010 393.509 C 569.015 392.404, 570.590 389.524, 572.510 387.109 C 574.429 384.694, 576 382.123, 576 381.394 C 576 380.666, 576.802 379.641, 577.781 379.117 C 578.761 378.593, 580.195 376.552, 580.968 374.582 C 581.741 372.612, 582.964 371, 583.687 371 C 584.409 371, 585 370.410, 585 369.689 C 585 368.967, 585.900 367.411, 587 366.230 C 588.100 365.050, 589 363.315, 589 362.375 C 589 361.435, 589.301 360.968, 589.669 361.336 C 590.729 362.396, 593.923 358.964, 593.326 357.406 C 593.029 356.633, 593.316 356, 593.964 356 C 595.338 356, 598 353.540, 598 352.271 C 598 350.136, 600.691 346.007, 602.671 345.105 C 604.097 344.454, 604.678 343.486, 604.364 342.285 C 604.072 341.167, 604.880 339.522, 606.443 338.054 C 607.849 336.732, 609 335.041, 609 334.294 C 609 333.548, 609.672 332.679, 610.494 332.364 C 611.316 332.048, 611.765 331.428, 611.491 330.985 C 610.631 329.594, 612.058 327.218, 614.069 326.692 C 615.201 326.396, 616 325.321, 616 324.094 C 616 322.899, 616.644 322, 617.500 322 C 618.325 322, 619 321.325, 619 320.500 C 619 319.675, 619.450 319, 620 319 C 620.550 319, 621 318.518, 621 317.929 C 621 315.867, 623.957 313.852, 626.021 314.507 C 627.895 315.101, 627.998 314.843, 627.396 311.075 C 626.957 308.332, 627.113 307, 627.872 307 C 628.492 307, 629 306.489, 629 305.865 C 629 305.240, 630.125 303.687, 631.500 302.412 C 632.875 301.138, 634 299.226, 634 298.164 C 634 297.074, 634.871 296.005, 636 295.710 C 637.197 295.397, 638 294.346, 638 293.094 C 638 291.942, 638.419 291, 638.930 291 C 639.442 291, 640.005 289.988, 640.180 288.750 C 640.356 287.512, 640.757 286.725, 641.071 287 C 642.038 287.846, 645 284.257, 645 282.240 C 645 281.194, 646.110 279.744, 647.466 279.018 C 648.822 278.292, 649.727 277.367, 649.477 276.963 C 649.227 276.558, 649.692 275.671, 650.511 274.991 C 651.330 274.311, 652 272.868, 652 271.784 C 652 270.686, 652.845 269.592, 653.906 269.314 C 655.116 268.998, 656.044 267.582, 656.446 265.435 C 656.795 263.576, 657.746 261.682, 658.559 261.227 C 659.372 260.772, 660.836 258.910, 661.812 257.089 C 662.789 255.269, 663.978 253.859, 664.456 253.957 C 664.933 254.056, 665.934 252.683, 666.681 250.908 C 667.427 249.133, 669.379 246.398, 671.019 244.831 C 672.659 243.265, 674 241.312, 674 240.491 C 674 239.671, 674.591 239, 675.313 239 C 676.036 239, 677.245 237.425, 678 235.500 C 678.755 233.575, 679.687 232, 680.070 232 C 680.453 232, 681.002 231.100, 681.290 230 C 681.577 228.900, 682.530 228, 683.406 228 C 684.510 228, 685 227.078, 685 225 C 685 223, 685.500 222, 686.500 222 C 687.333 222, 688 221.111, 688 220 C 688 218.005, 687.333 218, 437 218 C 270.333 218, 186 218.336, 186 219 M 758 457.631 C 754.975 457.855, 751.600 458.427, 750.500 458.903 C 749.400 459.379, 744.900 460.315, 740.500 460.983 C 736.100 461.651, 732.050 462.545, 731.500 462.968 C 730.950 463.392, 728.757 464.054, 726.627 464.438 C 724.497 464.822, 722.022 465.524, 721.127 465.997 C 718.922 467.162, 711.285 470.441, 707 472.062 C 705.075 472.791, 703.275 473.663, 703 474 C 702.725 474.337, 700.925 475.224, 699 475.971 C 697.075 476.718, 693.361 478.830, 690.748 480.664 C 688.134 482.499, 685.723 484, 685.391 484 C 684.511 484, 675.021 491.439, 671.392 494.973 C 669.683 496.638, 667.870 498, 667.363 498 C 666.100 498, 654 510.302, 654 511.586 C 654 512.154, 652.210 514.167, 650.023 516.060 C 647.835 517.952, 646.035 519.904, 646.023 520.397 C 646.010 520.890, 644.425 523.216, 642.500 525.565 C 640.575 527.915, 639 530.103, 639 530.429 C 639 530.754, 637.488 533.171, 635.641 535.799 C 633.793 538.428, 631.678 542.248, 630.940 544.289 C 630.202 546.330, 629.274 548, 628.879 548 C 628.483 548, 627.838 549.462, 627.446 551.250 C 627.054 553.038, 625.893 556.068, 624.867 557.985 C 623.840 559.902, 622.986 562.152, 622.968 562.985 C 622.951 563.818, 622.276 565.374, 621.468 566.441 C 620.661 567.509, 619.997 569.534, 619.994 570.941 C 619.990 572.349, 619.329 574.763, 618.523 576.307 C 617.718 577.851, 616.556 583.026, 615.941 587.807 C 615.326 592.588, 614.300 597.581, 613.662 598.901 C 612.085 602.162, 612.079 634.822, 613.655 638.099 C 614.290 639.419, 615.350 644.440, 616.010 649.256 C 616.669 654.071, 617.570 658.234, 618.011 658.507 C 618.452 658.779, 619.126 661.364, 619.509 664.251 C 619.892 667.138, 620.798 670.850, 621.523 672.500 C 622.248 674.150, 623.131 676.625, 623.486 678 C 624.144 680.553, 627.497 688.297, 629.115 691 C 629.609 691.825, 630.267 693.175, 630.579 694 C 630.890 694.825, 631.571 696.175, 632.092 697 C 632.614 697.825, 633.750 700.053, 634.617 701.950 C 635.484 703.848, 637.725 707.269, 639.597 709.553 C 641.469 711.837, 643 714.003, 643 714.366 C 643 714.729, 645.250 717.264, 648 720 C 650.750 722.736, 653 725.334, 653 725.774 C 653 727.049, 662.441 736, 663.784 736 C 664.453 736, 665 736.675, 665 737.500 C 665 738.325, 665.428 739, 665.952 739 C 666.475 739, 668.397 740.538, 670.222 742.417 C 673.951 746.256, 682.337 752.499, 685.750 753.977 C 686.987 754.512, 688 755.313, 688 755.756 C 688 756.199, 689.237 757.103, 690.750 757.765 C 692.263 758.427, 695.975 760.331, 699 761.996 C 702.025 763.660, 705.400 765.289, 706.500 765.615 C 707.600 765.941, 710.300 767.019, 712.500 768.012 C 721.388 772.023, 723.670 772.865, 727.500 773.548 C 729.700 773.940, 731.958 774.621, 732.518 775.060 C 733.078 775.500, 737.578 776.374, 742.518 777.002 C 747.458 777.630, 752.252 778.543, 753.170 779.031 C 755.205 780.111, 799.831 778.360, 801.404 777.138 C 802.007 776.670, 805.425 775.730, 809 775.049 C 812.575 774.369, 815.950 773.479, 816.500 773.071 C 817.050 772.664, 820.170 771.755, 823.434 771.052 C 826.698 770.349, 829.975 769.168, 830.717 768.426 C 831.458 767.685, 833.625 766.786, 835.532 766.428 C 837.439 766.070, 839 765.413, 839 764.968 C 839 764.523, 840.350 763.862, 842 763.500 C 843.650 763.138, 845 762.479, 845 762.037 C 845 761.595, 845.788 760.960, 846.750 760.626 C 849.046 759.830, 856.058 755.807, 859.822 753.127 C 861.465 751.957, 863.302 751, 863.904 751 C 864.507 751, 865 750.536, 865 749.969 C 865 749.401, 865.788 748.650, 866.750 748.299 C 872.286 746.278, 899.217 719.161, 903.193 711.604 C 903.801 710.447, 904.591 709.275, 904.948 709 C 907.947 706.687, 921.595 680.678, 922.589 675.380 C 922.937 673.521, 923.561 672, 923.975 672 C 924.388 672, 925.300 669.300, 926 666 C 926.700 662.700, 927.611 660, 928.024 660 C 928.437 660, 929.330 655.388, 930.009 649.750 C 930.687 644.112, 931.680 638.954, 932.214 638.286 C 933.550 636.616, 933.374 600.625, 932.028 600.176 C 931.462 599.987, 931 598.010, 931 595.782 C 931 591.098, 928.912 578.738, 927.997 578 C 927.656 577.725, 926.789 574.822, 926.072 571.550 C 925.354 568.277, 924.406 564.902, 923.964 564.050 C 920.940 558.213, 919.156 553.985, 918.546 551.210 C 918.158 549.445, 917.507 548, 917.098 548 C 916.689 548, 914.587 544.594, 912.427 540.431 C 906.200 528.428, 905.942 528, 904.945 528 C 904.425 528, 904 527.486, 904 526.858 C 904 526.230, 901.975 523.345, 899.500 520.448 C 897.025 517.551, 895 514.915, 895 514.591 C 895 513.820, 879.181 498, 878.411 498 C 878.088 498, 875.508 495.975, 872.679 493.500 C 869.849 491.025, 866.964 489, 866.267 489 C 865.570 489, 865 488.626, 865 488.168 C 865 487.151, 855.656 481, 854.110 481 C 853.500 481, 853 480.644, 853 480.209 C 853 479.185, 842.776 474, 840.757 474 C 839.908 474, 838.980 473.389, 838.693 472.642 C 838.406 471.895, 836.747 470.999, 835.006 470.651 C 831.852 470.020, 826.933 468.107, 821.796 465.512 C 820.309 464.761, 815.696 463.575, 811.546 462.878 C 807.396 462.181, 804 461.248, 804 460.805 C 804 460.362, 802.237 460, 800.083 460 C 797.929 460, 796.014 459.542, 795.828 458.983 C 795.468 457.903, 767.717 456.911, 758 457.631" stroke="none" fill="#ffffff" fill-rule="evenodd"/></svg>